<?xml version="1.0" encoding="UTF-8" standalone="no"?>
<!-- Created with Inkscape (http://www.inkscape.org/) -->

<svg
   width="210mm"
   height="297mm"
   viewBox="0 0 210 297"
   version="1.1"
   id="svg5"
   xml:space="preserve"
   inkscape:version="1.2.1 (9c6d41e410, 2022-07-14, custom)"
   sodipodi:docname="sketch.svg"
   xmlns:inkscape="http://www.inkscape.org/namespaces/inkscape"
   xmlns:sodipodi="http://sodipodi.sourceforge.net/DTD/sodipodi-0.dtd"
   xmlns="http://www.w3.org/2000/svg"
   xmlns:svg="http://www.w3.org/2000/svg"><sodipodi:namedview
     id="namedview7"
     pagecolor="#ffffff"
     bordercolor="#666666"
     borderopacity="1.0"
     inkscape:showpageshadow="2"
     inkscape:pageopacity="0.0"
     inkscape:pagecheckerboard="0"
     inkscape:deskcolor="#d1d1d1"
     inkscape:document-units="mm"
     showgrid="false"
     inkscape:zoom="3.659624"
     inkscape:cx="541.72232"
     inkscape:cy="243.87751"
     inkscape:window-width="1867"
     inkscape:window-height="1428"
     inkscape:window-x="4100"
     inkscape:window-y="138"
     inkscape:window-maximized="0"
     inkscape:current-layer="layer1" /><defs
     id="defs2" /><g
     inkscape:label="Layer 1"
     inkscape:groupmode="layer"
     id="layer1"><rect
       style="fill:#2d4b35;fill-opacity:1;stroke-width:2.06818;stroke-linecap:square;stroke-linejoin:round"
       id="rect12750"
       width="71.344376"
       height="79.313553"
       x="57.597534"
       y="23.842403" /><rect
       style="fill:#ffff94;fill-opacity:1;stroke-width:0.338;stroke-linecap:square;stroke-linejoin:round"
       id="rect234"
       width="19.497995"
       height="24.495804"
       x="10.449879"
       y="12.393645" /><rect
       style="fill:#998e70;fill-opacity:1;stroke-width:0.249569;stroke-linecap:square;stroke-linejoin:round"
       id="rect236"
       width="23.198042"
       height="20.780401"
       x="22.858582"
       y="22.88131" /><rect
       style="fill:#2d4b35;fill-opacity:1;stroke-width:0.501662;stroke-linecap:square;stroke-linejoin:round"
       id="rect238"
       width="18.042435"
       height="18.452427"
       x="9.892252"
       y="34.267632" /><rect
       style="fill:#3f5f3c;fill-opacity:1;stroke-width:0.338;stroke-linecap:square;stroke-linejoin:round"
       id="rect244"
       width="12.005132"
       height="16.132399"
       x="25.281551"
       y="40.734665" /><rect
       style="fill:#ffffff;fill-opacity:1;stroke-width:0.338;stroke-linecap:square;stroke-linejoin:round"
       id="rect242"
       width="15.950313"
       height="12.803693"
       x="19.145121"
       y="32.535515" /><g
       id="g14267"
       sodipodi:insensitive="true"><rect
         style="fill:#2d4b35;fill-opacity:1;stroke:none;stroke-width:0.804;stroke-linecap:square;stroke-linejoin:round;stroke-dasharray:none;stroke-opacity:1"
         id="rect12805"
         width="39.195778"
         height="52.195782"
         x="140.41621"
         y="36.56514" /><g
         id="g14128"
         transform="translate(-1.05476,0.59789085)"><rect
           style="fill:#ffff94;fill-opacity:1;stroke:none;stroke-width:0.610754;stroke-linecap:square;stroke-linejoin:round;stroke-dasharray:none;stroke-opacity:1"
           id="rect13585"
           width="38"
           height="2.5"
           x="142.06886"
           y="85.06514" /><rect
           style="fill:#ffff94;fill-opacity:1;stroke:none;stroke-width:0.610754;stroke-linecap:square;stroke-linejoin:round;stroke-dasharray:none;stroke-opacity:1"
           id="rect14070"
           width="38"
           height="2.5"
           x="142.06886"
           y="36.56514" /></g><g
         id="g14145"
         transform="matrix(0.64292008,0,0,0.64292008,98.358253,21.371777)"><path
           id="path12708"
           style="fill:#ffffff;fill-opacity:1;stroke:#ffffff;stroke-width:0.453;stroke-dasharray:none;stroke-opacity:1"
           d="m 103.8182,32.903375 c -5.178662,0 -9.377719,4.197507 -9.377719,9.376172 v 2.852539 c 0,1.339449 0.09543,2.677358 0.28422,4.004407 l 0.296623,2.078943 c -0.383369,0.273891 -1.4377,1.05183 -1.644344,1.463993 -0.25356,0.508499 -10e-7,0.972896 0.169498,0.930176 0.117983,-0.02898 1.121862,-0.450634 1.715658,-0.701766 l 0.02325,0.161747 c 0.20812,1.456579 0.30182,2.926959 0.28112,4.398698 L 95.34068,73.799067 c -0.01378,0.9605 -0.164325,1.91289 -0.449585,2.82929 -0.299029,0.96049 -0.450618,1.96094 -0.450618,2.96829 v 7.247099 c 0,4.00458 3.246661,7.25124 7.251233,7.25124 h 12.25507 c 4.00458,0 7.25124,-3.24666 7.25124,-7.25124 v -7.247099 c 0,-1.00735 -0.15296,-2.0078 -0.45062,-2.96829 -0.28525,-0.9164 -0.43667,-1.86879 -0.44907,-2.82929 l -0.22634,-16.330783 c -0.0207,-1.471739 0.073,-2.942119 0.28112,-4.398698 l 0.0227,-0.161231 c 0.59426,0.251157 1.59874,0.672274 1.71669,0.70125 0.1695,0.04272 0.42306,-0.421677 0.1695,-0.930176 -0.2067,-0.41227 -1.26174,-1.190808 -1.64486,-1.46451 l 0.29559,-2.078426 c 0.19015,-1.327049 0.28525,-2.664958 0.28525,-4.004407 v -2.852539 c 0,-5.178665 -4.19906,-9.376172 -9.37772,-9.376172 z" /><g
           id="g12748"
           transform="translate(29.634466,16.52957)"><path
             fill-rule="nonzero"
             fill="#ff6f00"
             fill-opacity="1"
             d="m 65.090234,32.607006 c -0.18879,-1.32705 -0.28387,-2.66512 -0.28387,-4.00457 v -2.85254 c 0,-5.17867 4.19888,-9.37618 9.37755,-9.37618 h 8.00226 c 5.17867,0 9.37755,4.19751 9.37755,9.37618 v 2.85254 c 0,1.33945 -0.0951,2.67752 -0.28525,4.00457 l -0.55949,3.93293 c -0.20808,1.45658 -0.30178,2.92695 -0.28111,4.39869 l 0.22599,16.33113 c 0.0124,0.9605 0.16399,1.91272 0.44924,2.82912 0.29766,0.96049 0.45062,1.96094 0.45062,2.96829 v 7.2471 c 0,4.00458 -3.24665,7.25124 -7.25123,7.25124 h -12.2549 c -4.00458,0 -7.25123,-3.24666 -7.25123,-7.25124 v -7.2471 c 0,-1.00735 0.15158,-2.0078 0.45061,-2.96829 0.28526,-0.9164 0.43546,-1.86862 0.44924,-2.82912 l 0.226,-16.33113 c 0.0207,-1.47174 -0.073,-2.94211 -0.28112,-4.39869 z m 0,0"
             id="path11854"
             style="fill:#2d4b35;fill-opacity:1;stroke-width:0.352778" /><path
             fill-rule="nonzero"
             fill="#ff8b00"
             fill-opacity="1"
             d="m 90.541224,33.415916 c 0.17914,-1.25126 0.26872,-2.51492 0.26872,-3.77996 v -2.6913 c 0,-4.88653 -3.96186,-8.84839 -8.84839,-8.84839 h -7.55302 c -4.88653,0 -8.84839,3.96186 -8.84839,8.84839 v 2.6913 c 0,1.26504 0.0896,2.5287 0.26734,3.77996 l 0.52917,3.71106 c 0.19568,1.37528 0.28525,2.76297 0.26596,4.15203 l -0.2136,15.4106 c -0.0124,0.90675 -0.15571,1.80523 -0.42443,2.67064 -0.28112,0.90675 -0.42444,1.8507 -0.42444,2.80017 v 6.8392 c 0,3.77859 3.06338,6.84197 6.84196,6.84197 h 11.56588 c 3.77858,0 6.84196,-3.06338 6.84196,-6.84197 v -6.8392 c 0,-0.94947 -0.14332,-1.89342 -0.42444,-2.80017 -0.26872,-0.86541 -0.41203,-1.76389 -0.42443,-2.67064 l -0.2136,-15.4106 c -0.0193,-1.38906 0.0689,-2.77675 0.26458,-4.15203 z m 0,0"
             id="path11856"
             style="fill:#3f5f3c;fill-opacity:1;stroke-width:0.352778" /><path
             fill-rule="nonzero"
             fill="#e9e8d8"
             fill-opacity="1"
             d="m 66.639154,21.739796 c -0.76068,-1.11621 2.53559,-3.29626 3.5071,-2.53559 0.9729,0.76068 -2.8732,3.46577 -3.5071,2.53559"
             id="path11858"
             style="fill:#ffffff;fill-opacity:1;stroke-width:0.352778" /><path
             fill-rule="nonzero"
             fill="#ff6600"
             fill-opacity="1"
             d="m 65.527074,34.587256 c 0,0 -1.531,1.05695 -1.78456,1.56269 -0.25356,0.5085 0,0.9729 0.1695,0.93018 0.16812,-0.0413 2.15387,-0.88746 2.15387,-0.88746 z m 0,0"
             id="path11860"
             style="fill:#2d4b35;fill-opacity:1;stroke-width:0.352778" /><path
             fill-rule="nonzero"
             fill="#45474a"
             fill-opacity="1"
             d="m 67.924854,49.817326 c 0.0152,-2.71887 -0.0234,-5.06153 -0.10197,-6.73585 -0.25356,-5.36746 -1.22508,-9.63524 -1.22508,-9.63524 -0.32108,6.36792 -0.46853,11.53694 -0.50849,15.7179 0.60358,0.27561 1.21818,0.40515 1.83554,0.65319"
             id="path11862"
             style="fill:#998e70;fill-opacity:1;stroke-width:0.352778" /><path
             fill-rule="nonzero"
             fill="#45474a"
             fill-opacity="1"
             d="m 66.085184,49.662986 c -0.0978,12.90395 0.85025,16.11203 0.85025,16.11203 0.66145,-2.58796 0.95084,-9.54292 0.98805,-15.49742 -0.60496,-0.19017 -1.21819,-0.48094 -1.8383,-0.61461"
             id="path11864"
             style="fill:#998e70;fill-opacity:1;stroke-width:0.352778" /><path
             fill-rule="nonzero"
             fill="#45474a"
             fill-opacity="1"
             d="m 88.445224,49.817326 c -0.0152,-2.71887 0.0234,-5.06153 0.10198,-6.73585 0.25356,-5.36746 1.22507,-9.63524 1.22507,-9.63524 0.32109,6.36792 0.46854,11.53694 0.5085,15.7179 -0.60496,0.27561 -1.21819,0.40515 -1.83555,0.65319"
             id="path11866"
             style="fill:#998e70;fill-opacity:1;stroke-width:0.352778" /><path
             fill-rule="nonzero"
             fill="#45474a"
             fill-opacity="1"
             d="m 90.284914,49.662986 c 0.0978,12.90395 -0.85026,16.11203 -0.85026,16.11203 -0.66145,-2.58796 -0.95084,-9.54292 -0.98805,-15.49742 0.60496,-0.19017 1.21819,-0.48094 1.83831,-0.61461"
             id="path11868"
             style="fill:#998e70;fill-opacity:1;stroke-width:0.352778" /><path
             fill-rule="nonzero"
             fill="#ffcc00"
             fill-opacity="1"
             d="m 70.177954,75.825046 c -0.17088,0.35829 -1.02113,0.31006 -1.90032,-0.10611 -0.87918,-0.41754 -1.45383,-1.04593 -1.28433,-1.40422 0.17088,-0.35967 1.02113,-0.31144 1.90032,0.10611 0.87918,0.41617 1.45383,1.04593 1.28433,1.40422"
             id="path11870"
             style="fill:#ffff94;fill-opacity:1;stroke-width:0.352778" /><path
             fill-rule="nonzero"
             fill="#e9e8d8"
             fill-opacity="1"
             d="m 89.730934,21.739796 c 0.76068,-1.11621 -2.53559,-3.29626 -3.50848,-2.53559 -0.97152,0.76068 2.87459,3.46577 3.50848,2.53559"
             id="path11872"
             style="fill:#ffffff;fill-opacity:1;stroke-width:0.352778" /><path
             fill-rule="nonzero"
             fill="#ff6600"
             fill-opacity="1"
             d="m 90.843014,34.587256 c 0,0 1.531,1.05695 1.78456,1.56269 0.25356,0.5085 0,0.9729 -0.1695,0.93018 -0.16812,-0.0413 -2.15525,-0.88746 -2.15525,-0.88746 z m 0,0"
             id="path11874"
             style="fill:#2d4b35;fill-opacity:1;stroke-width:0.352778" /><path
             fill-rule="nonzero"
             fill="#ffcc00"
             fill-opacity="1"
             d="m 86.192134,75.825046 c 0.1695,0.35829 1.02113,0.31006 1.90031,-0.10611 0.87919,-0.41754 1.45384,-1.04593 1.28296,-1.40422 -0.1695,-0.35967 -1.01975,-0.31144 -1.89894,0.10611 -0.87919,0.41617 -1.45521,1.04593 -1.28433,1.40422"
             id="path11876"
             style="fill:#ffff94;fill-opacity:1;stroke-width:0.352778" /><path
             fill-rule="nonzero"
             fill="#45474a"
             fill-opacity="1"
             d="m 78.184354,26.600146 c -8.64168,0 -10.82725,4.73356 -10.82725,4.73356 l 1.15756,9.29624 c 0,0 4.93475,-1.05557 9.66969,-1.05557 4.73632,0 9.67107,1.05557 9.67107,1.05557 l 1.15618,-9.29624 c 0,0 -2.1842,-4.73356 -10.82725,-4.73356 m 0,36.42706 c 6.22184,0 9.01099,-1.22508 9.01099,-1.22508 v 9.33897 c 0,0 -2.29994,2.57831 -9.01099,2.57831 -6.70967,0 -9.00961,-2.57831 -9.00961,-2.57831 v -9.33897 c 0,0 2.78915,1.22508 9.00961,1.22508"
             id="path11878"
             style="fill:#998e70;fill-opacity:1;stroke-width:0.352778" /></g></g></g><rect
       style="fill:#e3dedb;fill-opacity:1;stroke:none;stroke-width:0.256328;stroke-linecap:square;stroke-linejoin:round;stroke-dasharray:none;stroke-opacity:1"
       id="rect14245"
       width="2.3"
       height="0.80000001"
       x="93.101944"
       y="138.08618"
       transform="rotate(-40.135011)" /><rect
       style="fill:#e3dedb;fill-opacity:1;stroke:none;stroke-width:0.256328;stroke-linecap:square;stroke-linejoin:round;stroke-dasharray:none;stroke-opacity:1"
       id="rect14269"
       width="2.3"
       height="0.80000001"
       x="93.113274"
       y="139.12718"
       transform="rotate(-40.135011)" /><g
       id="g14277"
       transform="matrix(-1,0,0,1,335.34979,0)"><rect
         style="fill:#e3dedb;fill-opacity:1;stroke:none;stroke-width:0.256328;stroke-linecap:square;stroke-linejoin:round;stroke-dasharray:none;stroke-opacity:1"
         id="rect14271"
         width="2.3"
         height="0.80000001"
         x="93.101944"
         y="138.08618"
         transform="rotate(-40.135011)" /><rect
         style="fill:#e3dedb;fill-opacity:1;stroke:none;stroke-width:0.256328;stroke-linecap:square;stroke-linejoin:round;stroke-dasharray:none;stroke-opacity:1"
         id="rect14273"
         width="2.3"
         height="0.80000001"
         x="93.113274"
         y="139.12718"
         transform="rotate(-40.135011)" /></g><rect
       style="fill:#e3dedb;fill-opacity:1;stroke:none;stroke-width:0.395819;stroke-linecap:square;stroke-linejoin:round;stroke-dasharray:none;stroke-opacity:1"
       id="rect14333"
       width="2.3"
       height="0.80000001"
       x="166.59308"
       y="64.137344" /><rect
       style="fill:#e3dedb;fill-opacity:1;stroke:none;stroke-width:0.395819;stroke-linecap:square;stroke-linejoin:round;stroke-dasharray:none;stroke-opacity:1"
       id="rect14335"
       width="2.3"
       height="0.80000001"
       x="178.14491"
       y="-20.554453"
       transform="rotate(32.837355)" /><rect
       style="fill:#e3dedb;fill-opacity:1;stroke:none;stroke-width:0.395819;stroke-linecap:square;stroke-linejoin:round;stroke-dasharray:none;stroke-opacity:1"
       id="rect14337"
       width="2.3"
       height="0.80000001"
       x="-103.63025"
       y="161.29736"
       transform="matrix(-0.84021325,0.54225612,0.54225612,0.84021325,0,0)" /><rect
       style="fill:#e3dedb;fill-opacity:1;stroke:none;stroke-width:0.395819;stroke-linecap:square;stroke-linejoin:round;stroke-dasharray:none;stroke-opacity:1"
       id="rect14339"
       width="2.3"
       height="0.80000001"
       x="108.37144"
       y="128.02667"
       transform="rotate(-30.585557)" /><rect
       style="fill:#e3dedb;fill-opacity:1;stroke:none;stroke-width:0.395819;stroke-linecap:square;stroke-linejoin:round;stroke-dasharray:none;stroke-opacity:1"
       id="rect14341"
       width="2.3"
       height="0.80000001"
       x="-180.35561"
       y="-42.627804"
       transform="matrix(-0.86087032,-0.50882443,-0.50882443,0.86087032,0,0)" /><rect
       style="fill:#e3dedb;fill-opacity:1;stroke:none;stroke-width:0.395819;stroke-linecap:square;stroke-linejoin:round;stroke-dasharray:none;stroke-opacity:1"
       id="rect14345"
       width="2.3"
       height="0.80000001"
       x="133.28198"
       y="32.555912" /><rect
       style="fill:#999999;fill-opacity:1;stroke:none;stroke-width:1.75081;stroke-linecap:square;stroke-linejoin:round;stroke-dasharray:none;stroke-opacity:1"
       id="rect14347"
       width="6"
       height="6"
       x="142.15651"
       y="45.684067" /><rect
       style="fill:#999999;fill-opacity:1;stroke:none;stroke-width:1.75081;stroke-linecap:square;stroke-linejoin:round;stroke-dasharray:none;stroke-opacity:1"
       id="rect14349"
       width="6"
       height="6"
       x="149.77727"
       y="45.684067" /><rect
       style="fill:#999999;fill-opacity:1;stroke:none;stroke-width:1.75081;stroke-linecap:square;stroke-linejoin:round;stroke-dasharray:none;stroke-opacity:1"
       id="rect14351"
       width="6"
       height="6"
       x="142.15651"
       y="65.485786" /><rect
       style="fill:#999999;fill-opacity:1;stroke:none;stroke-width:1.75081;stroke-linecap:square;stroke-linejoin:round;stroke-dasharray:none;stroke-opacity:1"
       id="rect14353"
       width="6"
       height="6"
       x="149.77727"
       y="65.485786" /><rect
       style="fill:#999999;fill-opacity:1;stroke:none;stroke-width:1.75081;stroke-linecap:square;stroke-linejoin:round;stroke-dasharray:none;stroke-opacity:1"
       id="rect14355"
       width="6"
       height="6"
       x="145.81253"
       y="53.428013" /><rect
       style="fill:#999999;fill-opacity:1;stroke:none;stroke-width:1.75081;stroke-linecap:square;stroke-linejoin:round;stroke-dasharray:none;stroke-opacity:1"
       id="rect14357"
       width="6"
       height="6"
       x="142.15651"
       y="75.832184" /><rect
       style="fill:#999999;fill-opacity:1;stroke:none;stroke-width:1.75081;stroke-linecap:square;stroke-linejoin:round;stroke-dasharray:none;stroke-opacity:1"
       id="rect14359"
       width="6"
       height="6"
       x="149.77727"
       y="75.832184" /><g
       id="g14517"
       transform="translate(-0.29671195,0.59201232)"><path
         id="path14462"
         style="fill:#e3dedb;fill-opacity:1;stroke:none;stroke-width:0.757002;stroke-linecap:square;stroke-linejoin:round;stroke-dasharray:none;stroke-opacity:1"
         d="m 153.02127,62.051343 a 2.0957687,1.1153162 0 0 0 -0.22234,0.0072 1.2554231,2.0850453 0 0 0 -0.19272,1.108281 1.2554231,2.0850453 0 0 0 0.19272,1.108281 2.0957687,1.1153162 0 0 0 0.22234,0.0069 2.0957687,1.1153162 0 0 0 2.09588,-1.115142 2.0957687,1.1153162 0 0 0 -2.09588,-1.115453 z" /><g
         id="g14479"
         transform="matrix(1.2485192,0,0,1,-37.858929,0.02663737)"><rect
           style="fill:#e3dedb;fill-opacity:1;stroke:none;stroke-width:0.162246;stroke-linecap:square;stroke-linejoin:round;stroke-dasharray:none;stroke-opacity:1"
           id="rect14467"
           width="1.0470213"
           height="0.29526719"
           x="151.29102"
           y="62.127998" /><rect
           style="fill:#e3dedb;fill-opacity:1;stroke:none;stroke-width:0.162246;stroke-linecap:square;stroke-linejoin:round;stroke-dasharray:none;stroke-opacity:1"
           id="rect14469"
           width="1.0470213"
           height="0.29526719"
           x="151.29102"
           y="62.704269" /><rect
           style="fill:#e3dedb;fill-opacity:1;stroke:none;stroke-width:0.162246;stroke-linecap:square;stroke-linejoin:round;stroke-dasharray:none;stroke-opacity:1"
           id="rect14471"
           width="1.0470213"
           height="0.29526719"
           x="151.29102"
           y="63.280537" /><rect
           style="fill:#e3dedb;fill-opacity:1;stroke:none;stroke-width:0.162246;stroke-linecap:square;stroke-linejoin:round;stroke-dasharray:none;stroke-opacity:1"
           id="rect14473"
           width="1.0470213"
           height="0.29526719"
           x="151.29102"
           y="63.856808" /></g></g><g
       id="g14509"
       transform="translate(5.5783822,11.00178)"><path
         id="path14481"
         style="fill:#e3dedb;fill-opacity:1;stroke:none;stroke-width:0.757002;stroke-linecap:square;stroke-linejoin:round;stroke-dasharray:none;stroke-opacity:1"
         d="m 147.13691,62.023802 a 2.0957687,1.1153162 0 0 0 -0.22234,0.0072 1.2554231,2.0850453 0 0 0 -0.19272,1.108281 1.2554231,2.0850453 0 0 0 0.19272,1.108281 2.0957687,1.1153162 0 0 0 0.22234,0.0069 2.0957687,1.1153162 0 0 0 2.09588,-1.115142 2.0957687,1.1153162 0 0 0 -2.09588,-1.115453 z" /><g
         id="g14501"
         transform="translate(-0.07922592,0.0779772)"><rect
           style="fill:#e3dedb;fill-opacity:1;stroke:none;stroke-width:0.181289;stroke-linecap:square;stroke-linejoin:round;stroke-dasharray:none;stroke-opacity:1"
           id="rect14483"
           width="1.3072262"
           height="0.29526719"
           x="125.13775"
           y="96.594215"
           transform="rotate(-14.414582)" /><rect
           style="fill:#e3dedb;fill-opacity:1;stroke:none;stroke-width:0.181289;stroke-linecap:square;stroke-linejoin:round;stroke-dasharray:none;stroke-opacity:1"
           id="rect14485"
           width="1.3072262"
           height="0.29526719"
           x="124.99881"
           y="97.134773"
           transform="rotate(-14.414582)" /><rect
           style="fill:#e3dedb;fill-opacity:1;stroke:none;stroke-width:0.181289;stroke-linecap:square;stroke-linejoin:round;stroke-dasharray:none;stroke-opacity:1"
           id="rect14487"
           width="1.3072262"
           height="0.29526719"
           x="124.85987"
           y="97.675339"
           transform="rotate(-14.414582)" /><rect
           style="fill:#e3dedb;fill-opacity:1;stroke:none;stroke-width:0.181289;stroke-linecap:square;stroke-linejoin:round;stroke-dasharray:none;stroke-opacity:1"
           id="rect14489"
           width="1.3072262"
           height="0.29526719"
           x="124.72093"
           y="98.215897"
           transform="rotate(-14.414582)" /></g></g><path
       id="rect14519"
       style="fill:#e3dedb;stroke-width:0.529017;stroke-linecap:square;stroke-linejoin:round"
       d="m 143.91395,73.572606 2.48511,1.322566 h -2.48511 z"
       sodipodi:nodetypes="cccc" /><path
       id="path14618"
       style="fill:#e3dedb;stroke-width:0.529017;stroke-linecap:square;stroke-linejoin:round"
       d="m 146.39906,63.097403 -2.48511,1.322566 h 2.48511 z"
       sodipodi:nodetypes="cccc" /><path
       sodipodi:type="star"
       style="fill:#e3dedb;fill-opacity:1;stroke:none;stroke-width:0.804;stroke-linecap:square;stroke-linejoin:round;stroke-dasharray:none;stroke-opacity:1"
       id="path14739"
       inkscape:flatsided="false"
       sodipodi:sides="3"
       sodipodi:cx="144.26714"
       sodipodi:cy="42.257675"
       sodipodi:r1="1.0787278"
       sodipodi:r2="0.53936392"
       sodipodi:arg1="0"
       sodipodi:arg2="1.0471976"
       inkscape:rounded="0"
       inkscape:randomized="0"
       d="m 145.34586,42.257675 -0.80904,0.467103 -0.80905,0.467103 v -0.934206 -0.934206 l 0.80905,0.467103 z"
       inkscape:transform-center-x="-0.329608"
       transform="matrix(1.2221942,0,0,1.2292761,-23.874793,-7.9750232)"
       inkscape:transform-center-y="-1.5649405e-06" /><path
       sodipodi:type="star"
       style="fill:#e3dedb;fill-opacity:1;stroke:none;stroke-width:0.804;stroke-linecap:square;stroke-linejoin:round;stroke-dasharray:none;stroke-opacity:1"
       id="path14741"
       inkscape:flatsided="false"
       sodipodi:sides="3"
       sodipodi:cx="144.26714"
       sodipodi:cy="42.257675"
       sodipodi:r1="1.0787278"
       sodipodi:r2="0.53936392"
       sodipodi:arg1="0"
       sodipodi:arg2="1.0471976"
       inkscape:rounded="0"
       inkscape:randomized="0"
       d="m 145.34586,42.257675 -0.80904,0.467103 -0.80905,0.467103 v -0.934206 -0.934206 l 0.80905,0.467103 z"
       inkscape:transform-center-x="0.3296079"
       transform="matrix(-1.2221942,0,0,1.2292761,321.80857,-7.9750232)"
       inkscape:transform-center-y="-1.5649405e-06" /><rect
       style="fill:#e3dedb;fill-opacity:1;stroke:none;stroke-width:0.43746;stroke-linecap:square;stroke-linejoin:round;stroke-dasharray:none;stroke-opacity:1"
       id="rect14743"
       width="1.4991698"
       height="1.4991698"
       x="153.2807"
       y="55.678429" /><circle
       style="fill:#666666;fill-opacity:1;stroke:none;stroke-width:0.46358;stroke-linecap:square;stroke-linejoin:round;stroke-dasharray:none;stroke-opacity:1"
       id="path14745"
       cx="145.15651"
       cy="48.684067"
       r="1" /><circle
       style="fill:#666666;fill-opacity:1;stroke:none;stroke-width:0.46358;stroke-linecap:square;stroke-linejoin:round;stroke-dasharray:none;stroke-opacity:1"
       id="circle14747"
       cx="152.77727"
       cy="48.684067"
       r="1" /><circle
       style="fill:#666666;fill-opacity:1;stroke:none;stroke-width:0.46358;stroke-linecap:square;stroke-linejoin:round;stroke-dasharray:none;stroke-opacity:1"
       id="circle14749"
       cx="148.81253"
       cy="56.428013"
       r="1" /><circle
       style="fill:#666666;fill-opacity:1;stroke:none;stroke-width:0.46358;stroke-linecap:square;stroke-linejoin:round;stroke-dasharray:none;stroke-opacity:1"
       id="circle14751"
       cx="145.15651"
       cy="68.485786"
       r="1" /><circle
       style="fill:#666666;fill-opacity:1;stroke:none;stroke-width:0.46358;stroke-linecap:square;stroke-linejoin:round;stroke-dasharray:none;stroke-opacity:1"
       id="circle14753"
       cx="152.77727"
       cy="68.485786"
       r="1" /><circle
       style="fill:#666666;fill-opacity:1;stroke:none;stroke-width:0.46358;stroke-linecap:square;stroke-linejoin:round;stroke-dasharray:none;stroke-opacity:1"
       id="circle14755"
       cx="152.77727"
       cy="78.832184"
       r="1" /><circle
       style="fill:#666666;fill-opacity:1;stroke:none;stroke-width:0.46358;stroke-linecap:square;stroke-linejoin:round;stroke-dasharray:none;stroke-opacity:1"
       id="circle14757"
       cx="145.15651"
       cy="78.832184"
       r="1" /></g></svg>
