<?xml version="1.0" encoding="UTF-8" standalone="no"?>
<!-- Created with Inkscape (http://www.inkscape.org/) -->

<svg
   width="20mm"
   height="41mm"
   viewBox="0 0 20 41"
   version="1.1"
   id="svg5"
   xml:space="preserve"
   inkscape:version="1.2.1 (9c6d41e410, 2022-07-14)"
   sodipodi:docname="car-cu.svg"
   xmlns:inkscape="http://www.inkscape.org/namespaces/inkscape"
   xmlns:sodipodi="http://sodipodi.sourceforge.net/DTD/sodipodi-0.dtd"
   xmlns="http://www.w3.org/2000/svg"
   xmlns:svg="http://www.w3.org/2000/svg"><sodipodi:namedview
     id="namedview7"
     pagecolor="#ffffff"
     bordercolor="#666666"
     borderopacity="1.0"
     inkscape:showpageshadow="2"
     inkscape:pageopacity="0.0"
     inkscape:pagecheckerboard="0"
     inkscape:deskcolor="#d1d1d1"
     inkscape:document-units="mm"
     showgrid="false"
     inkscape:zoom="3.9124074"
     inkscape:cx="30.03266"
     inkscape:cy="92.270554"
     inkscape:window-width="1920"
     inkscape:window-height="1017"
     inkscape:window-x="1912"
     inkscape:window-y="-8"
     inkscape:window-maximized="1"
     inkscape:current-layer="layer1" /><defs
     id="defs2" /><g
     inkscape:label="Layer 1"
     inkscape:groupmode="layer"
     id="layer1"
     transform="translate(-48.869144,-26.441807)"><path
       id="path11856"
       style="fill:#3f5f3c;fill-opacity:1;stroke-width:0.226808"
       d="M 56.441292 28.37864 C 55.444644 28.37864 54.508338 28.635777 53.693656 29.08609 C 53.695941 29.087801 53.698643 29.088981 53.70089 29.090741 C 54.232072 29.506055 52.529493 30.822657 51.754239 30.844122 C 51.122798 31.760405 50.752233 32.870325 50.752233 34.067181 L 50.752233 35.797825 C 50.752233 36.611142 50.810047 37.423194 50.924316 38.227651 L 51.264347 40.613552 C 51.276503 40.698987 51.287573 40.784806 51.298453 40.870384 C 51.333867 40.031483 51.373277 39.161558 51.419376 38.247288 C 51.419376 38.247288 52.043906 40.991423 52.206925 44.442259 C 52.257445 45.518709 52.282354 47.024732 52.272554 48.772744 C 51.967522 48.650189 51.664 48.571985 51.363565 48.462168 L 51.359431 48.745872 C 51.666494 48.841079 51.971058 48.97372 52.272037 49.068333 C 52.248114 52.896585 52.061676 57.368218 51.636417 59.032066 C 51.636417 59.032066 51.326124 57.965099 51.171329 54.339329 C 51.131587 54.530799 51.083232 54.720509 51.025085 54.90777 C 50.844348 55.490735 50.752233 56.097743 50.752233 56.708177 L 50.752233 61.105324 C 50.752233 62.405521 51.316667 63.573746 52.213643 64.379026 C 52.415857 64.405076 52.654145 64.476145 52.895772 64.5909 C 53.297851 64.781228 53.599334 65.040997 53.701407 65.258042 C 54.155578 65.4166 54.643234 65.504022 55.151448 65.504022 L 62.58717 65.504022 C 63.09498 65.504022 63.582347 65.416877 64.036177 65.258559 C 64.13814 65.041425 64.440494 64.781354 64.842846 64.5909 C 65.08424 64.476255 65.321484 64.405686 65.523425 64.379543 C 66.420747 63.574239 66.985868 62.405924 66.985868 61.105324 L 66.985868 56.708177 C 66.985868 56.097743 66.893757 55.490735 66.713016 54.90777 C 66.654816 54.720337 66.606537 54.530461 66.566772 54.338812 C 66.411984 57.964996 66.101684 59.032066 66.101684 59.032066 C 65.676425 57.368218 65.4905 52.896585 65.466581 49.068333 C 65.767557 48.97372 66.071746 48.841079 66.37867 48.745872 L 66.374535 48.462168 C 66.073928 48.571911 65.770448 48.650242 65.465547 48.772744 C 65.455747 47.024732 65.480646 45.518709 65.531176 44.442259 C 65.694195 40.991423 66.318725 38.247288 66.318725 38.247288 C 66.364732 39.15971 66.404245 40.027864 66.439648 40.865216 C 66.450319 40.781372 66.461328 40.697258 66.473237 40.613552 L 66.813268 38.227651 C 66.928441 37.423194 66.985868 36.611142 66.985868 35.797825 L 66.985868 34.067181 C 66.985868 32.870325 66.61521 31.760405 65.983862 30.844122 C 65.208312 30.822066 63.506387 29.505959 64.036694 29.090741 C 64.039059 29.088892 64.042037 29.087885 64.044445 29.08609 C 63.229926 28.635912 62.293813 28.37864 61.297326 28.37864 L 56.441292 28.37864 z M 58.868534 33.846006 C 64.425301 33.846006 65.829866 36.889231 65.829866 36.889231 L 65.086242 42.866127 C 65.086242 42.866127 61.913598 42.187099 58.868534 42.187099 C 55.824358 42.187099 52.651859 42.866127 52.651859 42.866127 L 51.907718 36.889231 C 51.907718 36.889231 53.312645 33.846006 58.868534 33.846006 z M 58.86905 46.917043 A 2.1390367 2.1390367 0 0 1 61.007938 49.055931 A 2.1390367 2.1390367 0 0 1 58.86905 51.194818 A 2.1390367 2.1390367 0 0 1 56.730163 49.055931 A 2.1390367 2.1390367 0 0 1 58.86905 46.917043 z M 53.076122 56.4777 C 53.076122 56.4777 54.869292 57.265765 58.868534 57.265765 C 62.868664 57.265765 64.661978 56.4777 64.661978 56.4777 L 64.661978 62.481984 C 64.661978 62.481984 63.183183 64.139764 58.868534 64.139764 C 54.554769 64.139764 53.076122 62.481984 53.076122 62.481984 L 53.076122 56.4777 z " /></g></svg>
