<?xml version="1.0" encoding="UTF-8" standalone="no"?>
<!-- Created with Inkscape (http://www.inkscape.org/) -->

<svg
   width="20mm"
   height="41mm"
   viewBox="0 0 20 41"
   version="1.1"
   id="svg5"
   xml:space="preserve"
   inkscape:version="1.2.1 (9c6d41e410, 2022-07-14)"
   sodipodi:docname="car-mask.svg"
   xmlns:inkscape="http://www.inkscape.org/namespaces/inkscape"
   xmlns:sodipodi="http://sodipodi.sourceforge.net/DTD/sodipodi-0.dtd"
   xmlns="http://www.w3.org/2000/svg"
   xmlns:svg="http://www.w3.org/2000/svg"><sodipodi:namedview
     id="namedview7"
     pagecolor="#ffffff"
     bordercolor="#666666"
     borderopacity="1.0"
     inkscape:showpageshadow="2"
     inkscape:pageopacity="0.0"
     inkscape:pagecheckerboard="0"
     inkscape:deskcolor="#d1d1d1"
     inkscape:document-units="mm"
     showgrid="false"
     inkscape:zoom="1.9562037"
     inkscape:cx="59.042931"
     inkscape:cy="29.13807"
     inkscape:window-width="1920"
     inkscape:window-height="1017"
     inkscape:window-x="1912"
     inkscape:window-y="-8"
     inkscape:window-maximized="1"
     inkscape:current-layer="layer1" /><defs
     id="defs2" /><g
     inkscape:label="Layer 1"
     inkscape:groupmode="layer"
     id="layer1"
     transform="translate(-48.869144,-26.441807)"><path
       fill-rule="nonzero"
       fill="#45474a"
       fill-opacity="1"
       d="m 52.272676,48.77266 c 0.0098,-1.748016 -0.01504,-3.254159 -0.06556,-4.330613 -0.163019,-3.450848 -0.787628,-6.194689 -0.787628,-6.194689 -0.206429,4.094063 -0.301228,7.41733 -0.326919,10.105353 0.388054,0.177195 0.783193,0.260479 1.180106,0.419949"
       id="path11862"
       style="fill:#998e70;fill-opacity:1;stroke-width:0.226808" /><path
       fill-rule="nonzero"
       fill="#45474a"
       fill-opacity="1"
       d="m 51.089915,48.673432 c -0.06288,8.296208 0.546643,10.358748 0.546643,10.358748 0.425259,-1.663852 0.611314,-6.135335 0.635237,-9.963603 -0.388941,-0.122264 -0.783199,-0.309206 -1.18188,-0.395145"
       id="path11864"
       style="fill:#998e70;fill-opacity:1;stroke-width:0.226808" /><path
       fill-rule="nonzero"
       fill="#45474a"
       fill-opacity="1"
       d="m 65.465634,48.77266 c -0.0098,-1.748016 0.01504,-3.254159 0.06557,-4.330613 0.163019,-3.450848 0.787622,-6.194689 0.787622,-6.194689 0.206435,4.094063 0.301234,7.41733 0.326925,10.105353 -0.388941,0.177195 -0.783199,0.260479 -1.180112,0.419949"
       id="path11866"
       style="fill:#998e70;fill-opacity:1;stroke-width:0.226808" /><path
       fill-rule="nonzero"
       fill="#45474a"
       fill-opacity="1"
       d="m 66.648407,48.673432 c 0.06288,8.296208 -0.546649,10.358748 -0.546649,10.358748 -0.425259,-1.663852 -0.611314,-6.135335 -0.635237,-9.963603 0.388941,-0.122264 0.783199,-0.309206 1.181886,-0.395145"
       id="path11868"
       style="fill:#998e70;fill-opacity:1;stroke-width:0.226808" /><path
       fill-rule="nonzero"
       fill="#45474a"
       fill-opacity="1"
       d="m 58.868714,33.845869 c -5.555909,0 -6.961056,3.043301 -6.961056,3.043301 l 0.744219,5.976739 c 0,0 3.172649,-0.678647 6.216837,-0.678647 3.045076,0 6.217726,0.678647 6.217726,0.678647 l 0.743331,-5.976739 c 0,0 -1.404266,-3.043301 -6.961057,-3.043301 m 0,23.419688 c 4.000146,0 5.793347,-0.787628 5.793347,-0.787628 v 6.004211 c 0,0 -1.478678,1.657647 -5.793347,1.657647 -4.313781,0 -5.792459,-1.657647 -5.792459,-1.657647 v -6.004211 c 0,0 1.793201,0.787628 5.792459,0.787628"
       id="path11878"
       style="fill:#998e70;fill-opacity:1;stroke-width:0.226808" /></g></svg>
