<?xml version="1.0" encoding="UTF-8" standalone="no"?>
<!-- Created with Inkscape (http://www.inkscape.org/) -->

<svg
   width="20mm"
   height="41mm"
   viewBox="0 0 20 41"
   version="1.1"
   id="svg5"
   xml:space="preserve"
   inkscape:version="1.2.1 (9c6d41e410, 2022-07-14)"
   sodipodi:docname="car-silk.svg"
   xmlns:inkscape="http://www.inkscape.org/namespaces/inkscape"
   xmlns:sodipodi="http://sodipodi.sourceforge.net/DTD/sodipodi-0.dtd"
   xmlns="http://www.w3.org/2000/svg"
   xmlns:svg="http://www.w3.org/2000/svg"><sodipodi:namedview
     id="namedview7"
     pagecolor="#ffffff"
     bordercolor="#666666"
     borderopacity="1.0"
     inkscape:showpageshadow="2"
     inkscape:pageopacity="0.0"
     inkscape:pagecheckerboard="0"
     inkscape:deskcolor="#d1d1d1"
     inkscape:document-units="mm"
     showgrid="false"
     inkscape:zoom="2.7664898"
     inkscape:cx="16.446835"
     inkscape:cy="56.389147"
     inkscape:window-width="1920"
     inkscape:window-height="1017"
     inkscape:window-x="1912"
     inkscape:window-y="-8"
     inkscape:window-maximized="1"
     inkscape:current-layer="layer1" /><defs
     id="defs2" /><g
     inkscape:label="Layer 1"
     inkscape:groupmode="layer"
     id="layer1"
     transform="translate(-48.869144,-26.441807)"><g
       id="path12708"
       style="fill:#666666" /><path
       style="color:#000000;display:inline;fill:#666666;stroke:none;stroke-width:0.15;stroke-dasharray:none;stroke-opacity:1"
       d="m 56.296875,27.125 c -3.408084,0 -6.175781,2.765712 -6.175781,6.173828 v 1.833984 c 0,0.868068 0.06321,1.735786 0.185547,2.595704 l 0.177734,1.251953 c -0.131326,0.09491 -0.313769,0.227469 -0.507813,0.388672 -0.221542,0.184047 -0.429012,0.362445 -0.523437,0.550781 -0.09804,0.196624 -0.101554,0.39101 -0.05664,0.539062 0.02246,0.07403 0.0563,0.13822 0.105469,0.189453 0.04917,0.05123 0.130405,0.100407 0.226563,0.07617 0.05114,-0.01273 0.09044,-0.02983 0.167968,-0.06055 0.07833,-0.03103 0.179424,-0.0719 0.289063,-0.117187 0.160082,-0.06613 0.326363,-0.137674 0.486328,-0.205078 0.124514,0.901622 0.186635,1.810147 0.173828,2.720703 l -0.144531,10.5 c -0.0087,0.603718 -0.10399,1.201623 -0.283203,1.777344 -0.196627,0.631571 -0.296875,1.288929 -0.296875,1.951172 v 4.660156 c 0,2.653264 2.155336,4.80664 4.808593,4.80664 h 7.878907 c 2.653264,0 4.80664,-2.153376 4.80664,-4.80664 v -4.660156 c 0,-0.662374 -0.09926,-1.319829 -0.294922,-1.951172 C 67.141079,54.764035 67.0449,54.165978 67.037109,53.5625 l -0.144531,-10.5 c -0.0128,-0.909905 0.0495,-1.817761 0.173828,-2.71875 0.159749,0.06724 0.326608,0.137247 0.486328,0.203125 0.109706,0.04525 0.2107,0.08619 0.289063,0.117187 0.07836,0.03099 0.118136,0.04782 0.169922,0.06055 0.09518,0.02293 0.175818,-0.02533 0.224609,-0.07617 0.04917,-0.05123 0.08301,-0.115426 0.105469,-0.189453 0.04491,-0.148053 0.0414,-0.342437 -0.05664,-0.539062 -0.09445,-0.188389 -0.301798,-0.366646 -0.523437,-0.550781 -0.1946,-0.161671 -0.378502,-0.293823 -0.509766,-0.388672 l 0.179688,-1.251953 c 0.123232,-0.860035 0.183593,-1.727659 0.183593,-2.595704 v -1.833984 c 0,-3.408116 -2.765745,-6.173828 -6.173828,-6.173828 z m 0,0.291016 h 5.144531 c 3.250839,0 5.882813,2.631999 5.882813,5.882812 v 1.833984 c 0,0.854271 -0.06037,1.708352 -0.181641,2.554688 l -0.201172,1.423828 0.07031,0.05078 c 0.121465,0.08678 0.352138,0.255252 0.564453,0.431641 0.212315,0.176389 0.41078,0.380364 0.449219,0.457031 h -0.002 c 0.06497,0.130299 0.06215,0.248121 0.03906,0.324219 -0.0082,0.02688 -0.01702,0.03817 -0.02539,0.05078 -0.02193,-0.0079 -0.03677,-0.01299 -0.08789,-0.0332 -0.07599,-0.03006 -0.176175,-0.07028 -0.285157,-0.115234 -0.217962,-0.0899 -0.475202,-0.198652 -0.666015,-0.279297 l -0.173828,-0.07227 -0.04102,0.291016 c -0.134882,0.943983 -0.195056,1.895863 -0.181641,2.849609 l 0.144532,10.5 c 0.0082,0.631571 0.107369,1.256841 0.294922,1.859375 0.187088,0.603692 0.283203,1.232318 0.283203,1.865235 v 4.660156 c 0,2.495981 -2.019644,4.515625 -4.515625,4.515625 h -7.878907 c -2.495974,0 -4.517578,-2.019644 -4.517578,-4.515625 v -4.660156 c 0,-0.633049 0.09533,-1.261772 0.283203,-1.865235 0.187587,-0.602622 0.287777,-1.228044 0.296875,-1.859375 l 0.144532,-10.5 c 0.01341,-0.953746 -0.04676,-1.905626 -0.181641,-2.849609 v -0.002 l -0.04297,-0.289063 -0.173828,0.07227 c -0.190695,0.08065 -0.446227,0.189311 -0.664062,0.279297 -0.108918,0.04499 -0.209206,0.08515 -0.285157,0.115234 -0.05109,0.02024 -0.06599,0.02528 -0.08789,0.0332 -0.0084,-0.01262 -0.01724,-0.0239 -0.02539,-0.05078 -0.02309,-0.0761 -0.02591,-0.19392 0.03906,-0.324219 h -0.002 c 0.03843,-0.07665 0.237003,-0.280732 0.449218,-0.457031 0.212216,-0.176299 0.440946,-0.344798 0.5625,-0.431641 l 0.07227,-0.05078 L 50.59375,37.6875 c -0.120422,-0.846453 -0.181641,-1.700441 -0.181641,-2.554688 v -1.833984 c 0,-3.250813 2.633927,-5.882812 5.884766,-5.882812 z"
       id="path6160" /><path
       fill-rule="nonzero"
       fill="#e9e8d8"
       fill-opacity="1"
       d="m 51.446074,30.721052 c -0.489057,-0.717633 1.630181,-2.119231 2.254785,-1.630181 0.625496,0.489056 -1.847238,2.228213 -2.254785,1.630181"
       id="path11858"
       style="fill:#666666;fill-opacity:1;stroke:none;stroke-width:0.226808" /><path
       fill-rule="nonzero"
       fill="#e9e8d8"
       fill-opacity="1"
       d="m 66.292243,30.721052 c 0.489056,-0.717633 -1.630182,-2.119231 -2.255673,-1.630181 -0.624609,0.489056 1.848132,2.228213 2.255673,1.630181"
       id="path11872"
       style="fill:#666666;fill-opacity:1;stroke:none;stroke-width:0.226808" /><path
       fill-rule="nonzero"
       fill="#ffcc00"
       fill-opacity="1"
       d="m 53.721239,65.493546 c -0.109862,0.230351 -0.656505,0.199343 -1.221754,-0.06822 -0.565242,-0.268444 -0.934696,-0.672449 -0.825721,-0.902801 0.109862,-0.231239 0.656505,-0.200231 1.221754,0.06822 0.565242,0.267564 0.934696,0.67245 0.825721,0.902802"
       id="path11870"
       style="fill:#666666;fill-opacity:1;stroke:none;stroke-width:0.226808" /><path
       fill-rule="nonzero"
       fill="#ffcc00"
       fill-opacity="1"
       d="m 64.017077,65.493546 c 0.108975,0.230351 0.656505,0.199343 1.221747,-0.06822 0.565249,-0.268444 0.934703,-0.672449 0.824841,-0.902801 -0.108975,-0.231239 -0.655618,-0.200231 -1.220866,0.06822 -0.565249,0.267564 -0.935584,0.67245 -0.825722,0.902802"
       id="path11876"
       style="fill:#666666;fill-opacity:1;stroke:none;stroke-width:0.226808" /></g></svg>
