<?xml version="1.0" encoding="UTF-8" standalone="no"?>
<!-- Created with Inkscape (http://www.inkscape.org/) -->

<svg
   width="12.606mm"
   height="6mm"
   viewBox="0 0 12.606 6"
   version="1.1"
   id="svg5"
   xml:space="preserve"
   inkscape:version="1.2.1 (9c6d41e410, 2022-07-14)"
   sodipodi:docname="htl-weiz-logo--cu.svg"
   xmlns:inkscape="http://www.inkscape.org/namespaces/inkscape"
   xmlns:sodipodi="http://sodipodi.sourceforge.net/DTD/sodipodi-0.dtd"
   xmlns="http://www.w3.org/2000/svg"
   xmlns:svg="http://www.w3.org/2000/svg"><sodipodi:namedview
     id="namedview7"
     pagecolor="#ffffff"
     bordercolor="#000000"
     borderopacity="0.25"
     inkscape:showpageshadow="2"
     inkscape:pageopacity="0.0"
     inkscape:pagecheckerboard="0"
     inkscape:deskcolor="#d1d1d1"
     inkscape:document-units="mm"
     showgrid="false"
     inkscape:zoom="2.1745121"
     inkscape:cx="67.371435"
     inkscape:cy="99.332627"
     inkscape:window-width="1920"
     inkscape:window-height="1017"
     inkscape:window-x="-8"
     inkscape:window-y="-8"
     inkscape:window-maximized="1"
     inkscape:current-layer="layer1" /><defs
     id="defs2"><clipPath
       id="clip-0"><path
         clip-rule="nonzero"
         d="m 344,58 h 88.5 V 432.76562 H 344 Z m 0,0"
         id="path1049" /></clipPath><clipPath
       id="clip-1"><path
         clip-rule="nonzero"
         d="M 0,0.265625 H 432.5 V 217 H 0 Z m 0,0"
         id="path1052" /></clipPath><clipPath
       id="clip-2"><path
         clip-rule="nonzero"
         d="M 0,0.265625 H 432.5 V 432.76562 H 0 Z m 0,0"
         id="path1055" /></clipPath><clipPath
       id="clip-3"><rect
         x="0"
         y="0"
         width="433"
         height="433"
         id="rect1058" /></clipPath><g
       id="source-29579"
       clip-path="url(#clip-3)"><g
         clip-path="url(#clip-0)"
         id="g1063"><path
           fill-rule="nonzero"
           fill="#1ba373"
           fill-opacity="1"
           d="M 432.5,58.945313 V 432.76562 l -88,-87.5 v -198.75 l 87.78906,-87.781245 z m 0,0"
           id="path1061" /></g><g
         clip-path="url(#clip-1)"
         id="g1067"><path
           fill-rule="nonzero"
           fill="#1ba373"
           fill-opacity="1"
           d="m 221.62109,88.136719 -0.22265,-0.210938 H 87.332031 L 0,0.265625 h 432.5 l -87.87891,87.769531 -128.69922,128.558594 -61.08984,-61 z m 0,0"
           id="path1065" /></g><g
         clip-path="url(#clip-2)"
         id="g1071"><path
           fill-rule="nonzero"
           fill="#065272"
           fill-opacity="1"
           d="M 207.83203,345.26562 H 344.5 l 88,87.5 H 208 C 93.121094,432.76562 0.148438,339.88672 0,225.03516 V 0.265625 L 87.332031,87.925781 V 224.76562 c 0,66.59766 53.898439,120.5 120.499999,120.5"
           id="path1069" /></g></g><clipPath
       clipPathUnits="userSpaceOnUse"
       id="clipPath1469"><g
         id="g1473"
         transform="matrix(86.592983,0,0,86.592983,8134.8849,1643.6348)"><rect
           x="-93.943932"
           y="-18.981155"
           width="5.0004053"
           height="5.0004053"
           id="rect1471"
           style="stroke-width:0.0115483" /></g></clipPath><clipPath
       clipPathUnits="userSpaceOnUse"
       id="clipPath1475"><g
         id="g1479"
         transform="matrix(86.592983,0,0,86.592983,8134.8849,1643.6348)"><rect
           x="-93.943932"
           y="-18.981155"
           width="5.0004053"
           height="5.0004053"
           id="rect1477"
           style="stroke-width:0.0115483" /></g></clipPath><clipPath
       clipPathUnits="userSpaceOnUse"
       id="clipPath1496"><g
         id="g1502"><g
           id="g1500"><rect
             x="-93.943932"
             y="-18.981155"
             width="5.0004053"
             height="5.0004053"
             id="rect1498"
             style="stroke-width:0.0115483" /></g></g></clipPath></defs><g
     inkscape:label="Ebene 1"
     inkscape:groupmode="layer"
     id="layer1"
     transform="translate(94.443924,19.483456)"><path
       id="rect2539"
       style="opacity:1;fill:#ffe680;stroke-width:0.744858"
       d="M -94.443924 -19.483456 L -94.443924 -13.483305 L -81.837975 -13.483305 L -81.837975 -19.483456 L -94.443924 -19.483456 z M -88.392097 -18.983228 L -87.626769 -18.983228 L -87.626769 -17.904224 L -87.199922 -17.904224 L -87.199922 -18.983228 L -86.437694 -18.983228 L -86.437694 -16.025786 L -87.199922 -16.025786 L -87.199922 -17.07275 L -87.626769 -17.07275 L -87.626769 -16.025786 L -88.392097 -16.025786 L -88.392097 -18.983228 z M -86.189131 -18.983228 L -83.50454 -18.983228 L -84.312759 -18.187411 L -84.810403 -18.187411 L -84.810403 -16.025786 L -85.572631 -16.025786 L -85.572631 -18.187411 L -86.189131 -18.187411 L -86.189131 -18.983228 z M -93.943696 -18.97806 L -92.935489 -17.965719 L -92.935489 -16.385454 C -92.935489 -15.616366 -92.312975 -14.993808 -91.543843 -14.993808 L -89.965644 -14.993808 L -88.949169 -13.983533 L -91.541776 -13.983533 C -92.868428 -13.983533 -93.941982 -15.056017 -93.943696 -16.382353 L -93.943696 -18.97806 z M -83.215669 -18.932068 L -83.215669 -16.749256 L -82.337686 -16.749256 L -82.337686 -16.025786 L -83.977896 -16.025786 L -83.977896 -18.169841 L -83.215669 -18.932068 z " /></g></svg>
