<?xml version="1.0" encoding="UTF-8" standalone="no"?>
<!-- Created with Inkscape (http://www.inkscape.org/) -->

<svg
   width="12.605949mm"
   height="6.0001512mm"
   viewBox="0 0 12.605949 6.0001512"
   version="1.1"
   id="svg5"
   xml:space="preserve"
   inkscape:version="1.2.1 (9c6d41e410, 2022-07-14)"
   sodipodi:docname="htl-weiz-logo--mask.svg"
   xmlns:inkscape="http://www.inkscape.org/namespaces/inkscape"
   xmlns:sodipodi="http://sodipodi.sourceforge.net/DTD/sodipodi-0.dtd"
   xmlns="http://www.w3.org/2000/svg"
   xmlns:svg="http://www.w3.org/2000/svg"><sodipodi:namedview
     id="namedview7"
     pagecolor="#ffffff"
     bordercolor="#000000"
     borderopacity="0.25"
     inkscape:showpageshadow="2"
     inkscape:pageopacity="0.0"
     inkscape:pagecheckerboard="0"
     inkscape:deskcolor="#d1d1d1"
     inkscape:document-units="mm"
     showgrid="false"
     inkscape:zoom="1.5376123"
     inkscape:cx="-87.473288"
     inkscape:cy="74.140929"
     inkscape:window-width="1920"
     inkscape:window-height="1017"
     inkscape:window-x="-8"
     inkscape:window-y="-8"
     inkscape:window-maximized="1"
     inkscape:current-layer="layer1" /><defs
     id="defs2"><clipPath
       id="clip-0"><path
         clip-rule="nonzero"
         d="m 344,58 h 88.5 V 432.76562 H 344 Z m 0,0"
         id="path1049" /></clipPath><clipPath
       id="clip-1"><path
         clip-rule="nonzero"
         d="M 0,0.265625 H 432.5 V 217 H 0 Z m 0,0"
         id="path1052" /></clipPath><clipPath
       id="clip-2"><path
         clip-rule="nonzero"
         d="M 0,0.265625 H 432.5 V 432.76562 H 0 Z m 0,0"
         id="path1055" /></clipPath><clipPath
       id="clip-3"><rect
         x="0"
         y="0"
         width="433"
         height="433"
         id="rect1058" /></clipPath><g
       id="source-29579"
       clip-path="url(#clip-3)"><g
         clip-path="url(#clip-0)"
         id="g1063"><path
           fill-rule="nonzero"
           fill="#1ba373"
           fill-opacity="1"
           d="M 432.5,58.945313 V 432.76562 l -88,-87.5 v -198.75 l 87.78906,-87.781245 z m 0,0"
           id="path1061" /></g><g
         clip-path="url(#clip-1)"
         id="g1067"><path
           fill-rule="nonzero"
           fill="#1ba373"
           fill-opacity="1"
           d="m 221.62109,88.136719 -0.22265,-0.210938 H 87.332031 L 0,0.265625 h 432.5 l -87.87891,87.769531 -128.69922,128.558594 -61.08984,-61 z m 0,0"
           id="path1065" /></g><g
         clip-path="url(#clip-2)"
         id="g1071"><path
           fill-rule="nonzero"
           fill="#065272"
           fill-opacity="1"
           d="M 207.83203,345.26562 H 344.5 l 88,87.5 H 208 C 93.121094,432.76562 0.148438,339.88672 0,225.03516 V 0.265625 L 87.332031,87.925781 V 224.76562 c 0,66.59766 53.898439,120.5 120.499999,120.5"
           id="path1069" /></g></g><clipPath
       clipPathUnits="userSpaceOnUse"
       id="clipPath2154"><g
         id="g2160"><g
           id="g2158"><rect
             x="-93.943932"
             y="-18.981155"
             width="5.0004053"
             height="5.0004053"
             id="rect2156"
             style="stroke-width:0.0115483" /></g></g></clipPath><clipPath
       clipPathUnits="userSpaceOnUse"
       id="clipPath2169"><g
         id="g2175"><g
           id="g2173"><rect
             x="-93.943932"
             y="-18.981155"
             width="5.0004053"
             height="5.0004053"
             id="rect2171"
             style="stroke-width:0.0115483" /></g></g></clipPath><clipPath
       clipPathUnits="userSpaceOnUse"
       id="clipPath2184"><g
         id="g2190"><g
           id="g2188"><rect
             x="-93.943932"
             y="-18.981155"
             width="5.0004053"
             height="5.0004053"
             id="rect2186"
             style="stroke-width:0.0115483" /></g></g></clipPath></defs><g
     inkscape:label="Ebene 1"
     inkscape:groupmode="layer"
     id="layer1"
     transform="translate(94.444094,19.483401)"><path
       id="rect2539"
       style="opacity:1;fill:#ffe680;stroke-width:0.744858"
       d="m -94.444094,-19.483401 v 6.000151 h 12.605949 v -6.000151 z m 6.051827,0.499711 h 0.765328 v 1.079521 h 0.427364 v -1.079521 h 0.762227 v 2.957959 h -0.762227 v -1.046964 h -0.427364 v 1.046964 h -0.765328 z m 2.202966,0 h 2.685107 l -0.808219,0.796334 h -0.497644 v 2.161625 h -0.762227 v -2.161625 h -0.617017 z m -7.754565,0.0057 h 4.994527 l -1.014925,1.013374 -1.486215,1.484664 -0.705383,-0.704349 0.771529,-0.778764 -0.0031,-0.0026 h -1.547709 v 1.580265 c 0,0.769087 0.621998,1.391647 1.391129,1.391647 h 1.578715 v -2.295468 l 1.013375,-1.013891 0.0026,0.0026 v 4.317049 h -2.592607 c -1.32665,0 -2.400206,-1.072486 -2.40192,-2.39882 z m 10.728544,0.04599 v 2.182812 h 0.877466 v 0.72347 h -1.639694 v -2.144055 z m -5.110283,3.129524 h 0.561723 l 0.06098,0.63252 0.05891,0.611849 c 0.02138,-0.316495 0.07442,-0.731418 0.159681,-1.244369 h 0.60048 c 0.008,0.053 0.02894,0.252733 0.06305,0.598413 l 0.06408,0.689881 c 0.03288,-0.43888 0.08657,-0.868631 0.16123,-1.288294 h 0.561723 l -0.257865,1.813326 h -0.721403 c -0.06613,-0.278555 -0.124614,-0.595556 -0.175183,-0.950846 -0.02305,0.152338 -0.07679,0.469339 -0.161231,0.950846 h -0.717269 z m 2.560051,0 h 1.028361 v 0.362769 h -0.450102 v 0.344165 h 0.450102 v 0.344682 h -0.450102 v 0.398942 h 0.450102 v 0.362768 h -1.028361 z m 1.372526,0 h 0.578259 v 1.813326 h -0.578259 z m 0.889868,0 h 1.078487 v 0.362769 l -0.492476,1.087789 h 0.492476 v 0.362768 h -1.125513 v -0.263033 l 0.504362,-1.187524 h -0.457336 z" /></g></svg>
