<?xml version="1.0" encoding="UTF-8" standalone="no"?>
<!-- Created with Inkscape (http://www.inkscape.org/) -->

<svg
   width="39.158283mm"
   height="39.158283mm"
   viewBox="0 0 39.158283 39.158283"
   version="1.1"
   id="svg5"
   sodipodi:docname="qrcode.svg"
   inkscape:version="1.2.1 (9c6d41e410, 2022-07-14)"
   xmlns:inkscape="http://www.inkscape.org/namespaces/inkscape"
   xmlns:sodipodi="http://sodipodi.sourceforge.net/DTD/sodipodi-0.dtd"
   xmlns="http://www.w3.org/2000/svg"
   xmlns:svg="http://www.w3.org/2000/svg">
  <sodipodi:namedview
     id="namedview7"
     pagecolor="#ffffff"
     bordercolor="#000000"
     borderopacity="0.25"
     inkscape:showpageshadow="2"
     inkscape:pageopacity="0.0"
     inkscape:pagecheckerboard="0"
     inkscape:deskcolor="#d1d1d1"
     inkscape:document-units="mm"
     showgrid="false"
     inkscape:zoom="0.76880612"
     inkscape:cx="-0.65035903"
     inkscape:cy="0"
     inkscape:window-width="1920"
     inkscape:window-height="1017"
     inkscape:window-x="-8"
     inkscape:window-y="-8"
     inkscape:window-maximized="1"
     inkscape:current-layer="layer1" />
  <defs
     id="defs2" />
  <g
     inkscape:label="Ebene 1"
     inkscape:groupmode="layer"
     id="layer1"
     transform="translate(-99.2868,-148.328)">
    <g
       inkscape:label="QR Code: https://github.com/htlweiz/car-shield"
       transform="matrix(0.264583,0,0,0.264583,99.2868,148.328)"
       id="g1207">
      <rect
         x="0"
         y="0"
         width="148"
         height="148"
         style="fill:#ffffff;stroke:none"
         id="rect1201" />
      <g
         style="fill:#000000;stroke:none"
         id="g1205">
        <path
           d="m 127.6,132 h -3.2 c -0.22091,0 -0.4,-0.17909 -0.4,-0.4 V 124 h 4 v 7.6 c 0,0.22091 -0.17909,0.4 -0.4,0.4 z m -20,0 H 88.4 c -0.220914,0 -0.4,-0.17909 -0.4,-0.4 v -3.2 c 0,-0.22091 0.179086,-0.4 0.4,-0.4 h 7.2 c 0.220914,0 0.4,-0.17909 0.4,-0.4 V 120 h 4 v 3.6 c 0,0.22091 0.17909,0.4 0.4,0.4 h 3.2 c 0.22091,0 0.4,0.17909 0.4,0.4 v 3.2 c 0,0.22091 0.17909,0.4 0.4,0.4 h 3.6 v 3.6 c 0,0.22091 -0.17909,0.4 -0.4,0.4 z m -24,0 h -3.2 c -0.220914,0 -0.4,-0.17909 -0.4,-0.4 v -3.2 c 0,-0.22091 0.179086,-0.4 0.4,-0.4 h 3.2 c 0.220914,0 0.4,0.17909 0.4,0.4 v 3.2 c 0,0.22091 -0.179086,0.4 -0.4,0.4 z m -8,0 h -3.2 c -0.220914,0 -0.4,-0.17909 -0.4,-0.4 v -7.2 c 0,-0.22091 -0.179086,-0.4 -0.4,-0.4 h -3.2 c -0.220914,0 -0.4,-0.17909 -0.4,-0.4 v -3.2 c 0,-0.22091 0.179086,-0.4 0.4,-0.4 h 3.2 c 0.220914,0 0.4,-0.17909 0.4,-0.4 v -7.2 c 0,-0.22091 0.179086,-0.4 0.4,-0.4 h 3.2 c 0.220914,0 0.4,0.17909 0.4,0.4 v 3.2 c 0,0.22091 0.179086,0.4 0.4,0.4 h 3.2 c 0.220914,0 0.4,0.17909 0.4,0.4 v 3.6 h -3.6 c -0.220914,0 -0.4,0.17909 -0.4,0.4 v 11.2 c 0,0.22091 -0.179086,0.4 -0.4,0.4 z m -20,0 h -7.2 c -0.220914,0 -0.4,-0.17909 -0.4,-0.4 v -3.2 c 0,-0.22091 0.179086,-0.4 0.4,-0.4 h 7.2 c 0.220914,0 0.4,0.17909 0.4,0.4 v 3.2 c 0,0.22091 -0.179086,0.4 -0.4,0.4 z m -12,0 H 16.4 c -0.220914,0 -0.4,-0.17909 -0.4,-0.4 v -27.2 c 0,-0.22091 0.179086,-0.4 0.4,-0.4 h 27.2 c 0.220914,0 0.4,0.17909 0.4,0.4 v 27.2 c 0,0.22091 -0.179086,0.4 -0.4,0.4 z m 76,-4 h -3.2 c -0.22091,0 -0.4,-0.17909 -0.4,-0.4 v -3.2 c 0,-0.22091 0.17909,-0.4 0.4,-0.4 h 3.6 v 3.6 c 0,0.22091 -0.17909,0.4 -0.4,0.4 z m -8,0 H 108 v -11.6 c 0,-0.22091 -0.17909,-0.4 -0.4,-0.4 h -3.2 c -0.22091,0 -0.4,0.17909 -0.4,0.4 v 3.2 c 0,0.22091 -0.17909,0.4 -0.4,0.4 H 100 v -3.6 c 0,-0.22091 -0.179086,-0.4 -0.4,-0.4 H 96 v -7.6 C 96,108.17909 95.820914,108 95.6,108 H 92 v -4 h 3.6 c 0.220914,0 0.4,-0.17909 0.4,-0.4 V 96.4 C 96,96.179086 96.179086,96 96.4,96 h 7.2 c 0.22091,0 0.4,-0.179086 0.4,-0.4 v -7.2 c 0,-0.220914 0.17909,-0.4 0.4,-0.4 h 3.2 c 0.22091,0 0.4,-0.179086 0.4,-0.4 v -3.2 c 0,-0.220914 0.17909,-0.4 0.4,-0.4 h 3.6 v 3.6 c 0,0.220914 0.17909,0.4 0.4,0.4 h 3.6 v 7.6 c 0,0.220914 0.17909,0.4 0.4,0.4 h 3.2 c 0.22091,0 0.4,-0.179086 0.4,-0.4 V 88.4 C 120,88.179086 119.82091,88 119.6,88 H 116 V 84.4 C 116,84.179086 115.82091,84 115.6,84 H 112 v -3.6 c 0,-0.220914 -0.17909,-0.4 -0.4,-0.4 h -11.2 c -0.22091,0 -0.4,0.179086 -0.4,0.4 v 3.2 c 0,0.220914 -0.179086,0.4 -0.4,0.4 H 92.4 C 92.179086,84 92,83.820914 92,83.6 V 80.4 C 92,80.179086 91.820914,80 91.6,80 H 88.4 C 88.179086,80 88,79.820914 88,79.6 V 76 h 3.6 C 91.820914,76 92,75.820914 92,75.6 V 72.4 C 92,72.179086 91.820914,72 91.6,72 H 88 v -4 h 3.6 C 91.820914,68 92,67.820914 92,67.6 V 64.4 C 92,64.179086 91.820914,64 91.6,64 H 88 v -4 h 8 v 11.6 c 0,0.220914 0.179086,0.4 0.4,0.4 h 3.2 c 0.220914,0 0.4,0.179086 0.4,0.4 v 3.2 c 0,0.220914 0.17909,0.4 0.4,0.4 h 3.2 c 0.22091,0 0.4,-0.179086 0.4,-0.4 v -7.2 c 0,-0.220914 0.17909,-0.4 0.4,-0.4 h 3.2 c 0.22091,0 0.4,0.179086 0.4,0.4 v 7.2 c 0,0.220914 0.17909,0.4 0.4,0.4 h 7.2 c 0.22091,0 0.4,0.179086 0.4,0.4 v 3.2 c 0,0.220914 0.17909,0.4 0.4,0.4 h 3.2 c 0.22091,0 0.4,0.179086 0.4,0.4 v 3.2 c 0,0.220914 0.17909,0.4 0.4,0.4 h 3.2 c 0.22091,0 0.4,-0.179086 0.4,-0.4 v -7.2 c 0,-0.220914 -0.17909,-0.4 -0.4,-0.4 h -3.2 c -0.22091,0 -0.4,-0.179086 -0.4,-0.4 v -7.2 c 0,-0.220914 -0.17909,-0.4 -0.4,-0.4 h -3.2 C 116.17909,68 116,67.820914 116,67.6 V 64 h 7.6 c 0.22091,0 0.4,0.179086 0.4,0.4 v 3.2 c 0,0.220914 0.17909,0.4 0.4,0.4 h 7.2 c 0.22091,0 0.4,0.179086 0.4,0.4 v 7.2 c 0,0.220914 -0.17909,0.4 -0.4,0.4 h -3.2 c -0.22091,0 -0.4,0.179086 -0.4,0.4 v 11.2 c 0,0.220914 -0.17909,0.4 -0.4,0.4 h -3.2 c -0.22091,0 -0.4,0.179086 -0.4,0.4 v 11.2 c 0,0.220914 0.17909,0.4 0.4,0.4 h 7.2 c 0.22091,0 0.4,0.17909 0.4,0.4 v 3.2 c 0,0.22091 -0.17909,0.4 -0.4,0.4 h -3.2 c -0.22091,0 -0.4,0.17909 -0.4,0.4 v 3.2 c 0,0.22091 0.17909,0.4 0.4,0.4 h 3.2 c 0.22091,0 0.4,0.17909 0.4,0.4 v 3.2 c 0,0.22091 -0.17909,0.4 -0.4,0.4 H 124 v -7.6 c 0,-0.22091 -0.17909,-0.4 -0.4,-0.4 h -3.2 c -0.22091,0 -0.4,0.17909 -0.4,0.4 v 7.6 h -3.6 c -0.22091,0 -0.4,0.17909 -0.4,0.4 v 3.2 c 0,0.22091 0.17909,0.4 0.4,0.4 h 3.6 v 4 h -7.6 c -0.22091,0 -0.4,0.17909 -0.4,0.4 v 7.2 c 0,0.22091 -0.17909,0.4 -0.4,0.4 z m -48,0 H 60.4 C 60.179086,128 60,127.82091 60,127.6 V 116.4 C 60,116.17909 59.820914,116 59.6,116 H 56 v -3.6 c 0,-0.22091 -0.179086,-0.4 -0.4,-0.4 h -7.2 c -0.220914,0 -0.4,-0.17909 -0.4,-0.4 v -11.2 c 0,-0.22091 0.179086,-0.4 0.4,-0.4 H 52 v 3.6 c 0,0.22091 0.179086,0.4 0.4,0.4 h 3.2 c 0.220914,0 0.4,0.17909 0.4,0.4 v 3.2 c 0,0.22091 0.179086,0.4 0.4,0.4 h 3.2 c 0.220914,0 0.4,0.17909 0.4,0.4 v 3.2 c 0,0.22091 0.179086,0.4 0.4,0.4 h 3.2 c 0.220914,0 0.4,0.17909 0.4,0.4 v 15.2 c 0,0.22091 -0.179086,0.4 -0.4,0.4 z M 40,127.6 V 108.4 C 40,108.17909 39.820914,108 39.6,108 H 20.4 c -0.220914,0 -0.4,0.17909 -0.4,0.4 v 19.2 c 0,0.22091 0.179086,0.4 0.4,0.4 h 19.2 c 0.220914,0 0.4,-0.17909 0.4,-0.4 z M 131.6,124 H 128 v -7.6 c 0,-0.22091 0.17909,-0.4 0.4,-0.4 h 3.2 c 0.22091,0 0.4,0.17909 0.4,0.4 v 7.2 c 0,0.22091 -0.17909,0.4 -0.4,0.4 z m -8,0 H 120 v -4 h 3.6 c 0.22091,0 0.4,0.17909 0.4,0.4 v 3.6 z m -40,0 H 80.4 C 80.179086,124 80,123.82091 80,123.6 V 120 h 4 v 3.6 c 0,0.22091 -0.179086,0.4 -0.4,0.4 z m -32,0 h -3.2 c -0.220914,0 -0.4,-0.17909 -0.4,-0.4 v -7.2 c 0,-0.22091 0.179086,-0.4 0.4,-0.4 H 56 v 3.6 c 0,0.22091 -0.179086,0.4 -0.4,0.4 h -3.2 c -0.220914,0 -0.4,0.17909 -0.4,0.4 v 3.2 c 0,0.22091 -0.179086,0.4 -0.4,0.4 z m -16,0 H 24.4 c -0.220914,0 -0.4,-0.17909 -0.4,-0.4 v -11.2 c 0,-0.22091 0.179086,-0.4 0.4,-0.4 h 11.2 c 0.220914,0 0.4,0.17909 0.4,0.4 v 11.2 c 0,0.22091 -0.179086,0.4 -0.4,0.4 z m 60,-4 h -3.2 c -0.220914,0 -0.4,-0.17909 -0.4,-0.4 v -3.2 c 0,-0.22091 0.179086,-0.4 0.4,-0.4 H 96 v 4 z m -8,0 H 84 v -7.6 c 0,-0.22091 0.179086,-0.4 0.4,-0.4 H 88 v 7.6 c 0,0.22091 -0.179086,0.4 -0.4,0.4 z m 36,-4 H 120 v -4 h 4 v 3.6 c 0,0.22091 -0.17909,0.4 -0.4,0.4 z M 112,111.6 v -11.2 c 0,-0.22091 -0.17909,-0.4 -0.4,-0.4 h -11.2 c -0.22091,0 -0.4,0.17909 -0.4,0.4 v 11.2 c 0,0.22091 0.17909,0.4 0.4,0.4 h 11.2 c 0.22091,0 0.4,-0.17909 0.4,-0.4 z M 91.6,112 H 88 v -3.6 c 0,-0.22091 0.179086,-0.4 0.4,-0.4 H 92 v 3.6 c 0,0.22091 -0.179086,0.4 -0.4,0.4 z m 16,-4 h -3.2 c -0.22091,0 -0.4,-0.17909 -0.4,-0.4 v -3.2 c 0,-0.22091 0.17909,-0.4 0.4,-0.4 h 3.2 c 0.22091,0 0.4,0.17909 0.4,0.4 v 3.2 c 0,0.22091 -0.17909,0.4 -0.4,0.4 z m -24,0 h -3.2 c -0.220914,0 -0.4,-0.17909 -0.4,-0.4 v -7.2 c 0,-0.22091 0.179086,-0.4 0.4,-0.4 H 84 v 7.6 c 0,0.22091 -0.179086,0.4 -0.4,0.4 z m -12,0 h -3.2 c -0.220914,0 -0.4,-0.17909 -0.4,-0.4 v -3.2 C 68,104.17909 67.820914,104 67.6,104 H 64.4 C 64.179086,104 64,103.82091 64,103.6 V 96.4 C 64,96.179086 63.820914,96 63.6,96 H 60.4 C 60.179086,96 60,95.820914 60,95.6 V 92 h 7.6 c 0.220914,0 0.4,0.179086 0.4,0.4 v 3.2 c 0,0.220914 0.179086,0.4 0.4,0.4 h 3.2 c 0.220914,0 0.4,0.179086 0.4,0.4 v 3.2 c 0,0.220914 0.179086,0.4 0.4,0.4 h 3.2 c 0.220914,0 0.4,0.17909 0.4,0.4 v 3.2 c 0,0.22091 -0.179086,0.4 -0.4,0.4 h -3.2 c -0.220914,0 -0.4,0.17909 -0.4,0.4 v 3.2 c 0,0.22091 -0.179086,0.4 -0.4,0.4 z m 20,-4 h -3.2 c -0.220914,0 -0.4,-0.17909 -0.4,-0.4 v -3.2 C 88,100.17909 87.820914,100 87.6,100 H 84 V 92.4 C 84,92.179086 83.820914,92 83.6,92 H 80.4 C 80.179086,92 80,92.179086 80,92.4 v 3.2 C 80,95.820914 79.820914,96 79.6,96 H 76.4 C 76.179086,96 76,95.820914 76,95.6 V 76 h 4 v 11.6 c 0,0.220914 0.179086,0.4 0.4,0.4 h 3.2 C 83.820914,88 84,87.820914 84,87.6 V 84.4 C 84,84.179086 84.179086,84 84.4,84 h 3.2 c 0.220914,0 0.4,0.179086 0.4,0.4 v 7.2 c 0,0.220914 0.179086,0.4 0.4,0.4 h 3.2 c 0.220914,0 0.4,0.179086 0.4,0.4 V 104 Z m -36,-4 H 52 V 96.4 C 52,96.179086 51.820914,96 51.6,96 H 48.4 C 48.179086,96 48,95.820914 48,95.6 V 92.4 C 48,92.179086 48.179086,92 48.4,92 H 56 v 7.6 c 0,0.220914 -0.179086,0.4 -0.4,0.4 z m -12,0 H 40.4 C 40.179086,100 40,99.820914 40,99.6 V 96 h 3.6 c 0.220914,0 0.4,0.179086 0.4,0.4 v 3.2 c 0,0.220914 -0.179086,0.4 -0.4,0.4 z m -12,0 H 20.4 C 20.179086,100 20,99.820914 20,99.6 V 96.4 C 20,96.179086 20.179086,96 20.4,96 h 7.2 C 27.820914,96 28,95.820914 28,95.6 V 92.4 C 28,92.179086 27.820914,92 27.6,92 H 24.4 C 24.179086,92 24,91.820914 24,91.6 V 88 h 3.6 C 27.820914,88 28,87.820914 28,87.6 V 80.4 C 28,80.179086 28.179086,80 28.4,80 h 3.2 C 31.820914,80 32,79.820914 32,79.6 V 76 h 4 v 8 H 32.4 C 32.179086,84 32,84.179086 32,84.4 v 15.2 c 0,0.220914 -0.179086,0.4 -0.4,0.4 z m 8,-4 H 36.4 C 36.179086,96 36,95.820914 36,95.6 V 84 h 4 v 3.6 c 0,0.220914 0.179086,0.4 0.4,0.4 h 3.2 c 0.220914,0 0.4,0.179086 0.4,0.4 v 3.2 C 44,91.820914 43.820914,92 43.6,92 H 40.4 C 40.179086,92 40,92.179086 40,92.4 V 96 Z m 60,-4 H 96.4 C 96.179086,92 96,91.820914 96,91.6 V 88.4 C 96,88.179086 96.179086,88 96.4,88 h 3.2 c 0.220914,0 0.4,0.179086 0.4,0.4 v 3.2 c 0,0.220914 -0.179086,0.4 -0.4,0.4 z m -40,0 H 56 V 88.4 C 56,88.179086 56.179086,88 56.4,88 H 60 v 4 z m -40,0 H 16.4 C 16.179086,92 16,91.820914 16,91.6 V 88.4 C 16,88.179086 16.179086,88 16.4,88 H 20 v 3.6 c 0,0.220914 -0.179086,0.4 -0.4,0.4 z m 52,-4 H 60 V 84.4 C 60,84.179086 60.179086,84 60.4,84 h 3.2 C 63.820914,84 64,83.820914 64,83.6 V 80 h 4 v 3.6 c 0,0.220914 0.179086,0.4 0.4,0.4 h 3.2 c 0.220914,0 0.4,0.179086 0.4,0.4 v 3.2 c 0,0.220914 -0.179086,0.4 -0.4,0.4 z m -20,0 H 48.4 C 48.179086,88 48,87.820914 48,87.6 V 80 h 3.6 C 51.820914,80 52,79.820914 52,79.6 V 72.4 C 52,72.179086 51.820914,72 51.6,72 H 44 v -4 h 7.6 C 51.820914,68 52,67.820914 52,67.6 V 64.4 C 52,64.179086 52.179086,64 52.4,64 H 56 v 3.6 c 0,0.220914 0.179086,0.4 0.4,0.4 h 3.2 C 59.820914,68 60,67.820914 60,67.6 V 64 h 3.6 c 0.220914,0 0.4,0.179086 0.4,0.4 v 7.2 C 64,71.820914 63.820914,72 63.6,72 H 56.4 C 56.179086,72 56,72.179086 56,72.4 V 83.6 C 56,83.820914 55.820914,84 55.6,84 H 52.4 C 52.179086,84 52,84.179086 52,84.4 v 3.2 c 0,0.220914 -0.179086,0.4 -0.4,0.4 z m -28,0 H 20 V 80.4 C 20,80.179086 20.179086,80 20.4,80 h 3.2 c 0.220914,0 0.4,0.179086 0.4,0.4 V 88 Z m 20,-4 H 40 V 80.4 C 40,80.179086 40.179086,80 40.4,80 H 44 v 3.6 c 0,0.220914 -0.179086,0.4 -0.4,0.4 z m 28,-4 H 68 V 76.4 C 68,76.179086 68.179086,76 68.4,76 H 72 v 3.6 c 0,0.220914 -0.179086,0.4 -0.4,0.4 z m -8,0 H 60.4 C 60.179086,80 60,79.820914 60,79.6 V 76.4 C 60,76.179086 60.179086,76 60.4,76 h 3.2 c 0.220914,0 0.4,0.179086 0.4,0.4 V 80 Z m -16,0 H 44 v -4 h 3.6 c 0.220914,0 0.4,0.179086 0.4,0.4 V 80 Z m 40,-4 H 80 V 72.4 C 80,72.179086 79.820914,72 79.6,72 H 76 V 68.4 C 76,68.179086 76.179086,68 76.4,68 H 84 v 3.6 c 0,0.220914 0.179086,0.4 0.4,0.4 H 88 v 4 z m -12,0 H 72 v -4 h 4 v 4 z m -32,0 H 36 v -4 h 8 v 4 z m -12,0 H 24.4 C 24.179086,76 24,75.820914 24,75.6 V 68 h 3.6 C 27.820914,68 28,67.820914 28,67.6 V 64.4 C 28,64.179086 28.179086,64 28.4,64 h 3.2 C 31.820914,64 32,63.820914 32,63.6 V 60 h 3.6 c 0.220914,0 0.4,0.179086 0.4,0.4 V 72 H 32.4 C 32.179086,72 32,72.179086 32,72.4 V 76 Z m 40,-4 H 68.4 C 68.179086,72 68,71.820914 68,71.6 V 68.4 C 68,68.179086 68.179086,68 68.4,68 h 3.2 c 0.220914,0 0.4,0.179086 0.4,0.4 V 72 Z m -52,0 H 16.4 C 16.179086,72 16,71.820914 16,71.6 V 64.4 C 16,64.179086 16.179086,64 16.4,64 h 3.2 C 19.820914,64 20,63.820914 20,63.6 V 56.4 C 20,56.179086 20.179086,56 20.4,56 h 3.2 C 23.820914,56 24,55.820914 24,55.6 V 48.4 C 24,48.179086 24.179086,48 24.4,48 h 7.2 c 0.220914,0 0.4,0.179086 0.4,0.4 v 3.2 C 32,51.820914 31.820914,52 31.6,52 H 28.4 C 28.179086,52 28,52.179086 28,52.4 v 3.2 c 0,0.220914 0.179086,0.4 0.4,0.4 h 3.2 c 0.220914,0 0.4,0.179086 0.4,0.4 V 60 H 24.4 C 24.179086,60 24,60.179086 24,60.4 V 68 H 20.4 C 20.179086,68 20,68.179086 20,68.4 v 3.2 c 0,0.220914 -0.179086,0.4 -0.4,0.4 z m 68,-4 H 84 v -4 h 4 v 4 z m -44,0 H 40.4 C 40.179086,68 40,67.820914 40,67.6 V 64.4 C 40,64.179086 40.179086,64 40.4,64 h 3.2 c 0.220914,0 0.4,0.179086 0.4,0.4 V 68 Z m 88,-4 h -3.2 C 128.17909,64 128,63.820914 128,63.6 V 60 h 3.6 c 0.22091,0 0.4,0.179086 0.4,0.4 v 3.2 c 0,0.220914 -0.17909,0.4 -0.4,0.4 z m -16,0 h -3.2 C 112.17909,64 112,63.820914 112,63.6 V 60 h 3.6 c 0.22091,0 0.4,0.179086 0.4,0.4 V 64 Z m -8,0 h -7.2 C 100.17909,64 100,63.820914 100,63.6 V 60.4 C 100,60.179086 99.820914,60 99.6,60 H 96 V 56.4 C 96,56.179086 95.820914,56 95.6,56 H 88.4 C 88.179086,56 88,56.179086 88,56.4 V 60 H 84.4 C 84.179086,60 84,60.179086 84,60.4 V 64 H 80.4 C 80.179086,64 80,63.820914 80,63.6 V 40.4 C 80,40.179086 80.179086,40 80.4,40 h 3.2 c 0.220914,0 0.4,0.179086 0.4,0.4 v 3.2 c 0,0.220914 0.179086,0.4 0.4,0.4 h 3.2 C 87.820914,44 88,43.820914 88,43.6 V 36 h 3.6 C 91.820914,36 92,35.820914 92,35.6 V 28.4 C 92,28.179086 91.820914,28 91.6,28 H 88 V 20.4 C 88,20.179086 88.179086,20 88.4,20 H 92 v 3.6 c 0,0.220914 0.179086,0.4 0.4,0.4 h 3.2 C 95.820914,24 96,23.820914 96,23.6 V 20.4 C 96,20.179086 95.820914,20 95.6,20 H 92 V 16.4 C 92,16.179086 92.179086,16 92.4,16 h 7.2 c 0.220914,0 0.4,0.179086 0.4,0.4 v 11.2 c 0,0.220914 -0.179086,0.4 -0.4,0.4 H 96.4 C 96.179086,28 96,28.179086 96,28.4 V 40 H 92.4 C 92.179086,40 92,40.179086 92,40.4 v 7.2 c 0,0.220914 0.179086,0.4 0.4,0.4 h 7.2 c 0.220914,0 0.4,0.179086 0.4,0.4 v 7.2 c 0,0.220914 0.17909,0.4 0.4,0.4 h 3.6 v 3.6 c 0,0.220914 0.17909,0.4 0.4,0.4 h 3.6 v 3.6 c 0,0.220914 -0.17909,0.4 -0.4,0.4 z m -32,0 H 68.4 C 68.179086,64 68,63.820914 68,63.6 V 60 h 3.6 C 71.820914,60 72,59.820914 72,59.6 V 56.4 C 72,56.179086 72.179086,56 72.4,56 h 3.2 c 0.220914,0 0.4,0.179086 0.4,0.4 v 7.2 c 0,0.220914 -0.179086,0.4 -0.4,0.4 z m -16,0 H 56 V 60.4 C 56,60.179086 55.820914,60 55.6,60 H 40.4 C 40.179086,60 40,59.820914 40,59.6 V 56 h 19.6 c 0.220914,0 0.4,0.179086 0.4,0.4 V 64 Z m 68,-4 h -7.2 c -0.22091,0 -0.4,-0.179086 -0.4,-0.4 v -3.2 c 0,-0.220914 0.17909,-0.4 0.4,-0.4 h 7.6 v 4 z m -16,0 H 108 V 56.4 C 108,56.179086 107.82091,56 107.6,56 H 104 v -7.6 c 0,-0.220914 0.17909,-0.4 0.4,-0.4 h 3.2 c 0.22091,0 0.4,0.179086 0.4,0.4 v 3.2 c 0,0.220914 0.17909,0.4 0.4,0.4 h 7.6 v 3.6 c 0,0.220914 -0.17909,0.4 -0.4,0.4 h -3.2 c -0.22091,0 -0.4,0.179086 -0.4,0.4 V 60 Z m -44,0 H 64.4 C 64.179086,60 64,59.820914 64,59.6 V 52.4 C 64,52.179086 63.820914,52 63.6,52 H 56.4 C 56.179086,52 56,51.820914 56,51.6 V 48.4 C 56,48.179086 55.820914,48 55.6,48 H 48 V 40.4 C 48,40.179086 48.179086,40 48.4,40 h 3.2 c 0.220914,0 0.4,0.179086 0.4,0.4 v 3.2 c 0,0.220914 0.179086,0.4 0.4,0.4 h 3.2 C 55.820914,44 56,43.820914 56,43.6 V 36 h 3.6 C 59.820914,36 60,35.820914 60,35.6 V 24 h 3.6 c 0.220914,0 0.4,0.179086 0.4,0.4 V 40 H 60.4 C 60.179086,40 60,40.179086 60,40.4 v 7.2 c 0,0.220914 0.179086,0.4 0.4,0.4 h 3.2 C 63.820914,48 64,47.820914 64,47.6 V 40 h 3.6 c 0.220914,0 0.4,0.179086 0.4,0.4 v 3.2 c 0,0.220914 0.179086,0.4 0.4,0.4 h 3.2 C 71.820914,44 72,43.820914 72,43.6 V 36.4 C 72,36.179086 71.820914,36 71.6,36 H 68.4 C 68.179086,36 68,35.820914 68,35.6 V 32.4 C 68,32.179086 68.179086,32 68.4,32 H 83.6 C 83.820914,32 84,31.820914 84,31.6 V 28.4 C 84,28.179086 84.179086,28 84.4,28 H 88 v 8 H 76.4 C 76.179086,36 76,36.179086 76,36.4 V 51.6 C 76,51.820914 75.820914,52 75.6,52 H 68.4 C 68.179086,52 68,52.179086 68,52.4 V 60 Z m 64,-4 H 128 v -3.6 c 0,-0.220914 -0.17909,-0.4 -0.4,-0.4 h -3.2 c -0.22091,0 -0.4,-0.179086 -0.4,-0.4 v -3.2 c 0,-0.220914 0.17909,-0.4 0.4,-0.4 h 7.2 c 0.22091,0 0.4,0.179086 0.4,0.4 v 7.2 c 0,0.220914 -0.17909,0.4 -0.4,0.4 z m -92,0 H 36.4 C 36.179086,56 36,55.820914 36,55.6 V 48.4 C 36,48.179086 36.179086,48 36.4,48 H 48 v 3.6 C 48,51.820914 47.820914,52 47.6,52 H 40.4 C 40.179086,52 40,52.179086 40,52.4 V 56 Z m 80,-4 H 116 v -3.6 c 0,-0.220914 0.17909,-0.4 0.4,-0.4 h 3.2 c 0.22091,0 0.4,0.179086 0.4,0.4 v 3.2 c 0,0.220914 -0.17909,0.4 -0.4,0.4 z m -100,0 H 16.4 C 16.179086,52 16,51.820914 16,51.6 V 48.4 C 16,48.179086 16.179086,48 16.4,48 h 3.2 c 0.220914,0 0.4,0.179086 0.4,0.4 v 3.2 c 0,0.220914 -0.179086,0.4 -0.4,0.4 z m 112,-8 H 104.4 C 104.17909,44 104,43.820914 104,43.6 V 16.4 c 0,-0.220914 0.17909,-0.4 0.4,-0.4 h 27.2 c 0.22091,0 0.4,0.179086 0.4,0.4 v 27.2 c 0,0.220914 -0.17909,0.4 -0.4,0.4 z m -32,0 H 96.4 C 96.179086,44 96,43.820914 96,43.6 V 40 h 3.6 c 0.220914,0 0.4,0.179086 0.4,0.4 v 3.2 c 0,0.220914 -0.179086,0.4 -0.4,0.4 z m -56,0 H 16.4 C 16.179086,44 16,43.820914 16,43.6 V 16.4 C 16,16.179086 16.179086,16 16.4,16 h 27.2 c 0.220914,0 0.4,0.179086 0.4,0.4 V 43.6 C 44,43.820914 43.820914,44 43.6,44 Z M 128,39.6 V 20.4 c 0,-0.220914 -0.17909,-0.4 -0.4,-0.4 h -19.2 c -0.22091,0 -0.4,0.179086 -0.4,0.4 v 19.2 c 0,0.220914 0.17909,0.4 0.4,0.4 h 19.2 c 0.22091,0 0.4,-0.179086 0.4,-0.4 z m -88,0 V 20.4 C 40,20.179086 39.820914,20 39.6,20 H 20.4 C 20.179086,20 20,20.179086 20,20.4 v 19.2 c 0,0.220914 0.179086,0.4 0.4,0.4 H 39.6 C 39.820914,40 40,39.820914 40,39.6 Z M 123.6,36 H 112.4 C 112.17909,36 112,35.820914 112,35.6 V 24.4 c 0,-0.220914 0.17909,-0.4 0.4,-0.4 h 11.2 c 0.22091,0 0.4,0.179086 0.4,0.4 v 11.2 c 0,0.220914 -0.17909,0.4 -0.4,0.4 z m -68,0 H 52.4 C 52.179086,36 52,35.820914 52,35.6 V 32 h 3.6 c 0.220914,0 0.4,0.179086 0.4,0.4 V 36 Z m -20,0 H 24.4 C 24.179086,36 24,35.820914 24,35.6 V 24.4 C 24,24.179086 24.179086,24 24.4,24 h 11.2 c 0.220914,0 0.4,0.179086 0.4,0.4 v 11.2 c 0,0.220914 -0.179086,0.4 -0.4,0.4 z m 16,-4 H 48.4 C 48.179086,32 48,31.820914 48,31.6 V 28.4 C 48,28.179086 48.179086,28 48.4,28 h 3.2 c 0.220914,0 0.4,0.179086 0.4,0.4 V 32 Z m 20,-4 H 68.4 C 68.179086,28 68,27.820914 68,27.6 V 24.4 C 68,24.179086 68.179086,24 68.4,24 h 3.2 c 0.220914,0 0.4,0.179086 0.4,0.4 v 3.2 c 0,0.220914 -0.179086,0.4 -0.4,0.4 z m -12,-4 H 48.4 C 48.179086,24 48,23.820914 48,23.6 V 16.4 C 48,16.179086 48.179086,16 48.4,16 h 11.2 c 0.220914,0 0.4,0.179086 0.4,0.4 V 24 Z m 24,-4 H 80.4 C 80.179086,20 80,19.820914 80,19.6 V 16.4 C 80,16.179086 80.179086,16 80.4,16 h 3.2 c 0.220914,0 0.4,0.179086 0.4,0.4 v 3.2 c 0,0.220914 -0.179086,0.4 -0.4,0.4 z"
           id="path1203" />
      </g>
    </g>
  </g>
</svg>
