%TF.GenerationSoftware,KiCad,Pcbnew,(6.0.9)*%
%TF.CreationDate,2022-11-30T17:50:51+01:00*%
%TF.ProjectId,car-shield,6361722d-7368-4696-956c-642e6b696361,rev0*%
%TF.SameCoordinates,Original*%
%TF.FileFunction,Paste,Top*%
%TF.FilePolarity,Positive*%
%FSLAX46Y46*%
G04 Gerber Fmt 4.6, Leading zero omitted, Abs format (unit mm)*
G04 Created by KiCad (PCBNEW (6.0.9)) date 2022-11-30 17:50:51*
%MOMM*%
%LPD*%
G01*
G04 APERTURE LIST*
G04 Aperture macros list*
%AMRoundRect*
0 Rectangle with rounded corners*
0 $1 Rounding radius*
0 $2 $3 $4 $5 $6 $7 $8 $9 X,Y pos of 4 corners*
0 Add a 4 corners polygon primitive as box body*
4,1,4,$2,$3,$4,$5,$6,$7,$8,$9,$2,$3,0*
0 Add four circle primitives for the rounded corners*
1,1,$1+$1,$2,$3*
1,1,$1+$1,$4,$5*
1,1,$1+$1,$6,$7*
1,1,$1+$1,$8,$9*
0 Add four rect primitives between the rounded corners*
20,1,$1+$1,$2,$3,$4,$5,0*
20,1,$1+$1,$4,$5,$6,$7,0*
20,1,$1+$1,$6,$7,$8,$9,0*
20,1,$1+$1,$8,$9,$2,$3,0*%
G04 Aperture macros list end*
%ADD10R,1.000000X0.750000*%
%ADD11RoundRect,0.218750X0.117915X0.315613X-0.293200X0.165979X-0.117915X-0.315613X0.293200X-0.165979X0*%
%ADD12RoundRect,0.135000X-0.135000X-0.185000X0.135000X-0.185000X0.135000X0.185000X-0.135000X0.185000X0*%
%ADD13RoundRect,0.135000X-0.185000X0.135000X-0.185000X-0.135000X0.185000X-0.135000X0.185000X0.135000X0*%
%ADD14RoundRect,0.218750X-0.277619X-0.190902X0.144974X-0.304135X0.277619X0.190902X-0.144974X0.304135X0*%
%ADD15RoundRect,0.218750X0.317568X0.112544X-0.061318X0.331294X-0.317568X-0.112544X0.061318X-0.331294X0*%
%ADD16RoundRect,0.218750X-0.332287X-0.055689X0.002858X-0.336909X0.332287X0.055689X-0.002858X0.336909X0*%
%ADD17RoundRect,0.218750X0.002858X0.336909X-0.332287X0.055689X-0.002858X-0.336909X0.332287X-0.055689X0*%
%ADD18RoundRect,0.218750X-0.256250X0.218750X-0.256250X-0.218750X0.256250X-0.218750X0.256250X0.218750X0*%
%ADD19RoundRect,0.218750X-0.061318X-0.331294X0.317568X-0.112544X0.061318X0.331294X-0.317568X0.112544X0*%
%ADD20RoundRect,0.218750X0.144974X0.304135X-0.277619X0.190902X-0.144974X-0.304135X0.277619X-0.190902X0*%
%ADD21RoundRect,0.135000X0.185000X-0.135000X0.185000X0.135000X-0.185000X0.135000X-0.185000X-0.135000X0*%
%ADD22RoundRect,0.218750X-0.293200X-0.165979X0.117915X-0.315613X0.293200X0.165979X-0.117915X0.315613X0*%
G04 APERTURE END LIST*
D10*
%TO.C,SW_high_b1*%
X139600000Y-102061000D03*
X133600000Y-102061000D03*
X139600000Y-98311000D03*
X133600000Y-98311000D03*
%TD*%
%TO.C,SW_dipped_b1*%
X139600000Y-112420000D03*
X133600000Y-112420000D03*
X139600000Y-108670000D03*
X133600000Y-108670000D03*
%TD*%
%TO.C,SW_decel1*%
X129440000Y-112420000D03*
X123440000Y-112420000D03*
X129440000Y-108670000D03*
X123440000Y-108670000D03*
%TD*%
%TO.C,SW_accel1*%
X129440000Y-102061000D03*
X123440000Y-102061000D03*
X129440000Y-98311000D03*
X123440000Y-98311000D03*
%TD*%
%TO.C,SW_stop1*%
X134520000Y-91647000D03*
X128520000Y-91647000D03*
X134520000Y-87897000D03*
X128520000Y-87897000D03*
%TD*%
%TO.C,SW_left1*%
X123440000Y-79769000D03*
X129440000Y-79769000D03*
X123440000Y-83519000D03*
X129440000Y-83519000D03*
%TD*%
%TO.C,SW_right1*%
X133600000Y-79769000D03*
X139600000Y-79769000D03*
X133600000Y-83519000D03*
X139600000Y-83519000D03*
%TD*%
D11*
%TO.C,D5*%
X146663008Y-90916659D03*
X145182992Y-91455341D03*
%TD*%
D12*
%TO.C,R11*%
X156460000Y-120015000D03*
X157480000Y-120015000D03*
%TD*%
D13*
%TO.C,R4*%
X153035000Y-75565000D03*
X153035000Y-76585000D03*
%TD*%
D14*
%TO.C,D2*%
X158497333Y-78917180D03*
X160018667Y-79324820D03*
%TD*%
D12*
%TO.C,R13*%
X161540000Y-120015000D03*
X162560000Y-120015000D03*
%TD*%
D15*
%TO.C,D9*%
X149652995Y-117106750D03*
X148289005Y-116319250D03*
%TD*%
D13*
%TO.C,R6*%
X149860000Y-75565000D03*
X149860000Y-76585000D03*
%TD*%
%TO.C,R2*%
X155575000Y-75565000D03*
X155575000Y-76585000D03*
%TD*%
D16*
%TO.C,D4*%
X161321740Y-80392805D03*
X162528260Y-81405195D03*
%TD*%
D13*
%TO.C,R7*%
X131826000Y-75563000D03*
X131826000Y-76583000D03*
%TD*%
%TO.C,R3*%
X151765000Y-75565000D03*
X151765000Y-76585000D03*
%TD*%
%TO.C,R5*%
X147320000Y-75565000D03*
X147320000Y-76585000D03*
%TD*%
%TO.C,R8*%
X145415000Y-75565000D03*
X145415000Y-76585000D03*
%TD*%
D12*
%TO.C,R16*%
X159000000Y-120015000D03*
X160020000Y-120015000D03*
%TD*%
D17*
%TO.C,D3*%
X149320260Y-80392805D03*
X148113740Y-81405195D03*
%TD*%
D12*
%TO.C,R12*%
X148840000Y-120015000D03*
X149860000Y-120015000D03*
%TD*%
D18*
%TO.C,D7*%
X155321000Y-99542500D03*
X155321000Y-101117500D03*
%TD*%
D12*
%TO.C,R15*%
X153920000Y-120015000D03*
X154940000Y-120015000D03*
%TD*%
D19*
%TO.C,D8*%
X160989005Y-117106750D03*
X162352995Y-116319250D03*
%TD*%
D20*
%TO.C,D1*%
X152144667Y-78917180D03*
X150623333Y-79324820D03*
%TD*%
D13*
%TO.C,R1*%
X154305000Y-75565000D03*
X154305000Y-76585000D03*
%TD*%
D21*
%TO.C,R10*%
X140716000Y-76583000D03*
X140716000Y-75563000D03*
%TD*%
D12*
%TO.C,R14*%
X151380000Y-120015000D03*
X152400000Y-120015000D03*
%TD*%
D13*
%TO.C,R9*%
X144145000Y-75565000D03*
X144145000Y-76585000D03*
%TD*%
D22*
%TO.C,D6*%
X163978992Y-90916659D03*
X165459008Y-91455341D03*
%TD*%
M02*
