%TF.GenerationSoftware,KiCad,Pcbnew,(6.0.9)*%
%TF.CreationDate,2022-11-30T17:50:51+01:00*%
%TF.ProjectId,car-shield,6361722d-7368-4696-956c-642e6b696361,rev0*%
%TF.SameCoordinates,Original*%
%TF.FileFunction,Legend,Top*%
%TF.FilePolarity,Positive*%
%FSLAX46Y46*%
G04 Gerber Fmt 4.6, Leading zero omitted, Abs format (unit mm)*
G04 Created by KiCad (PCBNEW (6.0.9)) date 2022-11-30 17:50:51*
%MOMM*%
%LPD*%
G01*
G04 APERTURE LIST*
G04 Aperture macros list*
%AMRoundRect*
0 Rectangle with rounded corners*
0 $1 Rounding radius*
0 $2 $3 $4 $5 $6 $7 $8 $9 X,Y pos of 4 corners*
0 Add a 4 corners polygon primitive as box body*
4,1,4,$2,$3,$4,$5,$6,$7,$8,$9,$2,$3,0*
0 Add four circle primitives for the rounded corners*
1,1,$1+$1,$2,$3*
1,1,$1+$1,$4,$5*
1,1,$1+$1,$6,$7*
1,1,$1+$1,$8,$9*
0 Add four rect primitives between the rounded corners*
20,1,$1+$1,$2,$3,$4,$5,0*
20,1,$1+$1,$4,$5,$6,$7,0*
20,1,$1+$1,$6,$7,$8,$9,0*
20,1,$1+$1,$8,$9,$2,$3,0*%
G04 Aperture macros list end*
%ADD10C,0.150000*%
%ADD11C,0.000000*%
%ADD12C,0.120000*%
%ADD13R,1.000000X0.750000*%
%ADD14RoundRect,0.218750X0.117915X0.315613X-0.293200X0.165979X-0.117915X-0.315613X0.293200X-0.165979X0*%
%ADD15RoundRect,0.135000X-0.135000X-0.185000X0.135000X-0.185000X0.135000X0.185000X-0.135000X0.185000X0*%
%ADD16RoundRect,0.135000X-0.185000X0.135000X-0.185000X-0.135000X0.185000X-0.135000X0.185000X0.135000X0*%
%ADD17RoundRect,0.218750X-0.277619X-0.190902X0.144974X-0.304135X0.277619X0.190902X-0.144974X0.304135X0*%
%ADD18RoundRect,0.218750X0.317568X0.112544X-0.061318X0.331294X-0.317568X-0.112544X0.061318X-0.331294X0*%
%ADD19RoundRect,0.218750X-0.332287X-0.055689X0.002858X-0.336909X0.332287X0.055689X-0.002858X0.336909X0*%
%ADD20RoundRect,0.218750X0.002858X0.336909X-0.332287X0.055689X-0.002858X-0.336909X0.332287X-0.055689X0*%
%ADD21RoundRect,0.218750X-0.256250X0.218750X-0.256250X-0.218750X0.256250X-0.218750X0.256250X0.218750X0*%
%ADD22RoundRect,0.218750X-0.061318X-0.331294X0.317568X-0.112544X0.061318X0.331294X-0.317568X0.112544X0*%
%ADD23RoundRect,0.218750X0.144974X0.304135X-0.277619X0.190902X-0.144974X-0.304135X0.277619X-0.190902X0*%
%ADD24RoundRect,0.135000X0.185000X-0.135000X0.185000X0.135000X-0.185000X0.135000X-0.185000X-0.135000X0*%
%ADD25RoundRect,0.218750X-0.293200X-0.165979X0.117915X-0.315613X0.293200X0.165979X-0.117915X0.315613X0*%
%ADD26C,2.000000*%
%ADD27R,1.600000X1.600000*%
%ADD28O,1.600000X1.600000*%
G04 APERTURE END LIST*
D10*
X166060380Y-89749142D02*
X165393714Y-89749142D01*
X165584190Y-89749142D02*
X165488952Y-89701523D01*
X165441333Y-89653904D01*
X165393714Y-89558666D01*
X165393714Y-89463428D01*
X166012761Y-88749142D02*
X166060380Y-88844380D01*
X166060380Y-89034857D01*
X166012761Y-89130095D01*
X165917523Y-89177714D01*
X165536571Y-89177714D01*
X165441333Y-89130095D01*
X165393714Y-89034857D01*
X165393714Y-88844380D01*
X165441333Y-88749142D01*
X165536571Y-88701523D01*
X165631809Y-88701523D01*
X165727047Y-89177714D01*
X165393714Y-88368190D02*
X166060380Y-88130095D01*
X165393714Y-87892000D01*
X165060380Y-87320571D02*
X165060380Y-87225333D01*
X165108000Y-87130095D01*
X165155619Y-87082476D01*
X165250857Y-87034857D01*
X165441333Y-86987238D01*
X165679428Y-86987238D01*
X165869904Y-87034857D01*
X165965142Y-87082476D01*
X166012761Y-87130095D01*
X166060380Y-87225333D01*
X166060380Y-87320571D01*
X166012761Y-87415809D01*
X165965142Y-87463428D01*
X165869904Y-87511047D01*
X165679428Y-87558666D01*
X165441333Y-87558666D01*
X165250857Y-87511047D01*
X165155619Y-87463428D01*
X165108000Y-87415809D01*
X165060380Y-87320571D01*
X165393714Y-117568857D02*
X166203238Y-117568857D01*
X166298476Y-117616476D01*
X166346095Y-117664095D01*
X166393714Y-117759333D01*
X166393714Y-117902190D01*
X166346095Y-117997428D01*
X166012761Y-117568857D02*
X166060380Y-117664095D01*
X166060380Y-117854571D01*
X166012761Y-117949809D01*
X165965142Y-117997428D01*
X165869904Y-118045047D01*
X165584190Y-118045047D01*
X165488952Y-117997428D01*
X165441333Y-117949809D01*
X165393714Y-117854571D01*
X165393714Y-117664095D01*
X165441333Y-117568857D01*
X166060380Y-117092666D02*
X165393714Y-117092666D01*
X165060380Y-117092666D02*
X165108000Y-117140285D01*
X165155619Y-117092666D01*
X165108000Y-117045047D01*
X165060380Y-117092666D01*
X165155619Y-117092666D01*
X165393714Y-116759333D02*
X165393714Y-116378380D01*
X165060380Y-116616476D02*
X165917523Y-116616476D01*
X166012761Y-116568857D01*
X166060380Y-116473619D01*
X166060380Y-116378380D01*
X166060380Y-116045047D02*
X165060380Y-116045047D01*
X166060380Y-115616476D02*
X165536571Y-115616476D01*
X165441333Y-115664095D01*
X165393714Y-115759333D01*
X165393714Y-115902190D01*
X165441333Y-115997428D01*
X165488952Y-116045047D01*
X165393714Y-114711714D02*
X166060380Y-114711714D01*
X165393714Y-115140285D02*
X165917523Y-115140285D01*
X166012761Y-115092666D01*
X166060380Y-114997428D01*
X166060380Y-114854571D01*
X166012761Y-114759333D01*
X165965142Y-114711714D01*
X166060380Y-114235523D02*
X165060380Y-114235523D01*
X165441333Y-114235523D02*
X165393714Y-114140285D01*
X165393714Y-113949809D01*
X165441333Y-113854571D01*
X165488952Y-113806952D01*
X165584190Y-113759333D01*
X165869904Y-113759333D01*
X165965142Y-113806952D01*
X166012761Y-113854571D01*
X166060380Y-113949809D01*
X166060380Y-114140285D01*
X166012761Y-114235523D01*
X165965142Y-113330761D02*
X166012761Y-113283142D01*
X166060380Y-113330761D01*
X166012761Y-113378380D01*
X165965142Y-113330761D01*
X166060380Y-113330761D01*
X166012761Y-112426000D02*
X166060380Y-112521238D01*
X166060380Y-112711714D01*
X166012761Y-112806952D01*
X165965142Y-112854571D01*
X165869904Y-112902190D01*
X165584190Y-112902190D01*
X165488952Y-112854571D01*
X165441333Y-112806952D01*
X165393714Y-112711714D01*
X165393714Y-112521238D01*
X165441333Y-112426000D01*
X166060380Y-111854571D02*
X166012761Y-111949809D01*
X165965142Y-111997428D01*
X165869904Y-112045047D01*
X165584190Y-112045047D01*
X165488952Y-111997428D01*
X165441333Y-111949809D01*
X165393714Y-111854571D01*
X165393714Y-111711714D01*
X165441333Y-111616476D01*
X165488952Y-111568857D01*
X165584190Y-111521238D01*
X165869904Y-111521238D01*
X165965142Y-111568857D01*
X166012761Y-111616476D01*
X166060380Y-111711714D01*
X166060380Y-111854571D01*
X166060380Y-111092666D02*
X165393714Y-111092666D01*
X165488952Y-111092666D02*
X165441333Y-111045047D01*
X165393714Y-110949809D01*
X165393714Y-110806952D01*
X165441333Y-110711714D01*
X165536571Y-110664095D01*
X166060380Y-110664095D01*
X165536571Y-110664095D02*
X165441333Y-110616476D01*
X165393714Y-110521238D01*
X165393714Y-110378380D01*
X165441333Y-110283142D01*
X165536571Y-110235523D01*
X166060380Y-110235523D01*
X165012761Y-109045047D02*
X166298476Y-109902190D01*
X166060380Y-108711714D02*
X165060380Y-108711714D01*
X166060380Y-108283142D02*
X165536571Y-108283142D01*
X165441333Y-108330761D01*
X165393714Y-108426000D01*
X165393714Y-108568857D01*
X165441333Y-108664095D01*
X165488952Y-108711714D01*
X165393714Y-107949809D02*
X165393714Y-107568857D01*
X165060380Y-107806952D02*
X165917523Y-107806952D01*
X166012761Y-107759333D01*
X166060380Y-107664095D01*
X166060380Y-107568857D01*
X166060380Y-107092666D02*
X166012761Y-107187904D01*
X165917523Y-107235523D01*
X165060380Y-107235523D01*
X165393714Y-106806952D02*
X166060380Y-106616476D01*
X165584190Y-106426000D01*
X166060380Y-106235523D01*
X165393714Y-106045047D01*
X166012761Y-105283142D02*
X166060380Y-105378380D01*
X166060380Y-105568857D01*
X166012761Y-105664095D01*
X165917523Y-105711714D01*
X165536571Y-105711714D01*
X165441333Y-105664095D01*
X165393714Y-105568857D01*
X165393714Y-105378380D01*
X165441333Y-105283142D01*
X165536571Y-105235523D01*
X165631809Y-105235523D01*
X165727047Y-105711714D01*
X166060380Y-104806952D02*
X165393714Y-104806952D01*
X165060380Y-104806952D02*
X165108000Y-104854571D01*
X165155619Y-104806952D01*
X165108000Y-104759333D01*
X165060380Y-104806952D01*
X165155619Y-104806952D01*
X165393714Y-104426000D02*
X165393714Y-103902190D01*
X166060380Y-104426000D01*
X166060380Y-103902190D01*
X165012761Y-102806952D02*
X166298476Y-103664095D01*
X166012761Y-102045047D02*
X166060380Y-102140285D01*
X166060380Y-102330761D01*
X166012761Y-102426000D01*
X165965142Y-102473619D01*
X165869904Y-102521238D01*
X165584190Y-102521238D01*
X165488952Y-102473619D01*
X165441333Y-102426000D01*
X165393714Y-102330761D01*
X165393714Y-102140285D01*
X165441333Y-102045047D01*
X166060380Y-101187904D02*
X165536571Y-101187904D01*
X165441333Y-101235523D01*
X165393714Y-101330761D01*
X165393714Y-101521238D01*
X165441333Y-101616476D01*
X166012761Y-101187904D02*
X166060380Y-101283142D01*
X166060380Y-101521238D01*
X166012761Y-101616476D01*
X165917523Y-101664095D01*
X165822285Y-101664095D01*
X165727047Y-101616476D01*
X165679428Y-101521238D01*
X165679428Y-101283142D01*
X165631809Y-101187904D01*
X166060380Y-100711714D02*
X165393714Y-100711714D01*
X165584190Y-100711714D02*
X165488952Y-100664095D01*
X165441333Y-100616476D01*
X165393714Y-100521238D01*
X165393714Y-100426000D01*
X165679428Y-100092666D02*
X165679428Y-99330761D01*
X166012761Y-98902190D02*
X166060380Y-98806952D01*
X166060380Y-98616476D01*
X166012761Y-98521238D01*
X165917523Y-98473619D01*
X165869904Y-98473619D01*
X165774666Y-98521238D01*
X165727047Y-98616476D01*
X165727047Y-98759333D01*
X165679428Y-98854571D01*
X165584190Y-98902190D01*
X165536571Y-98902190D01*
X165441333Y-98854571D01*
X165393714Y-98759333D01*
X165393714Y-98616476D01*
X165441333Y-98521238D01*
X166060380Y-98045047D02*
X165060380Y-98045047D01*
X166060380Y-97616476D02*
X165536571Y-97616476D01*
X165441333Y-97664095D01*
X165393714Y-97759333D01*
X165393714Y-97902190D01*
X165441333Y-97997428D01*
X165488952Y-98045047D01*
X166060380Y-97140285D02*
X165393714Y-97140285D01*
X165060380Y-97140285D02*
X165108000Y-97187904D01*
X165155619Y-97140285D01*
X165108000Y-97092666D01*
X165060380Y-97140285D01*
X165155619Y-97140285D01*
X166012761Y-96283142D02*
X166060380Y-96378380D01*
X166060380Y-96568857D01*
X166012761Y-96664095D01*
X165917523Y-96711714D01*
X165536571Y-96711714D01*
X165441333Y-96664095D01*
X165393714Y-96568857D01*
X165393714Y-96378380D01*
X165441333Y-96283142D01*
X165536571Y-96235523D01*
X165631809Y-96235523D01*
X165727047Y-96711714D01*
X166060380Y-95664095D02*
X166012761Y-95759333D01*
X165917523Y-95806952D01*
X165060380Y-95806952D01*
X166060380Y-94854571D02*
X165060380Y-94854571D01*
X166012761Y-94854571D02*
X166060380Y-94949809D01*
X166060380Y-95140285D01*
X166012761Y-95235523D01*
X165965142Y-95283142D01*
X165869904Y-95330761D01*
X165584190Y-95330761D01*
X165488952Y-95283142D01*
X165441333Y-95235523D01*
X165393714Y-95140285D01*
X165393714Y-94949809D01*
X165441333Y-94854571D01*
D11*
G36*
X135917017Y-95963308D02*
G01*
X134609781Y-95963308D01*
X134609781Y-95668039D01*
X135917017Y-95668039D01*
X135917017Y-95963308D01*
G37*
G36*
X135905672Y-105789755D02*
G01*
X134639605Y-106115172D01*
X134566088Y-105829207D01*
X135832171Y-105503790D01*
X135905672Y-105789755D01*
G37*
G36*
X135917017Y-95387037D02*
G01*
X134609781Y-95387037D01*
X134609781Y-95091768D01*
X135917017Y-95091768D01*
X135917017Y-95387037D01*
G37*
G36*
X127682554Y-106100000D02*
G01*
X125197447Y-106100000D01*
X125197447Y-104777437D01*
X127682554Y-106100000D01*
G37*
G36*
X136537783Y-104256769D02*
G01*
X136641718Y-104258130D01*
X136744948Y-104262208D01*
X136847302Y-104268965D01*
X136948607Y-104278363D01*
X137048692Y-104290364D01*
X137147385Y-104304931D01*
X137244514Y-104322025D01*
X137339907Y-104341609D01*
X137433393Y-104363645D01*
X137524799Y-104388094D01*
X137613954Y-104414920D01*
X137700686Y-104444084D01*
X137784823Y-104475548D01*
X137866193Y-104509275D01*
X137944624Y-104545226D01*
X138019945Y-104583365D01*
X138091623Y-104623442D01*
X138159193Y-104665175D01*
X138222583Y-104708473D01*
X138281722Y-104753245D01*
X138336539Y-104799399D01*
X138386963Y-104846844D01*
X138432923Y-104895488D01*
X138474346Y-104945241D01*
X138511164Y-104996011D01*
X138543303Y-105047707D01*
X138570693Y-105100238D01*
X138582584Y-105126788D01*
X138593262Y-105153512D01*
X138602717Y-105180399D01*
X138610940Y-105207438D01*
X138617923Y-105234618D01*
X138623656Y-105261925D01*
X138628130Y-105289351D01*
X138631337Y-105316882D01*
X138633268Y-105344508D01*
X138633913Y-105372217D01*
X138631170Y-105429607D01*
X138623061Y-105486243D01*
X138609718Y-105542056D01*
X138591274Y-105596974D01*
X138567859Y-105650929D01*
X138539606Y-105703849D01*
X138506646Y-105755666D01*
X138469110Y-105806309D01*
X138380840Y-105903791D01*
X138275850Y-105995737D01*
X138155191Y-106081586D01*
X138019919Y-106160776D01*
X137871085Y-106232748D01*
X137709744Y-106296942D01*
X137536949Y-106352796D01*
X137353753Y-106399750D01*
X137161209Y-106437244D01*
X136960372Y-106464717D01*
X136752293Y-106481610D01*
X136538027Y-106487360D01*
X136482325Y-106486816D01*
X136426680Y-106485481D01*
X136371121Y-106483354D01*
X136315676Y-106480433D01*
X136292796Y-106417586D01*
X136271309Y-106353582D01*
X136251226Y-106288485D01*
X136232557Y-106222360D01*
X136215314Y-106155270D01*
X136199509Y-106087282D01*
X136185152Y-106018459D01*
X136172255Y-105948867D01*
X136160829Y-105878570D01*
X136150884Y-105807632D01*
X136135487Y-105664095D01*
X136126154Y-105518773D01*
X136123788Y-105445604D01*
X136122973Y-105372183D01*
X136123789Y-105298755D01*
X136126154Y-105225580D01*
X136130058Y-105152723D01*
X136135490Y-105080248D01*
X136142438Y-105008221D01*
X136150890Y-104936705D01*
X136160836Y-104865765D01*
X136172264Y-104795467D01*
X136185164Y-104725873D01*
X136199523Y-104657050D01*
X136215331Y-104589062D01*
X136232576Y-104521973D01*
X136251248Y-104455848D01*
X136271334Y-104390752D01*
X136292824Y-104326748D01*
X136315707Y-104263903D01*
X136371142Y-104260925D01*
X136426695Y-104258731D01*
X136482334Y-104257323D01*
X136538027Y-104256701D01*
X136537783Y-104256769D01*
G37*
G36*
X127682554Y-95741000D02*
G01*
X125197447Y-95741000D01*
X127682554Y-94418433D01*
X127682554Y-95741000D01*
G37*
G36*
X135905672Y-105231623D02*
G01*
X134639590Y-105557039D01*
X134566088Y-105271067D01*
X135832171Y-104945650D01*
X135905672Y-105231623D01*
G37*
G36*
X135917017Y-94810770D02*
G01*
X134609781Y-94810770D01*
X134609781Y-94515501D01*
X135917017Y-94515501D01*
X135917017Y-94810770D01*
G37*
G36*
X135917017Y-94234499D02*
G01*
X134609781Y-94234499D01*
X134609781Y-93939230D01*
X135917017Y-93939230D01*
X135917017Y-94234499D01*
G37*
G36*
X136600024Y-75989803D02*
G01*
X137588808Y-76564002D01*
X136600024Y-77138198D01*
X135611193Y-77712394D01*
X135611193Y-75415607D01*
X136600024Y-75989803D01*
G37*
G36*
X138378000Y-90509168D02*
G01*
X136878832Y-90509168D01*
X136878832Y-89010000D01*
X138378000Y-89010000D01*
X138378000Y-90509168D01*
G37*
G36*
X135905672Y-106347883D02*
G01*
X134639590Y-106673300D01*
X134566088Y-106387335D01*
X135832171Y-106061911D01*
X135905672Y-106347883D01*
G37*
G36*
X135905672Y-104673491D02*
G01*
X134639590Y-104998907D01*
X134566088Y-104712942D01*
X135832171Y-104387526D01*
X135905672Y-104673491D01*
G37*
G36*
X127428808Y-77712394D02*
G01*
X126439978Y-77138198D01*
X125451193Y-76564002D01*
X126439978Y-75989803D01*
X127428808Y-75415607D01*
X127428808Y-77712394D01*
G37*
G36*
X136600000Y-93836000D02*
G01*
X136703935Y-93837361D01*
X136807165Y-93841439D01*
X136909519Y-93848196D01*
X137010824Y-93857594D01*
X137110909Y-93869595D01*
X137209602Y-93884162D01*
X137306731Y-93901256D01*
X137402124Y-93920840D01*
X137495610Y-93942876D01*
X137587016Y-93967325D01*
X137676171Y-93994151D01*
X137762903Y-94023315D01*
X137847040Y-94054779D01*
X137928410Y-94088506D01*
X138006842Y-94124457D01*
X138082163Y-94162595D01*
X138153841Y-94202673D01*
X138221410Y-94244406D01*
X138284800Y-94287704D01*
X138343939Y-94332476D01*
X138398756Y-94378630D01*
X138449180Y-94426074D01*
X138495140Y-94474719D01*
X138536564Y-94524472D01*
X138573381Y-94575242D01*
X138605520Y-94626938D01*
X138632910Y-94679469D01*
X138644802Y-94706019D01*
X138655479Y-94732743D01*
X138664934Y-94759630D01*
X138673157Y-94786669D01*
X138680140Y-94813848D01*
X138685873Y-94841156D01*
X138690347Y-94868582D01*
X138693554Y-94896113D01*
X138695485Y-94923739D01*
X138696130Y-94951448D01*
X138693387Y-95008838D01*
X138685278Y-95065474D01*
X138671935Y-95121286D01*
X138653491Y-95176205D01*
X138630076Y-95230159D01*
X138601823Y-95283080D01*
X138568863Y-95334897D01*
X138531327Y-95385539D01*
X138443057Y-95483022D01*
X138338066Y-95574968D01*
X138217407Y-95660816D01*
X138082134Y-95740007D01*
X137933300Y-95811979D01*
X137771958Y-95876173D01*
X137599161Y-95932027D01*
X137415964Y-95978981D01*
X137223418Y-96016475D01*
X137022579Y-96043948D01*
X136814498Y-96060840D01*
X136600229Y-96066591D01*
X136544527Y-96066047D01*
X136488884Y-96064711D01*
X136433329Y-96062581D01*
X136377893Y-96059656D01*
X136355014Y-95996810D01*
X136333527Y-95932806D01*
X136313443Y-95867709D01*
X136294774Y-95801584D01*
X136277532Y-95734495D01*
X136261726Y-95666507D01*
X136247369Y-95597685D01*
X136234472Y-95528094D01*
X136223046Y-95457797D01*
X136213102Y-95386860D01*
X136197705Y-95243324D01*
X136188371Y-95098003D01*
X136186006Y-95024835D01*
X136185190Y-94951414D01*
X136186006Y-94877985D01*
X136188371Y-94804811D01*
X136192276Y-94731953D01*
X136197707Y-94659479D01*
X136204654Y-94587451D01*
X136213106Y-94515935D01*
X136223052Y-94444996D01*
X136234480Y-94374697D01*
X136247378Y-94305104D01*
X136261737Y-94236281D01*
X136277543Y-94168293D01*
X136294787Y-94101204D01*
X136313457Y-94035079D01*
X136333541Y-93969982D01*
X136355029Y-93905979D01*
X136377908Y-93843134D01*
X136433344Y-93840155D01*
X136488899Y-93837962D01*
X136544542Y-93836555D01*
X136600244Y-93835935D01*
X136600000Y-93836000D01*
G37*
D12*
%TO.C,SW_high_b1*%
X138050000Y-97466000D02*
X138540000Y-97956000D01*
X135150000Y-97466000D02*
X138050000Y-97466000D01*
X139320000Y-101226000D02*
X139320000Y-99146000D01*
X133880000Y-101226000D02*
X133880000Y-99146000D01*
X135150000Y-102906000D02*
X138050000Y-102906000D01*
X135150000Y-97466000D02*
X134660000Y-97956000D01*
X138050000Y-102906000D02*
X138540000Y-102416000D01*
X135150000Y-102906000D02*
X134660000Y-102416000D01*
%TO.C,SW_dipped_b1*%
X138050000Y-107825000D02*
X138540000Y-108315000D01*
X135150000Y-107825000D02*
X138050000Y-107825000D01*
X139320000Y-111585000D02*
X139320000Y-109505000D01*
X133880000Y-111585000D02*
X133880000Y-109505000D01*
X135150000Y-113265000D02*
X138050000Y-113265000D01*
X135150000Y-107825000D02*
X134660000Y-108315000D01*
X138050000Y-113265000D02*
X138540000Y-112775000D01*
X135150000Y-113265000D02*
X134660000Y-112775000D01*
%TO.C,SW_decel1*%
X127890000Y-107825000D02*
X128380000Y-108315000D01*
X124990000Y-107825000D02*
X127890000Y-107825000D01*
X129160000Y-111585000D02*
X129160000Y-109505000D01*
X123720000Y-111585000D02*
X123720000Y-109505000D01*
X124990000Y-113265000D02*
X127890000Y-113265000D01*
X124990000Y-107825000D02*
X124500000Y-108315000D01*
X127890000Y-113265000D02*
X128380000Y-112775000D01*
X124990000Y-113265000D02*
X124500000Y-112775000D01*
%TO.C,SW_accel1*%
X127890000Y-97466000D02*
X128380000Y-97956000D01*
X124990000Y-97466000D02*
X127890000Y-97466000D01*
X129160000Y-101226000D02*
X129160000Y-99146000D01*
X123720000Y-101226000D02*
X123720000Y-99146000D01*
X124990000Y-102906000D02*
X127890000Y-102906000D01*
X124990000Y-97466000D02*
X124500000Y-97956000D01*
X127890000Y-102906000D02*
X128380000Y-102416000D01*
X124990000Y-102906000D02*
X124500000Y-102416000D01*
%TO.C,SW_stop1*%
X132970000Y-87052000D02*
X133460000Y-87542000D01*
X130070000Y-87052000D02*
X132970000Y-87052000D01*
X134240000Y-90812000D02*
X134240000Y-88732000D01*
X128800000Y-90812000D02*
X128800000Y-88732000D01*
X130070000Y-92492000D02*
X132970000Y-92492000D01*
X130070000Y-87052000D02*
X129580000Y-87542000D01*
X132970000Y-92492000D02*
X133460000Y-92002000D01*
X130070000Y-92492000D02*
X129580000Y-92002000D01*
%TO.C,SW_left1*%
X124990000Y-84364000D02*
X124500000Y-83874000D01*
X127890000Y-84364000D02*
X128380000Y-83874000D01*
X124990000Y-78924000D02*
X124500000Y-79414000D01*
X124990000Y-84364000D02*
X127890000Y-84364000D01*
X123720000Y-82684000D02*
X123720000Y-80604000D01*
X129160000Y-82684000D02*
X129160000Y-80604000D01*
X124990000Y-78924000D02*
X127890000Y-78924000D01*
X127890000Y-78924000D02*
X128380000Y-79414000D01*
%TO.C,SW_right1*%
X135150000Y-84364000D02*
X134660000Y-83874000D01*
X138050000Y-84364000D02*
X138540000Y-83874000D01*
X135150000Y-78924000D02*
X134660000Y-79414000D01*
X135150000Y-84364000D02*
X138050000Y-84364000D01*
X133880000Y-82684000D02*
X133880000Y-80604000D01*
X139320000Y-82684000D02*
X139320000Y-80604000D01*
X135150000Y-78924000D02*
X138050000Y-78924000D01*
X138050000Y-78924000D02*
X138540000Y-79414000D01*
%TO.C,D5*%
X145422631Y-92150290D02*
X147569828Y-91368774D01*
X147569828Y-91368774D02*
X147067059Y-89987426D01*
X147067059Y-89987426D02*
X144919861Y-90768942D01*
%TO.C,R11*%
X156816359Y-119635000D02*
X157123641Y-119635000D01*
X156816359Y-120395000D02*
X157123641Y-120395000D01*
%TO.C,R4*%
X153415000Y-75921359D02*
X153415000Y-76228641D01*
X152655000Y-75921359D02*
X152655000Y-76228641D01*
%TO.C,D2*%
X157633368Y-79446609D02*
X159840509Y-80038011D01*
X158013832Y-78026698D02*
X157633368Y-79446609D01*
X160220973Y-78618100D02*
X158013832Y-78026698D01*
%TO.C,R13*%
X161896359Y-119635000D02*
X162203641Y-119635000D01*
X161896359Y-120395000D02*
X162203641Y-120395000D01*
%TO.C,D9*%
X150624548Y-116818971D02*
X148645680Y-115676471D01*
X149889548Y-118092029D02*
X150624548Y-116818971D01*
X147910680Y-116949529D02*
X149889548Y-118092029D01*
%TO.C,R6*%
X150240000Y-75921359D02*
X150240000Y-76228641D01*
X149480000Y-75921359D02*
X149480000Y-76228641D01*
%TO.C,R2*%
X155955000Y-75921359D02*
X155955000Y-76228641D01*
X155195000Y-75921359D02*
X155195000Y-76228641D01*
%TO.C,D4*%
X160314975Y-80507503D02*
X162065387Y-81976273D01*
X161259873Y-79381418D02*
X160314975Y-80507503D01*
X163010284Y-80850187D02*
X161259873Y-79381418D01*
%TO.C,R7*%
X131446000Y-75919359D02*
X131446000Y-76226641D01*
X132206000Y-75919359D02*
X132206000Y-76226641D01*
%TO.C,R3*%
X151385000Y-75921359D02*
X151385000Y-76228641D01*
X152145000Y-75921359D02*
X152145000Y-76228641D01*
%TO.C,R5*%
X147700000Y-75921359D02*
X147700000Y-76228641D01*
X146940000Y-75921359D02*
X146940000Y-76228641D01*
%TO.C,R8*%
X145035000Y-75921359D02*
X145035000Y-76228641D01*
X145795000Y-75921359D02*
X145795000Y-76228641D01*
%TO.C,R16*%
X159356359Y-120395000D02*
X159663641Y-120395000D01*
X159356359Y-119635000D02*
X159663641Y-119635000D01*
%TO.C,D3*%
X148576613Y-81976273D02*
X150327025Y-80507503D01*
X149382127Y-79381418D02*
X147631716Y-80850187D01*
X150327025Y-80507503D02*
X149382127Y-79381418D01*
%TO.C,R12*%
X149196359Y-119635000D02*
X149503641Y-119635000D01*
X149196359Y-120395000D02*
X149503641Y-120395000D01*
%TO.C,D7*%
X154586000Y-98845000D02*
X154586000Y-101130000D01*
X156056000Y-98845000D02*
X154586000Y-98845000D01*
X156056000Y-101130000D02*
X156056000Y-98845000D01*
%TO.C,REF\u002A\u002A*%
G36*
X145816897Y-91522862D02*
G01*
X145820565Y-91488208D01*
X145825977Y-91453049D01*
X145833198Y-91417450D01*
X145842298Y-91381476D01*
X145853343Y-91345191D01*
X145866401Y-91308659D01*
X145881539Y-91271946D01*
X145898825Y-91235116D01*
X145917831Y-91199916D01*
X145939341Y-91164926D01*
X145963210Y-91130123D01*
X145989294Y-91095484D01*
X146017447Y-91060987D01*
X146047525Y-91026609D01*
X146079383Y-90992327D01*
X146112875Y-90958118D01*
X146147857Y-90923959D01*
X146184184Y-90889827D01*
X146260291Y-90821555D01*
X146340037Y-90753118D01*
X146422263Y-90684335D01*
X146494408Y-90625244D01*
X146565003Y-90568945D01*
X146633584Y-90515541D01*
X146699688Y-90465139D01*
X146822614Y-90373764D01*
X146930075Y-90295663D01*
X146752341Y-89043710D01*
X146709244Y-88720890D01*
X146671738Y-88397426D01*
X146639871Y-88073405D01*
X146613691Y-87748915D01*
X146593245Y-87424043D01*
X146578582Y-87098876D01*
X146569749Y-86773501D01*
X146566794Y-86448007D01*
X146566794Y-84614022D01*
X146574838Y-84296458D01*
X146598709Y-83983047D01*
X146638018Y-83674178D01*
X146692375Y-83370239D01*
X146761391Y-83071619D01*
X146844677Y-82778707D01*
X146941842Y-82491892D01*
X147052498Y-82211563D01*
X147176254Y-81938108D01*
X147312722Y-81671916D01*
X147461512Y-81413377D01*
X147622233Y-81162878D01*
X147794498Y-80920808D01*
X147977916Y-80687557D01*
X148172097Y-80463513D01*
X148376652Y-80249065D01*
X148591193Y-80044602D01*
X148815328Y-79850512D01*
X149048669Y-79667184D01*
X149290825Y-79495008D01*
X149541409Y-79334371D01*
X149800029Y-79185663D01*
X150066297Y-79049273D01*
X150339823Y-78925589D01*
X150620217Y-78814999D01*
X150907090Y-78717894D01*
X151200053Y-78634661D01*
X151498716Y-78565690D01*
X151802688Y-78511369D01*
X152111582Y-78472087D01*
X152425007Y-78448232D01*
X152742574Y-78440194D01*
X157887105Y-78440198D01*
X158204666Y-78448236D01*
X158518074Y-78472090D01*
X158826941Y-78511373D01*
X159130878Y-78565694D01*
X159429496Y-78634665D01*
X159722407Y-78717898D01*
X160009221Y-78815003D01*
X160289549Y-78925592D01*
X160563003Y-79049277D01*
X160829195Y-79185667D01*
X161087734Y-79334375D01*
X161338234Y-79495012D01*
X161580303Y-79667188D01*
X161813555Y-79850516D01*
X162037599Y-80044605D01*
X162252048Y-80249069D01*
X162456512Y-80463517D01*
X162650603Y-80687561D01*
X162833931Y-80920812D01*
X163006109Y-81162881D01*
X163166746Y-81413380D01*
X163315455Y-81671920D01*
X163451847Y-81938112D01*
X163575532Y-82211567D01*
X163686122Y-82491896D01*
X163783228Y-82778711D01*
X163866462Y-83071623D01*
X163935434Y-83370243D01*
X163989756Y-83674182D01*
X164029038Y-83983051D01*
X164052893Y-84296462D01*
X164060931Y-84614026D01*
X164060931Y-86448011D01*
X164058097Y-86773494D01*
X164049574Y-87098854D01*
X164035333Y-87424006D01*
X164015345Y-87748866D01*
X163989581Y-88073351D01*
X163958012Y-88397377D01*
X163920607Y-88720859D01*
X163877337Y-89043714D01*
X163697650Y-90295667D01*
X163805312Y-90373676D01*
X163928780Y-90464944D01*
X163995214Y-90515323D01*
X164064125Y-90568742D01*
X164135023Y-90625111D01*
X164207415Y-90684339D01*
X164289668Y-90753145D01*
X164369425Y-90821588D01*
X164445531Y-90889855D01*
X164481854Y-90923982D01*
X164516830Y-90958134D01*
X164550316Y-90992337D01*
X164582168Y-91026613D01*
X164612239Y-91060985D01*
X164640387Y-91095478D01*
X164666467Y-91130114D01*
X164690334Y-91164918D01*
X164711844Y-91199912D01*
X164730853Y-91235120D01*
X164748139Y-91271950D01*
X164763276Y-91308663D01*
X164776333Y-91345194D01*
X164787378Y-91381480D01*
X164796477Y-91417454D01*
X164803698Y-91453053D01*
X164809109Y-91488212D01*
X164812777Y-91522866D01*
X164814771Y-91556951D01*
X164815156Y-91590402D01*
X164814002Y-91623155D01*
X164811375Y-91655145D01*
X164807343Y-91686307D01*
X164801974Y-91716577D01*
X164795335Y-91745890D01*
X164787494Y-91774182D01*
X164783148Y-91787947D01*
X164778530Y-91801476D01*
X164773633Y-91814765D01*
X164768453Y-91827811D01*
X164762983Y-91840607D01*
X164757217Y-91853150D01*
X164751150Y-91865435D01*
X164744776Y-91877458D01*
X164738088Y-91889213D01*
X164731082Y-91900697D01*
X164723751Y-91911904D01*
X164716090Y-91922830D01*
X164708093Y-91933471D01*
X164699753Y-91943822D01*
X164691066Y-91953878D01*
X164682025Y-91963636D01*
X164672508Y-91973121D01*
X164662269Y-91982446D01*
X164651335Y-91991510D01*
X164639731Y-92000211D01*
X164627481Y-92008450D01*
X164614612Y-92016126D01*
X164601148Y-92023138D01*
X164587115Y-92029386D01*
X164572539Y-92034770D01*
X164557444Y-92039189D01*
X164541857Y-92042542D01*
X164525802Y-92044729D01*
X164509305Y-92045650D01*
X164492392Y-92045203D01*
X164483786Y-92044436D01*
X164475087Y-92043289D01*
X164466295Y-92041751D01*
X164457415Y-92039807D01*
X164438459Y-92034822D01*
X164420037Y-92029334D01*
X164401554Y-92023226D01*
X164382419Y-92016380D01*
X164362039Y-92008678D01*
X164339820Y-92000002D01*
X164287494Y-91979257D01*
X164154715Y-91926007D01*
X163998431Y-91862069D01*
X163755279Y-91761017D01*
X163512103Y-91658944D01*
X163468413Y-91997128D01*
X163430691Y-92335899D01*
X163399091Y-92675200D01*
X163373765Y-93014976D01*
X163354867Y-93355170D01*
X163342551Y-93695725D01*
X163336969Y-94036585D01*
X163338275Y-94377694D01*
X163482806Y-104877694D01*
X163489860Y-105103711D01*
X163505139Y-105329023D01*
X163528579Y-105553432D01*
X163560118Y-105776741D01*
X163599693Y-105998752D01*
X163647242Y-106219269D01*
X163702701Y-106438094D01*
X163766009Y-106655030D01*
X163834858Y-106892967D01*
X163894636Y-107133103D01*
X163945309Y-107375190D01*
X163986844Y-107618980D01*
X164019207Y-107864225D01*
X164042365Y-108110676D01*
X164056284Y-108358084D01*
X164060931Y-108606202D01*
X164060931Y-113266358D01*
X164054673Y-113513587D01*
X164036100Y-113757584D01*
X164005515Y-113998047D01*
X163963221Y-114234672D01*
X163909521Y-114467157D01*
X163844717Y-114695199D01*
X163769112Y-114918495D01*
X163683009Y-115136743D01*
X163586711Y-115349640D01*
X163480520Y-115556883D01*
X163364740Y-115758169D01*
X163239672Y-115953196D01*
X163105620Y-116141661D01*
X162962886Y-116323260D01*
X162811774Y-116497692D01*
X162652586Y-116664654D01*
X162485625Y-116823842D01*
X162311193Y-116974954D01*
X162129593Y-117117688D01*
X161941128Y-117251740D01*
X161746101Y-117376807D01*
X161544815Y-117492588D01*
X161337572Y-117598779D01*
X161124675Y-117695077D01*
X160906428Y-117781180D01*
X160683131Y-117856785D01*
X160455089Y-117921589D01*
X160222604Y-117975289D01*
X159985979Y-118017583D01*
X159745517Y-118048168D01*
X159501520Y-118066741D01*
X159254291Y-118072999D01*
X151375387Y-118072999D01*
X151128153Y-118066741D01*
X150884141Y-118048168D01*
X150643653Y-118017583D01*
X150406992Y-117975289D01*
X150174464Y-117921589D01*
X149946370Y-117856785D01*
X149723014Y-117781180D01*
X149504701Y-117695077D01*
X149291733Y-117598779D01*
X149084413Y-117492588D01*
X148883046Y-117376808D01*
X148687935Y-117251740D01*
X148499383Y-117117688D01*
X148317694Y-116974955D01*
X148143172Y-116823843D01*
X147976118Y-116664654D01*
X147816839Y-116497693D01*
X147665635Y-116323261D01*
X147522812Y-116141661D01*
X147388673Y-115953197D01*
X147263521Y-115758170D01*
X147147659Y-115556884D01*
X147041392Y-115349641D01*
X146945022Y-115136745D01*
X146858853Y-114918497D01*
X146783189Y-114695201D01*
X146718333Y-114467159D01*
X146664588Y-114234674D01*
X146622259Y-113998049D01*
X146591647Y-113757587D01*
X146573058Y-113513591D01*
X146566794Y-113266362D01*
X146566794Y-108606206D01*
X146571486Y-108358135D01*
X146585530Y-108110767D01*
X146608882Y-107864346D01*
X146641496Y-107619119D01*
X146683327Y-107375329D01*
X146734330Y-107133222D01*
X146794459Y-106893042D01*
X146863669Y-106655034D01*
X146926935Y-106438131D01*
X146982302Y-106219339D01*
X147029738Y-105998852D01*
X147069213Y-105776861D01*
X147100695Y-105553557D01*
X147124153Y-105329133D01*
X147139556Y-105103780D01*
X147146872Y-104877690D01*
X147291403Y-94377690D01*
X147292718Y-94036336D01*
X147287155Y-93695230D01*
X147274862Y-93354428D01*
X147255985Y-93013989D01*
X147230671Y-92673967D01*
X147199067Y-92334422D01*
X147161319Y-91995410D01*
X147117575Y-91656987D01*
X146874456Y-91760004D01*
X146631247Y-91862065D01*
X146474976Y-91926006D01*
X146342185Y-91979253D01*
X146290423Y-91999884D01*
X146268452Y-92008555D01*
X146248304Y-92016275D01*
X146229393Y-92023151D01*
X146211133Y-92029292D01*
X146192936Y-92034807D01*
X146174216Y-92039804D01*
X146165246Y-92041863D01*
X146156366Y-92043505D01*
X146147579Y-92044743D01*
X146138890Y-92045590D01*
X146130301Y-92046059D01*
X146121815Y-92046164D01*
X146113435Y-92045916D01*
X146105164Y-92045330D01*
X146097006Y-92044419D01*
X146088964Y-92043194D01*
X146081040Y-92041671D01*
X146073239Y-92039861D01*
X146065562Y-92037777D01*
X146058014Y-92035433D01*
X146050597Y-92032843D01*
X146043315Y-92030017D01*
X146029167Y-92023717D01*
X146015594Y-92016637D01*
X146002622Y-92008881D01*
X145990276Y-92000555D01*
X145978581Y-91991762D01*
X145967562Y-91982608D01*
X145957245Y-91973196D01*
X145947654Y-91963632D01*
X145938613Y-91953875D01*
X145929926Y-91943819D01*
X145921587Y-91933468D01*
X145913590Y-91922827D01*
X145905929Y-91911901D01*
X145898598Y-91900694D01*
X145891592Y-91889210D01*
X145884904Y-91877455D01*
X145878530Y-91865433D01*
X145872462Y-91853148D01*
X145866696Y-91840605D01*
X145861226Y-91827808D01*
X145856045Y-91814763D01*
X145851149Y-91801473D01*
X145846531Y-91787943D01*
X145842185Y-91774179D01*
X145834342Y-91745887D01*
X145827702Y-91716573D01*
X145822332Y-91686303D01*
X145818300Y-91655141D01*
X145815672Y-91623151D01*
X145814518Y-91590398D01*
X145814540Y-91588478D01*
X146106509Y-91588478D01*
X146107170Y-91607475D01*
X146108654Y-91625708D01*
X146110891Y-91643135D01*
X146113812Y-91659713D01*
X146117348Y-91675398D01*
X146121428Y-91690148D01*
X146122965Y-91695010D01*
X146124515Y-91699531D01*
X146126079Y-91703736D01*
X146127653Y-91707649D01*
X146129238Y-91711297D01*
X146130830Y-91714702D01*
X146132428Y-91717891D01*
X146134031Y-91720888D01*
X146135636Y-91723717D01*
X146137243Y-91726405D01*
X146138850Y-91728975D01*
X146140454Y-91731452D01*
X146146819Y-91740930D01*
X146179818Y-91728951D01*
X146202503Y-91720343D01*
X146234709Y-91707730D01*
X146364925Y-91655704D01*
X146519866Y-91592496D01*
X146862074Y-91449347D01*
X147183928Y-91313199D01*
X147357756Y-91240930D01*
X147400725Y-91529992D01*
X147400725Y-91531991D01*
X147447805Y-91886344D01*
X147487894Y-92241366D01*
X147521006Y-92596986D01*
X147547153Y-92953135D01*
X147566350Y-93309742D01*
X147578608Y-93666735D01*
X147583943Y-94024045D01*
X147582365Y-94381600D01*
X147437834Y-104881600D01*
X147430160Y-105118040D01*
X147413989Y-105353727D01*
X147389365Y-105588465D01*
X147356330Y-105822054D01*
X147314929Y-106054298D01*
X147265205Y-106284998D01*
X147207201Y-106513956D01*
X147140959Y-106740975D01*
X147074850Y-106968417D01*
X147017450Y-107197981D01*
X146968790Y-107429423D01*
X146928905Y-107662498D01*
X146897826Y-107896959D01*
X146875587Y-108132561D01*
X146862219Y-108369060D01*
X146857756Y-108606210D01*
X146857756Y-113266366D01*
X146863632Y-113498922D01*
X146881069Y-113728403D01*
X146909785Y-113954529D01*
X146949497Y-114177016D01*
X146999921Y-114395581D01*
X147060773Y-114609943D01*
X147131771Y-114819818D01*
X147212631Y-115024924D01*
X147303070Y-115224978D01*
X147402805Y-115419698D01*
X147511552Y-115608801D01*
X147629028Y-115792004D01*
X147754949Y-115969025D01*
X147889033Y-116139582D01*
X148030996Y-116303391D01*
X148180554Y-116460171D01*
X148337425Y-116609638D01*
X148501325Y-116751510D01*
X148671971Y-116885504D01*
X148849080Y-117011339D01*
X149032368Y-117128730D01*
X149221551Y-117237396D01*
X149416347Y-117337054D01*
X149616473Y-117427422D01*
X149821644Y-117508216D01*
X150031578Y-117579155D01*
X150245992Y-117639955D01*
X150464601Y-117690334D01*
X150687123Y-117730010D01*
X150913275Y-117758700D01*
X151142773Y-117776121D01*
X151375334Y-117781991D01*
X159254238Y-117781991D01*
X159486793Y-117776121D01*
X159716275Y-117758700D01*
X159942401Y-117730010D01*
X160164888Y-117690334D01*
X160383453Y-117639955D01*
X160597814Y-117579155D01*
X160807689Y-117508216D01*
X161012795Y-117427422D01*
X161212849Y-117337054D01*
X161407569Y-117237396D01*
X161596672Y-117128730D01*
X161779875Y-117011339D01*
X161956896Y-116885504D01*
X162127453Y-116751510D01*
X162291262Y-116609638D01*
X162448042Y-116460171D01*
X162597509Y-116303391D01*
X162739381Y-116139582D01*
X162873375Y-115969025D01*
X162999210Y-115792004D01*
X163116601Y-115608801D01*
X163225267Y-115419698D01*
X163324925Y-115224978D01*
X163415293Y-115024924D01*
X163496087Y-114819818D01*
X163567026Y-114609943D01*
X163627826Y-114395581D01*
X163678205Y-114177016D01*
X163717881Y-113954529D01*
X163746571Y-113728403D01*
X163763992Y-113498922D01*
X163769862Y-113266366D01*
X163769862Y-108606210D01*
X163765367Y-108369108D01*
X163751921Y-108132650D01*
X163729585Y-107897078D01*
X163698419Y-107662633D01*
X163658483Y-107429559D01*
X163609837Y-107198097D01*
X163552543Y-106968488D01*
X163486659Y-106740975D01*
X163420475Y-106513991D01*
X163362607Y-106285068D01*
X163313085Y-106054400D01*
X163271941Y-105822177D01*
X163239204Y-105588593D01*
X163214904Y-105353841D01*
X163199072Y-105118113D01*
X163191737Y-104881600D01*
X163047206Y-94381600D01*
X163045628Y-94024045D01*
X163050961Y-93666734D01*
X163063220Y-93309741D01*
X163082416Y-92953134D01*
X163108564Y-92596985D01*
X163141676Y-92241364D01*
X163181766Y-91886343D01*
X163228846Y-91531991D01*
X163269870Y-91240975D01*
X163443698Y-91313245D01*
X163766523Y-91449423D01*
X164109713Y-91592542D01*
X164264663Y-91655745D01*
X164394870Y-91707776D01*
X164427084Y-91720379D01*
X164449761Y-91728992D01*
X164466965Y-91735297D01*
X164482760Y-91740975D01*
X164489105Y-91731500D01*
X164492310Y-91726453D01*
X164495519Y-91720935D01*
X164497121Y-91717938D01*
X164498720Y-91714748D01*
X164500314Y-91711342D01*
X164501901Y-91707695D01*
X164503479Y-91703781D01*
X164505049Y-91699576D01*
X164506606Y-91695055D01*
X164508151Y-91690194D01*
X164512231Y-91675444D01*
X164515766Y-91659758D01*
X164518687Y-91643181D01*
X164520924Y-91625754D01*
X164522407Y-91607520D01*
X164523068Y-91588523D01*
X164522836Y-91568805D01*
X164521642Y-91548410D01*
X164519415Y-91527378D01*
X164516087Y-91505755D01*
X164511588Y-91483582D01*
X164505849Y-91460903D01*
X164498798Y-91437760D01*
X164490368Y-91414195D01*
X164480488Y-91390253D01*
X164469088Y-91365975D01*
X164471087Y-91365975D01*
X164462041Y-91350146D01*
X164449458Y-91331560D01*
X164433552Y-91310444D01*
X164414539Y-91287025D01*
X164368043Y-91234185D01*
X164311684Y-91174855D01*
X164247173Y-91110851D01*
X164176226Y-91043988D01*
X164100553Y-90976080D01*
X164021869Y-90908944D01*
X163941638Y-90843314D01*
X163861182Y-90779290D01*
X163781996Y-90717738D01*
X163705573Y-90659521D01*
X163566998Y-90556553D01*
X163457416Y-90477304D01*
X163387103Y-90426522D01*
X163588275Y-89002694D01*
X163630897Y-88684970D01*
X163667817Y-88366608D01*
X163699039Y-88047697D01*
X163724571Y-87728326D01*
X163744419Y-87408583D01*
X163758588Y-87088556D01*
X163767085Y-86768335D01*
X163769915Y-86448007D01*
X163769915Y-84614022D01*
X163762266Y-84311133D01*
X163739564Y-84012238D01*
X163702177Y-83717706D01*
X163650474Y-83427906D01*
X163584823Y-83143207D01*
X163505595Y-82863976D01*
X163413156Y-82590583D01*
X163307875Y-82323396D01*
X163190122Y-82062784D01*
X163060265Y-81809116D01*
X162918672Y-81562760D01*
X162765712Y-81324084D01*
X162601754Y-81093458D01*
X162427166Y-80871249D01*
X162242316Y-80657828D01*
X162047575Y-80453561D01*
X161843309Y-80258819D01*
X161629888Y-80073969D01*
X161407680Y-79899380D01*
X161177054Y-79735421D01*
X160938379Y-79582460D01*
X160692022Y-79440866D01*
X160438354Y-79311008D01*
X160177741Y-79193254D01*
X159910554Y-79087973D01*
X159637160Y-78995533D01*
X159357929Y-78916304D01*
X159073228Y-78850653D01*
X158783427Y-78798949D01*
X158488893Y-78761562D01*
X158189996Y-78738859D01*
X157887105Y-78731210D01*
X152742574Y-78731210D01*
X152439677Y-78738859D01*
X152140764Y-78761562D01*
X151846204Y-78798949D01*
X151556367Y-78850653D01*
X151271622Y-78916304D01*
X150992338Y-78995533D01*
X150718885Y-79087973D01*
X150451632Y-79193254D01*
X150190948Y-79311008D01*
X149937203Y-79440866D01*
X149690766Y-79582460D01*
X149452007Y-79735421D01*
X149221294Y-79899380D01*
X148998996Y-80073969D01*
X148785485Y-80258819D01*
X148581127Y-80453561D01*
X148386294Y-80657828D01*
X148201354Y-80871249D01*
X148026677Y-81093458D01*
X147862631Y-81324084D01*
X147709587Y-81562760D01*
X147567913Y-81809116D01*
X147437979Y-82062784D01*
X147320155Y-82323396D01*
X147214809Y-82590583D01*
X147122311Y-82863976D01*
X147043030Y-83143207D01*
X146977335Y-83427906D01*
X146925597Y-83717706D01*
X146888184Y-84012238D01*
X146865465Y-84311133D01*
X146857810Y-84614022D01*
X146857810Y-86448007D01*
X146860675Y-86768323D01*
X146869257Y-87088530D01*
X146883530Y-87408542D01*
X146903472Y-87728273D01*
X146929058Y-88047639D01*
X146960266Y-88366555D01*
X146997071Y-88684935D01*
X147039450Y-89002694D01*
X147242476Y-90426477D01*
X147170207Y-90477258D01*
X147060878Y-90556546D01*
X146922954Y-90659531D01*
X146846893Y-90717747D01*
X146768032Y-90779290D01*
X146687820Y-90843296D01*
X146607707Y-90908898D01*
X146568112Y-90942242D01*
X146529051Y-90976010D01*
X146490740Y-91009974D01*
X146453392Y-91043907D01*
X146417222Y-91077582D01*
X146382445Y-91110771D01*
X146349275Y-91143248D01*
X146317928Y-91174783D01*
X146288616Y-91205151D01*
X146261556Y-91234124D01*
X146236962Y-91261474D01*
X146215048Y-91286975D01*
X146196029Y-91310398D01*
X146180120Y-91331516D01*
X146167534Y-91350103D01*
X146158488Y-91365930D01*
X146160487Y-91365930D01*
X146149088Y-91390207D01*
X146139209Y-91414150D01*
X146130779Y-91437714D01*
X146123729Y-91460857D01*
X146117989Y-91483537D01*
X146113490Y-91505709D01*
X146110162Y-91527333D01*
X146107936Y-91548364D01*
X146106741Y-91568760D01*
X146106509Y-91588478D01*
X145814540Y-91588478D01*
X145814903Y-91556947D01*
X145816897Y-91522862D01*
G37*
%TO.C,R15*%
X154276359Y-120395000D02*
X154583641Y-120395000D01*
X154276359Y-119635000D02*
X154583641Y-119635000D01*
%TO.C,D8*%
X161996320Y-115676471D02*
X160017452Y-116818971D01*
X160017452Y-116818971D02*
X160752452Y-118092029D01*
X160752452Y-118092029D02*
X162731320Y-116949529D01*
%TO.C,D1*%
X150801491Y-80038011D02*
X153008632Y-79446609D01*
X152628168Y-78026698D02*
X150421027Y-78618100D01*
X153008632Y-79446609D02*
X152628168Y-78026698D01*
%TO.C,R1*%
X154685000Y-75921359D02*
X154685000Y-76228641D01*
X153925000Y-75921359D02*
X153925000Y-76228641D01*
%TO.C,R10*%
X141096000Y-76226641D02*
X141096000Y-75919359D01*
X140336000Y-76226641D02*
X140336000Y-75919359D01*
%TO.C,R14*%
X151736359Y-119635000D02*
X152043641Y-119635000D01*
X151736359Y-120395000D02*
X152043641Y-120395000D01*
%TO.C,R9*%
X143765000Y-75921359D02*
X143765000Y-76228641D01*
X144525000Y-75921359D02*
X144525000Y-76228641D01*
%TO.C,D6*%
X165722139Y-90768942D02*
X163574941Y-89987426D01*
X163574941Y-89987426D02*
X163072172Y-91368774D01*
X163072172Y-91368774D02*
X165219369Y-92150290D01*
%TD*%
%LPC*%
%TO.C,REF\u002A\u002A*%
G36*
X142196749Y-114198400D02*
G01*
X142196749Y-120198550D01*
X129590800Y-120198550D01*
X129590800Y-114703809D01*
X130091029Y-114703809D01*
X130091059Y-117299514D01*
X130094335Y-117423089D01*
X130103741Y-117545027D01*
X130119127Y-117665178D01*
X130140344Y-117783391D01*
X130167242Y-117899518D01*
X130199670Y-118013408D01*
X130237479Y-118124911D01*
X130280519Y-118233877D01*
X130328640Y-118340157D01*
X130381693Y-118443600D01*
X130439526Y-118544057D01*
X130501991Y-118641378D01*
X130568937Y-118735412D01*
X130640214Y-118826011D01*
X130715673Y-118913023D01*
X130795164Y-118996300D01*
X130878536Y-119075691D01*
X130965640Y-119151046D01*
X131056326Y-119222216D01*
X131150444Y-119289050D01*
X131247843Y-119351399D01*
X131348375Y-119409113D01*
X131451889Y-119462041D01*
X131558235Y-119510035D01*
X131667264Y-119552943D01*
X131778825Y-119590617D01*
X131892768Y-119622906D01*
X132008944Y-119649661D01*
X132127203Y-119670731D01*
X132247394Y-119685966D01*
X132369369Y-119695218D01*
X132492976Y-119698335D01*
X135085581Y-119698335D01*
X135085581Y-117879323D01*
X135709292Y-117879323D01*
X135968188Y-119692650D01*
X136685458Y-119692650D01*
X136789097Y-119093789D01*
X136823649Y-118886930D01*
X136846690Y-118741804D01*
X136866026Y-118873243D01*
X136886099Y-119001090D01*
X136906908Y-119125344D01*
X136928449Y-119246002D01*
X136950720Y-119363064D01*
X136973716Y-119476527D01*
X136997436Y-119586390D01*
X137021876Y-119692650D01*
X137743281Y-119692650D01*
X137743281Y-119692649D01*
X138269343Y-119692649D01*
X139297702Y-119692649D01*
X139641871Y-119692649D01*
X140220133Y-119692649D01*
X140484713Y-119692649D01*
X141610224Y-119692649D01*
X141610224Y-119329881D01*
X141117747Y-119329881D01*
X141610224Y-118242092D01*
X141610224Y-117879323D01*
X140531741Y-117879323D01*
X140531741Y-118242092D01*
X140989077Y-118242092D01*
X140484713Y-119429616D01*
X140484713Y-119692649D01*
X140220133Y-119692649D01*
X140220133Y-117879323D01*
X139641871Y-117879323D01*
X139641871Y-119692649D01*
X139297702Y-119692649D01*
X139297702Y-119329881D01*
X138847598Y-119329881D01*
X138847598Y-118930939D01*
X139297702Y-118930939D01*
X139297702Y-118586257D01*
X138847598Y-118586257D01*
X138847598Y-118242092D01*
X139297702Y-118242092D01*
X139297702Y-117879323D01*
X138269343Y-117879323D01*
X138269343Y-119692649D01*
X137743281Y-119692649D01*
X138001147Y-117879324D01*
X137439425Y-117879324D01*
X137412410Y-118037169D01*
X137387359Y-118195948D01*
X137364270Y-118355650D01*
X137343142Y-118516264D01*
X137323972Y-118677780D01*
X137306759Y-118840184D01*
X137291500Y-119003468D01*
X137278193Y-119167618D01*
X137214114Y-118477736D01*
X137190997Y-118245854D01*
X137172799Y-118068775D01*
X137159496Y-117946574D01*
X137151065Y-117879323D01*
X136550585Y-117879323D01*
X136520120Y-118067084D01*
X136492670Y-118245650D01*
X136468227Y-118415016D01*
X136446786Y-118575178D01*
X136428339Y-118726132D01*
X136412881Y-118867871D01*
X136400404Y-119000393D01*
X136390902Y-119123692D01*
X136331996Y-118511843D01*
X136271014Y-117879323D01*
X135709292Y-117879323D01*
X135085581Y-117879323D01*
X135085581Y-117656081D01*
X140057345Y-117656081D01*
X141697039Y-117656081D01*
X141697039Y-116932611D01*
X140819575Y-116932611D01*
X140819575Y-114749799D01*
X140057345Y-115512027D01*
X140057345Y-117656081D01*
X135085581Y-117656081D01*
X135085581Y-117656068D01*
X135642626Y-117656068D01*
X136407954Y-117656068D01*
X136407954Y-116609103D01*
X136835314Y-116609103D01*
X136835314Y-117656068D01*
X137597544Y-117656068D01*
X137597544Y-115494443D01*
X137845584Y-115494443D01*
X138462603Y-115494443D01*
X138462603Y-117656068D01*
X139224833Y-117656068D01*
X139224833Y-115494443D01*
X139722476Y-115494443D01*
X140530696Y-114698110D01*
X137845591Y-114698110D01*
X137845584Y-115494443D01*
X137597544Y-115494443D01*
X137597544Y-114698110D01*
X136835314Y-114698110D01*
X136835314Y-115777631D01*
X136407954Y-115777631D01*
X136407954Y-114698110D01*
X135642626Y-114698110D01*
X135642626Y-117656068D01*
X135085581Y-117656068D01*
X135085581Y-115381286D01*
X135082980Y-115378686D01*
X134069606Y-116392577D01*
X134069606Y-118688045D01*
X132490893Y-118688045D01*
X132419233Y-118686235D01*
X132348522Y-118680865D01*
X132278847Y-118672022D01*
X132210294Y-118659792D01*
X132142952Y-118644263D01*
X132076907Y-118625522D01*
X132012245Y-118603656D01*
X131949054Y-118578752D01*
X131887421Y-118550899D01*
X131827432Y-118520181D01*
X131769175Y-118486688D01*
X131712736Y-118450505D01*
X131658203Y-118411721D01*
X131605662Y-118370422D01*
X131555201Y-118326695D01*
X131506906Y-118280629D01*
X131460865Y-118232308D01*
X131417163Y-118181822D01*
X131375889Y-118129257D01*
X131337129Y-118074701D01*
X131300970Y-118018240D01*
X131267500Y-117959961D01*
X131236804Y-117899953D01*
X131208970Y-117838301D01*
X131184085Y-117775093D01*
X131162236Y-117710417D01*
X131143510Y-117644359D01*
X131127993Y-117577007D01*
X131115774Y-117508447D01*
X131106938Y-117438768D01*
X131101572Y-117368056D01*
X131099765Y-117296397D01*
X131099765Y-115716132D01*
X132647471Y-115716132D01*
X132650569Y-115718732D01*
X131879039Y-116497497D01*
X132584422Y-117201846D01*
X134070636Y-115717183D01*
X135085559Y-114703809D01*
X130091029Y-114703809D01*
X129590800Y-114703809D01*
X129590800Y-114198400D01*
X142196749Y-114198400D01*
G37*
G36*
X147965330Y-90045199D02*
G01*
X148197870Y-91365830D01*
X148331966Y-92280718D01*
X148460975Y-93333495D01*
X148572168Y-94500293D01*
X148652815Y-95757241D01*
X148685749Y-96642214D01*
X148708214Y-97670712D01*
X148719369Y-98825127D01*
X148718374Y-100087853D01*
X148718374Y-100087857D01*
X148569625Y-100031295D01*
X148421104Y-99979882D01*
X148124998Y-99884531D01*
X147977537Y-99836605D01*
X147830553Y-99785855D01*
X147684109Y-99730287D01*
X147611109Y-99700074D01*
X147538268Y-99667909D01*
X147571159Y-97530664D01*
X147633951Y-95142495D01*
X147730632Y-92490695D01*
X147865187Y-89562554D01*
X147965330Y-90045199D01*
G37*
G36*
X147610317Y-100005882D02*
G01*
X147684913Y-100025263D01*
X147759402Y-100046526D01*
X147833784Y-100069428D01*
X147982219Y-100119180D01*
X148130209Y-100172576D01*
X148424808Y-100282534D01*
X148571396Y-100335214D01*
X148717497Y-100383771D01*
X148700775Y-101842783D01*
X148667949Y-103321656D01*
X148618118Y-104779952D01*
X148550378Y-106177229D01*
X148463825Y-107473050D01*
X148357556Y-108626974D01*
X148230668Y-109598563D01*
X148159210Y-110003343D01*
X148082259Y-110347375D01*
X147988003Y-109895475D01*
X147892718Y-109257279D01*
X147785357Y-108279078D01*
X147680944Y-106911993D01*
X147594501Y-105107143D01*
X147541051Y-102815647D01*
X147535616Y-99988626D01*
X147610317Y-100005882D01*
G37*
G36*
X161107761Y-113797334D02*
G01*
X161035797Y-113868561D01*
X160942860Y-113950310D01*
X160809301Y-114056341D01*
X160633133Y-114181798D01*
X160528449Y-114250293D01*
X160412367Y-114321823D01*
X160284638Y-114395782D01*
X160145015Y-114471562D01*
X159993247Y-114548556D01*
X159829088Y-114626157D01*
X159652288Y-114703758D01*
X159462599Y-114780752D01*
X159259773Y-114856532D01*
X159043560Y-114930490D01*
X158813712Y-115002021D01*
X158569981Y-115070516D01*
X158312119Y-115135369D01*
X158039876Y-115195973D01*
X157753004Y-115251720D01*
X157451255Y-115302004D01*
X157134379Y-115346217D01*
X156802130Y-115383753D01*
X156454257Y-115414004D01*
X156090513Y-115436364D01*
X155710649Y-115450225D01*
X155314416Y-115454980D01*
X154538475Y-115436364D01*
X153826994Y-115383753D01*
X153177988Y-115302004D01*
X152589468Y-115195973D01*
X152059449Y-115070516D01*
X151585942Y-114930490D01*
X151166961Y-114780752D01*
X150800520Y-114626157D01*
X150484630Y-114471562D01*
X150217306Y-114321823D01*
X149996560Y-114181798D01*
X149820405Y-114056341D01*
X149593921Y-113868561D01*
X149521959Y-113797334D01*
X149521959Y-107793122D01*
X149606822Y-107826966D01*
X149864635Y-107916189D01*
X150059910Y-107975800D01*
X150300238Y-108042333D01*
X150586221Y-108113481D01*
X150918467Y-108186936D01*
X151297579Y-108260392D01*
X151724161Y-108331540D01*
X152198820Y-108398073D01*
X152722159Y-108457684D01*
X153002272Y-108484172D01*
X153294783Y-108508064D01*
X153599766Y-108529072D01*
X153917298Y-108546907D01*
X154247453Y-108561281D01*
X154590307Y-108571905D01*
X154945936Y-108578491D01*
X155314416Y-108580751D01*
X156038681Y-108571905D01*
X156711828Y-108546907D01*
X157334461Y-108508064D01*
X157907187Y-108457684D01*
X158430612Y-108398073D01*
X158905342Y-108331540D01*
X159711143Y-108186936D01*
X160329436Y-108042333D01*
X160765071Y-107916189D01*
X161107761Y-107793122D01*
X161107761Y-113797334D01*
G37*
G36*
X155823283Y-85169792D02*
G01*
X156308322Y-85195239D01*
X156770037Y-85236289D01*
X157208930Y-85291828D01*
X157625504Y-85360741D01*
X158020264Y-85441913D01*
X158393712Y-85534230D01*
X158746351Y-85636577D01*
X159078684Y-85747840D01*
X159391216Y-85866905D01*
X159684448Y-85992657D01*
X159958885Y-86123981D01*
X160215029Y-86259763D01*
X160453384Y-86398888D01*
X160674453Y-86540243D01*
X160878738Y-86682712D01*
X161066745Y-86825181D01*
X161238974Y-86966535D01*
X161395931Y-87105661D01*
X161538118Y-87241443D01*
X161666037Y-87372767D01*
X161780194Y-87498518D01*
X161969228Y-87728846D01*
X162109248Y-87923511D01*
X162204277Y-88073595D01*
X162275470Y-88204362D01*
X161532138Y-94181100D01*
X160988832Y-94075062D01*
X160367711Y-93966372D01*
X159565178Y-93841777D01*
X158619907Y-93717182D01*
X157570572Y-93608492D01*
X156455849Y-93531614D01*
X155886053Y-93510075D01*
X155314412Y-93502454D01*
X154742928Y-93510075D01*
X154173268Y-93531614D01*
X153610269Y-93565083D01*
X153058766Y-93608492D01*
X152523595Y-93659855D01*
X152009590Y-93717182D01*
X151064426Y-93841777D01*
X150261957Y-93966372D01*
X149640870Y-94075062D01*
X149097578Y-94181100D01*
X148353358Y-88204362D01*
X148424587Y-88073595D01*
X148659723Y-87728846D01*
X148848811Y-87498518D01*
X149090942Y-87241443D01*
X149390138Y-86966535D01*
X149750420Y-86682712D01*
X150175810Y-86398888D01*
X150670330Y-86123981D01*
X151238003Y-85866905D01*
X151550528Y-85747840D01*
X151882849Y-85636577D01*
X152235469Y-85534230D01*
X152608891Y-85441913D01*
X153003618Y-85360741D01*
X153420151Y-85291828D01*
X153858995Y-85236289D01*
X154320651Y-85195239D01*
X154805622Y-85169792D01*
X155314412Y-85161061D01*
X155314416Y-85161061D01*
X155823283Y-85169792D01*
G37*
G36*
X163088669Y-102815647D02*
G01*
X163035218Y-105107143D01*
X162948775Y-106911993D01*
X162844361Y-108279078D01*
X162737000Y-109257279D01*
X162641714Y-109895475D01*
X162547458Y-110347375D01*
X162470505Y-110003343D01*
X162399047Y-109598563D01*
X162272159Y-108626974D01*
X162165890Y-107473050D01*
X162079337Y-106177229D01*
X162011597Y-104779952D01*
X161961766Y-103321656D01*
X161928941Y-101842783D01*
X161912219Y-100383771D01*
X162058319Y-100335214D01*
X162204906Y-100282534D01*
X162499505Y-100172576D01*
X162647495Y-100119180D01*
X162795932Y-100069428D01*
X162870314Y-100046526D01*
X162944805Y-100025263D01*
X163019402Y-100005882D01*
X163094104Y-99988626D01*
X163088669Y-102815647D01*
G37*
G36*
X162899081Y-92490695D02*
G01*
X162995763Y-95142495D01*
X163058556Y-97530664D01*
X163091449Y-99667909D01*
X163018461Y-99700074D01*
X162945353Y-99730287D01*
X162798789Y-99785855D01*
X162651789Y-99836605D01*
X162504384Y-99884531D01*
X162208483Y-99979882D01*
X162060049Y-100031295D01*
X161911334Y-100087857D01*
X161911334Y-100087853D01*
X161910337Y-98825127D01*
X161921493Y-97670712D01*
X161943960Y-96642214D01*
X161976901Y-95757241D01*
X162057548Y-94500293D01*
X162168740Y-93333495D01*
X162297747Y-92280718D01*
X162431843Y-91365830D01*
X162664380Y-90045199D01*
X162764522Y-89562554D01*
X162899081Y-92490695D01*
G37*
%TD*%
D13*
%TO.C,SW_high_b1*%
X139600000Y-102061000D03*
X133600000Y-102061000D03*
X139600000Y-98311000D03*
X133600000Y-98311000D03*
%TD*%
%TO.C,SW_dipped_b1*%
X139600000Y-112420000D03*
X133600000Y-112420000D03*
X139600000Y-108670000D03*
X133600000Y-108670000D03*
%TD*%
%TO.C,SW_decel1*%
X129440000Y-112420000D03*
X123440000Y-112420000D03*
X129440000Y-108670000D03*
X123440000Y-108670000D03*
%TD*%
%TO.C,SW_accel1*%
X129440000Y-102061000D03*
X123440000Y-102061000D03*
X129440000Y-98311000D03*
X123440000Y-98311000D03*
%TD*%
%TO.C,SW_stop1*%
X134520000Y-91647000D03*
X128520000Y-91647000D03*
X134520000Y-87897000D03*
X128520000Y-87897000D03*
%TD*%
%TO.C,SW_left1*%
X123440000Y-79769000D03*
X129440000Y-79769000D03*
X123440000Y-83519000D03*
X129440000Y-83519000D03*
%TD*%
%TO.C,SW_right1*%
X133600000Y-79769000D03*
X139600000Y-79769000D03*
X133600000Y-83519000D03*
X139600000Y-83519000D03*
%TD*%
D14*
%TO.C,D5*%
X146663008Y-90916659D03*
X145182992Y-91455341D03*
%TD*%
D15*
%TO.C,R11*%
X156460000Y-120015000D03*
X157480000Y-120015000D03*
%TD*%
D16*
%TO.C,R4*%
X153035000Y-75565000D03*
X153035000Y-76585000D03*
%TD*%
D17*
%TO.C,D2*%
X158497333Y-78917180D03*
X160018667Y-79324820D03*
%TD*%
D15*
%TO.C,R13*%
X161540000Y-120015000D03*
X162560000Y-120015000D03*
%TD*%
D18*
%TO.C,D9*%
X149652995Y-117106750D03*
X148289005Y-116319250D03*
%TD*%
D16*
%TO.C,R6*%
X149860000Y-75565000D03*
X149860000Y-76585000D03*
%TD*%
%TO.C,R2*%
X155575000Y-75565000D03*
X155575000Y-76585000D03*
%TD*%
D19*
%TO.C,D4*%
X161321740Y-80392805D03*
X162528260Y-81405195D03*
%TD*%
D16*
%TO.C,R7*%
X131826000Y-75563000D03*
X131826000Y-76583000D03*
%TD*%
%TO.C,R3*%
X151765000Y-75565000D03*
X151765000Y-76585000D03*
%TD*%
%TO.C,R5*%
X147320000Y-75565000D03*
X147320000Y-76585000D03*
%TD*%
%TO.C,R8*%
X145415000Y-75565000D03*
X145415000Y-76585000D03*
%TD*%
D15*
%TO.C,R16*%
X159000000Y-120015000D03*
X160020000Y-120015000D03*
%TD*%
D20*
%TO.C,D3*%
X149320260Y-80392805D03*
X148113740Y-81405195D03*
%TD*%
D15*
%TO.C,R12*%
X148840000Y-120015000D03*
X149860000Y-120015000D03*
%TD*%
D21*
%TO.C,D7*%
X155321000Y-99542500D03*
X155321000Y-101117500D03*
%TD*%
D15*
%TO.C,R15*%
X153920000Y-120015000D03*
X154940000Y-120015000D03*
%TD*%
D22*
%TO.C,D8*%
X160989005Y-117106750D03*
X162352995Y-116319250D03*
%TD*%
D23*
%TO.C,D1*%
X152144667Y-78917180D03*
X150623333Y-79324820D03*
%TD*%
D16*
%TO.C,R1*%
X154305000Y-75565000D03*
X154305000Y-76585000D03*
%TD*%
D24*
%TO.C,R10*%
X140716000Y-76583000D03*
X140716000Y-75563000D03*
%TD*%
D15*
%TO.C,R14*%
X151380000Y-120015000D03*
X152400000Y-120015000D03*
%TD*%
D16*
%TO.C,R9*%
X144145000Y-75565000D03*
X144145000Y-76585000D03*
%TD*%
D25*
%TO.C,D6*%
X163978992Y-90916659D03*
X165459008Y-91455341D03*
%TD*%
D26*
%TO.C,BZ1*%
X135447000Y-85708000D03*
X127847000Y-85708000D03*
%TD*%
D27*
%TO.C,A1*%
X127000000Y-121920000D03*
D28*
X129540000Y-121920000D03*
X132080000Y-121920000D03*
X134620000Y-121920000D03*
X137160000Y-121920000D03*
X139700000Y-121920000D03*
X142240000Y-121920000D03*
X144780000Y-121920000D03*
X149860000Y-121920000D03*
X152400000Y-121920000D03*
X154940000Y-121920000D03*
X157480000Y-121920000D03*
X160020000Y-121920000D03*
X162560000Y-121920000D03*
X162560000Y-73660000D03*
X160020000Y-73660000D03*
X157480000Y-73660000D03*
X154940000Y-73660000D03*
X152400000Y-73660000D03*
X149860000Y-73660000D03*
X147320000Y-73660000D03*
X144780000Y-73660000D03*
X140720000Y-73660000D03*
X138180000Y-73660000D03*
X135640000Y-73660000D03*
X133100000Y-73660000D03*
X130560000Y-73660000D03*
X128020000Y-73660000D03*
X125480000Y-73660000D03*
X122940000Y-73660000D03*
%TD*%
M02*
