%TF.GenerationSoftware,KiCad,Pcbnew,(6.0.9)*%
%TF.CreationDate,2022-11-30T17:50:51+01:00*%
%TF.ProjectId,car-shield,6361722d-7368-4696-956c-642e6b696361,rev0*%
%TF.SameCoordinates,Original*%
%TF.FileFunction,Other,Comment*%
%FSLAX46Y46*%
G04 Gerber Fmt 4.6, Leading zero omitted, Abs format (unit mm)*
G04 Created by KiCad (PCBNEW (6.0.9)) date 2022-11-30 17:50:51*
%MOMM*%
%LPD*%
G01*
G04 APERTURE LIST*
%ADD10C,0.030000*%
G04 APERTURE END LIST*
D10*
%TO.C,SW_high_b1*%
X132885714Y-100076476D02*
X132885714Y-99876476D01*
X133000000Y-100076476D02*
X132914285Y-99962190D01*
X133000000Y-99876476D02*
X132885714Y-99990761D01*
X133085714Y-99971714D02*
X133152380Y-99971714D01*
X133180952Y-100076476D02*
X133085714Y-100076476D01*
X133085714Y-99876476D01*
X133180952Y-99876476D01*
X133266666Y-99971714D02*
X133333333Y-99971714D01*
X133361904Y-100076476D02*
X133266666Y-100076476D01*
X133266666Y-99876476D01*
X133361904Y-99876476D01*
X133447619Y-100076476D02*
X133447619Y-99876476D01*
X133523809Y-99876476D01*
X133542857Y-99886000D01*
X133552380Y-99895523D01*
X133561904Y-99914571D01*
X133561904Y-99943142D01*
X133552380Y-99962190D01*
X133542857Y-99971714D01*
X133523809Y-99981238D01*
X133447619Y-99981238D01*
X133647619Y-100000285D02*
X133800000Y-100000285D01*
X133933333Y-99876476D02*
X133971428Y-99876476D01*
X133990476Y-99886000D01*
X134009523Y-99905047D01*
X134019047Y-99943142D01*
X134019047Y-100009809D01*
X134009523Y-100047904D01*
X133990476Y-100066952D01*
X133971428Y-100076476D01*
X133933333Y-100076476D01*
X133914285Y-100066952D01*
X133895238Y-100047904D01*
X133885714Y-100009809D01*
X133885714Y-99943142D01*
X133895238Y-99905047D01*
X133914285Y-99886000D01*
X133933333Y-99876476D01*
X134104761Y-99876476D02*
X134104761Y-100038380D01*
X134114285Y-100057428D01*
X134123809Y-100066952D01*
X134142857Y-100076476D01*
X134180952Y-100076476D01*
X134200000Y-100066952D01*
X134209523Y-100057428D01*
X134219047Y-100038380D01*
X134219047Y-99876476D01*
X134285714Y-99876476D02*
X134400000Y-99876476D01*
X134342857Y-100076476D02*
X134342857Y-99876476D01*
X134600000Y-99876476D02*
X134733333Y-99876476D01*
X134600000Y-100076476D01*
X134733333Y-100076476D01*
X134847619Y-99876476D02*
X134885714Y-99876476D01*
X134904761Y-99886000D01*
X134923809Y-99905047D01*
X134933333Y-99943142D01*
X134933333Y-100009809D01*
X134923809Y-100047904D01*
X134904761Y-100066952D01*
X134885714Y-100076476D01*
X134847619Y-100076476D01*
X134828571Y-100066952D01*
X134809523Y-100047904D01*
X134800000Y-100009809D01*
X134800000Y-99943142D01*
X134809523Y-99905047D01*
X134828571Y-99886000D01*
X134847619Y-99876476D01*
X135019047Y-100076476D02*
X135019047Y-99876476D01*
X135133333Y-100076476D01*
X135133333Y-99876476D01*
X135228571Y-99971714D02*
X135295238Y-99971714D01*
X135323809Y-100076476D02*
X135228571Y-100076476D01*
X135228571Y-99876476D01*
X135323809Y-99876476D01*
X137885714Y-100076476D02*
X137885714Y-99876476D01*
X138000000Y-100076476D02*
X137914285Y-99962190D01*
X138000000Y-99876476D02*
X137885714Y-99990761D01*
X138085714Y-99971714D02*
X138152380Y-99971714D01*
X138180952Y-100076476D02*
X138085714Y-100076476D01*
X138085714Y-99876476D01*
X138180952Y-99876476D01*
X138266666Y-99971714D02*
X138333333Y-99971714D01*
X138361904Y-100076476D02*
X138266666Y-100076476D01*
X138266666Y-99876476D01*
X138361904Y-99876476D01*
X138447619Y-100076476D02*
X138447619Y-99876476D01*
X138523809Y-99876476D01*
X138542857Y-99886000D01*
X138552380Y-99895523D01*
X138561904Y-99914571D01*
X138561904Y-99943142D01*
X138552380Y-99962190D01*
X138542857Y-99971714D01*
X138523809Y-99981238D01*
X138447619Y-99981238D01*
X138647619Y-100000285D02*
X138800000Y-100000285D01*
X138933333Y-99876476D02*
X138971428Y-99876476D01*
X138990476Y-99886000D01*
X139009523Y-99905047D01*
X139019047Y-99943142D01*
X139019047Y-100009809D01*
X139009523Y-100047904D01*
X138990476Y-100066952D01*
X138971428Y-100076476D01*
X138933333Y-100076476D01*
X138914285Y-100066952D01*
X138895238Y-100047904D01*
X138885714Y-100009809D01*
X138885714Y-99943142D01*
X138895238Y-99905047D01*
X138914285Y-99886000D01*
X138933333Y-99876476D01*
X139104761Y-99876476D02*
X139104761Y-100038380D01*
X139114285Y-100057428D01*
X139123809Y-100066952D01*
X139142857Y-100076476D01*
X139180952Y-100076476D01*
X139200000Y-100066952D01*
X139209523Y-100057428D01*
X139219047Y-100038380D01*
X139219047Y-99876476D01*
X139285714Y-99876476D02*
X139400000Y-99876476D01*
X139342857Y-100076476D02*
X139342857Y-99876476D01*
X139600000Y-99876476D02*
X139733333Y-99876476D01*
X139600000Y-100076476D01*
X139733333Y-100076476D01*
X139847619Y-99876476D02*
X139885714Y-99876476D01*
X139904761Y-99886000D01*
X139923809Y-99905047D01*
X139933333Y-99943142D01*
X139933333Y-100009809D01*
X139923809Y-100047904D01*
X139904761Y-100066952D01*
X139885714Y-100076476D01*
X139847619Y-100076476D01*
X139828571Y-100066952D01*
X139809523Y-100047904D01*
X139800000Y-100009809D01*
X139800000Y-99943142D01*
X139809523Y-99905047D01*
X139828571Y-99886000D01*
X139847619Y-99876476D01*
X140019047Y-100076476D02*
X140019047Y-99876476D01*
X140133333Y-100076476D01*
X140133333Y-99876476D01*
X140228571Y-99971714D02*
X140295238Y-99971714D01*
X140323809Y-100076476D02*
X140228571Y-100076476D01*
X140228571Y-99876476D01*
X140323809Y-99876476D01*
X138019047Y-100476476D02*
X138019047Y-100276476D01*
X138133333Y-100476476D01*
X138133333Y-100276476D01*
X138257142Y-100476476D02*
X138238095Y-100466952D01*
X138228571Y-100457428D01*
X138219047Y-100438380D01*
X138219047Y-100381238D01*
X138228571Y-100362190D01*
X138238095Y-100352666D01*
X138257142Y-100343142D01*
X138285714Y-100343142D01*
X138304761Y-100352666D01*
X138314285Y-100362190D01*
X138323809Y-100381238D01*
X138323809Y-100438380D01*
X138314285Y-100457428D01*
X138304761Y-100466952D01*
X138285714Y-100476476D01*
X138257142Y-100476476D01*
X138628571Y-100371714D02*
X138561904Y-100371714D01*
X138561904Y-100476476D02*
X138561904Y-100276476D01*
X138657142Y-100276476D01*
X138733333Y-100457428D02*
X138742857Y-100466952D01*
X138733333Y-100476476D01*
X138723809Y-100466952D01*
X138733333Y-100457428D01*
X138733333Y-100476476D01*
X138942857Y-100457428D02*
X138933333Y-100466952D01*
X138904761Y-100476476D01*
X138885714Y-100476476D01*
X138857142Y-100466952D01*
X138838095Y-100447904D01*
X138828571Y-100428857D01*
X138819047Y-100390761D01*
X138819047Y-100362190D01*
X138828571Y-100324095D01*
X138838095Y-100305047D01*
X138857142Y-100286000D01*
X138885714Y-100276476D01*
X138904761Y-100276476D01*
X138933333Y-100286000D01*
X138942857Y-100295523D01*
X139114285Y-100343142D02*
X139114285Y-100476476D01*
X139028571Y-100343142D02*
X139028571Y-100447904D01*
X139038095Y-100466952D01*
X139057142Y-100476476D01*
X139085714Y-100476476D01*
X139104761Y-100466952D01*
X139114285Y-100457428D01*
X139333333Y-100343142D02*
X139409523Y-100343142D01*
X139361904Y-100276476D02*
X139361904Y-100447904D01*
X139371428Y-100466952D01*
X139390476Y-100476476D01*
X139409523Y-100476476D01*
X139476190Y-100476476D02*
X139476190Y-100343142D01*
X139476190Y-100381238D02*
X139485714Y-100362190D01*
X139495238Y-100352666D01*
X139514285Y-100343142D01*
X139533333Y-100343142D01*
X139685714Y-100476476D02*
X139685714Y-100371714D01*
X139676190Y-100352666D01*
X139657142Y-100343142D01*
X139619047Y-100343142D01*
X139600000Y-100352666D01*
X139685714Y-100466952D02*
X139666666Y-100476476D01*
X139619047Y-100476476D01*
X139600000Y-100466952D01*
X139590476Y-100447904D01*
X139590476Y-100428857D01*
X139600000Y-100409809D01*
X139619047Y-100400285D01*
X139666666Y-100400285D01*
X139685714Y-100390761D01*
X139866666Y-100466952D02*
X139847619Y-100476476D01*
X139809523Y-100476476D01*
X139790476Y-100466952D01*
X139780952Y-100457428D01*
X139771428Y-100438380D01*
X139771428Y-100381238D01*
X139780952Y-100362190D01*
X139790476Y-100352666D01*
X139809523Y-100343142D01*
X139847619Y-100343142D01*
X139866666Y-100352666D01*
X139952380Y-100476476D02*
X139952380Y-100276476D01*
X139971428Y-100400285D02*
X140028571Y-100476476D01*
X140028571Y-100343142D02*
X139952380Y-100419333D01*
X140104761Y-100466952D02*
X140123809Y-100476476D01*
X140161904Y-100476476D01*
X140180952Y-100466952D01*
X140190476Y-100447904D01*
X140190476Y-100438380D01*
X140180952Y-100419333D01*
X140161904Y-100409809D01*
X140133333Y-100409809D01*
X140114285Y-100400285D01*
X140104761Y-100381238D01*
X140104761Y-100371714D01*
X140114285Y-100352666D01*
X140133333Y-100343142D01*
X140161904Y-100343142D01*
X140180952Y-100352666D01*
X133019047Y-100476476D02*
X133019047Y-100276476D01*
X133133333Y-100476476D01*
X133133333Y-100276476D01*
X133257142Y-100476476D02*
X133238095Y-100466952D01*
X133228571Y-100457428D01*
X133219047Y-100438380D01*
X133219047Y-100381238D01*
X133228571Y-100362190D01*
X133238095Y-100352666D01*
X133257142Y-100343142D01*
X133285714Y-100343142D01*
X133304761Y-100352666D01*
X133314285Y-100362190D01*
X133323809Y-100381238D01*
X133323809Y-100438380D01*
X133314285Y-100457428D01*
X133304761Y-100466952D01*
X133285714Y-100476476D01*
X133257142Y-100476476D01*
X133628571Y-100371714D02*
X133561904Y-100371714D01*
X133561904Y-100476476D02*
X133561904Y-100276476D01*
X133657142Y-100276476D01*
X133733333Y-100457428D02*
X133742857Y-100466952D01*
X133733333Y-100476476D01*
X133723809Y-100466952D01*
X133733333Y-100457428D01*
X133733333Y-100476476D01*
X133942857Y-100457428D02*
X133933333Y-100466952D01*
X133904761Y-100476476D01*
X133885714Y-100476476D01*
X133857142Y-100466952D01*
X133838095Y-100447904D01*
X133828571Y-100428857D01*
X133819047Y-100390761D01*
X133819047Y-100362190D01*
X133828571Y-100324095D01*
X133838095Y-100305047D01*
X133857142Y-100286000D01*
X133885714Y-100276476D01*
X133904761Y-100276476D01*
X133933333Y-100286000D01*
X133942857Y-100295523D01*
X134114285Y-100343142D02*
X134114285Y-100476476D01*
X134028571Y-100343142D02*
X134028571Y-100447904D01*
X134038095Y-100466952D01*
X134057142Y-100476476D01*
X134085714Y-100476476D01*
X134104761Y-100466952D01*
X134114285Y-100457428D01*
X134333333Y-100343142D02*
X134409523Y-100343142D01*
X134361904Y-100276476D02*
X134361904Y-100447904D01*
X134371428Y-100466952D01*
X134390476Y-100476476D01*
X134409523Y-100476476D01*
X134476190Y-100476476D02*
X134476190Y-100343142D01*
X134476190Y-100381238D02*
X134485714Y-100362190D01*
X134495238Y-100352666D01*
X134514285Y-100343142D01*
X134533333Y-100343142D01*
X134685714Y-100476476D02*
X134685714Y-100371714D01*
X134676190Y-100352666D01*
X134657142Y-100343142D01*
X134619047Y-100343142D01*
X134600000Y-100352666D01*
X134685714Y-100466952D02*
X134666666Y-100476476D01*
X134619047Y-100476476D01*
X134600000Y-100466952D01*
X134590476Y-100447904D01*
X134590476Y-100428857D01*
X134600000Y-100409809D01*
X134619047Y-100400285D01*
X134666666Y-100400285D01*
X134685714Y-100390761D01*
X134866666Y-100466952D02*
X134847619Y-100476476D01*
X134809523Y-100476476D01*
X134790476Y-100466952D01*
X134780952Y-100457428D01*
X134771428Y-100438380D01*
X134771428Y-100381238D01*
X134780952Y-100362190D01*
X134790476Y-100352666D01*
X134809523Y-100343142D01*
X134847619Y-100343142D01*
X134866666Y-100352666D01*
X134952380Y-100476476D02*
X134952380Y-100276476D01*
X134971428Y-100400285D02*
X135028571Y-100476476D01*
X135028571Y-100343142D02*
X134952380Y-100419333D01*
X135104761Y-100466952D02*
X135123809Y-100476476D01*
X135161904Y-100476476D01*
X135180952Y-100466952D01*
X135190476Y-100447904D01*
X135190476Y-100438380D01*
X135180952Y-100419333D01*
X135161904Y-100409809D01*
X135133333Y-100409809D01*
X135114285Y-100400285D01*
X135104761Y-100381238D01*
X135104761Y-100371714D01*
X135114285Y-100352666D01*
X135133333Y-100343142D01*
X135161904Y-100343142D01*
X135180952Y-100352666D01*
%TO.C,SW_dipped_b1*%
X132885714Y-110435476D02*
X132885714Y-110235476D01*
X133000000Y-110435476D02*
X132914285Y-110321190D01*
X133000000Y-110235476D02*
X132885714Y-110349761D01*
X133085714Y-110330714D02*
X133152380Y-110330714D01*
X133180952Y-110435476D02*
X133085714Y-110435476D01*
X133085714Y-110235476D01*
X133180952Y-110235476D01*
X133266666Y-110330714D02*
X133333333Y-110330714D01*
X133361904Y-110435476D02*
X133266666Y-110435476D01*
X133266666Y-110235476D01*
X133361904Y-110235476D01*
X133447619Y-110435476D02*
X133447619Y-110235476D01*
X133523809Y-110235476D01*
X133542857Y-110245000D01*
X133552380Y-110254523D01*
X133561904Y-110273571D01*
X133561904Y-110302142D01*
X133552380Y-110321190D01*
X133542857Y-110330714D01*
X133523809Y-110340238D01*
X133447619Y-110340238D01*
X133647619Y-110359285D02*
X133800000Y-110359285D01*
X133933333Y-110235476D02*
X133971428Y-110235476D01*
X133990476Y-110245000D01*
X134009523Y-110264047D01*
X134019047Y-110302142D01*
X134019047Y-110368809D01*
X134009523Y-110406904D01*
X133990476Y-110425952D01*
X133971428Y-110435476D01*
X133933333Y-110435476D01*
X133914285Y-110425952D01*
X133895238Y-110406904D01*
X133885714Y-110368809D01*
X133885714Y-110302142D01*
X133895238Y-110264047D01*
X133914285Y-110245000D01*
X133933333Y-110235476D01*
X134104761Y-110235476D02*
X134104761Y-110397380D01*
X134114285Y-110416428D01*
X134123809Y-110425952D01*
X134142857Y-110435476D01*
X134180952Y-110435476D01*
X134200000Y-110425952D01*
X134209523Y-110416428D01*
X134219047Y-110397380D01*
X134219047Y-110235476D01*
X134285714Y-110235476D02*
X134400000Y-110235476D01*
X134342857Y-110435476D02*
X134342857Y-110235476D01*
X134600000Y-110235476D02*
X134733333Y-110235476D01*
X134600000Y-110435476D01*
X134733333Y-110435476D01*
X134847619Y-110235476D02*
X134885714Y-110235476D01*
X134904761Y-110245000D01*
X134923809Y-110264047D01*
X134933333Y-110302142D01*
X134933333Y-110368809D01*
X134923809Y-110406904D01*
X134904761Y-110425952D01*
X134885714Y-110435476D01*
X134847619Y-110435476D01*
X134828571Y-110425952D01*
X134809523Y-110406904D01*
X134800000Y-110368809D01*
X134800000Y-110302142D01*
X134809523Y-110264047D01*
X134828571Y-110245000D01*
X134847619Y-110235476D01*
X135019047Y-110435476D02*
X135019047Y-110235476D01*
X135133333Y-110435476D01*
X135133333Y-110235476D01*
X135228571Y-110330714D02*
X135295238Y-110330714D01*
X135323809Y-110435476D02*
X135228571Y-110435476D01*
X135228571Y-110235476D01*
X135323809Y-110235476D01*
X137885714Y-110435476D02*
X137885714Y-110235476D01*
X138000000Y-110435476D02*
X137914285Y-110321190D01*
X138000000Y-110235476D02*
X137885714Y-110349761D01*
X138085714Y-110330714D02*
X138152380Y-110330714D01*
X138180952Y-110435476D02*
X138085714Y-110435476D01*
X138085714Y-110235476D01*
X138180952Y-110235476D01*
X138266666Y-110330714D02*
X138333333Y-110330714D01*
X138361904Y-110435476D02*
X138266666Y-110435476D01*
X138266666Y-110235476D01*
X138361904Y-110235476D01*
X138447619Y-110435476D02*
X138447619Y-110235476D01*
X138523809Y-110235476D01*
X138542857Y-110245000D01*
X138552380Y-110254523D01*
X138561904Y-110273571D01*
X138561904Y-110302142D01*
X138552380Y-110321190D01*
X138542857Y-110330714D01*
X138523809Y-110340238D01*
X138447619Y-110340238D01*
X138647619Y-110359285D02*
X138800000Y-110359285D01*
X138933333Y-110235476D02*
X138971428Y-110235476D01*
X138990476Y-110245000D01*
X139009523Y-110264047D01*
X139019047Y-110302142D01*
X139019047Y-110368809D01*
X139009523Y-110406904D01*
X138990476Y-110425952D01*
X138971428Y-110435476D01*
X138933333Y-110435476D01*
X138914285Y-110425952D01*
X138895238Y-110406904D01*
X138885714Y-110368809D01*
X138885714Y-110302142D01*
X138895238Y-110264047D01*
X138914285Y-110245000D01*
X138933333Y-110235476D01*
X139104761Y-110235476D02*
X139104761Y-110397380D01*
X139114285Y-110416428D01*
X139123809Y-110425952D01*
X139142857Y-110435476D01*
X139180952Y-110435476D01*
X139200000Y-110425952D01*
X139209523Y-110416428D01*
X139219047Y-110397380D01*
X139219047Y-110235476D01*
X139285714Y-110235476D02*
X139400000Y-110235476D01*
X139342857Y-110435476D02*
X139342857Y-110235476D01*
X139600000Y-110235476D02*
X139733333Y-110235476D01*
X139600000Y-110435476D01*
X139733333Y-110435476D01*
X139847619Y-110235476D02*
X139885714Y-110235476D01*
X139904761Y-110245000D01*
X139923809Y-110264047D01*
X139933333Y-110302142D01*
X139933333Y-110368809D01*
X139923809Y-110406904D01*
X139904761Y-110425952D01*
X139885714Y-110435476D01*
X139847619Y-110435476D01*
X139828571Y-110425952D01*
X139809523Y-110406904D01*
X139800000Y-110368809D01*
X139800000Y-110302142D01*
X139809523Y-110264047D01*
X139828571Y-110245000D01*
X139847619Y-110235476D01*
X140019047Y-110435476D02*
X140019047Y-110235476D01*
X140133333Y-110435476D01*
X140133333Y-110235476D01*
X140228571Y-110330714D02*
X140295238Y-110330714D01*
X140323809Y-110435476D02*
X140228571Y-110435476D01*
X140228571Y-110235476D01*
X140323809Y-110235476D01*
X138019047Y-110835476D02*
X138019047Y-110635476D01*
X138133333Y-110835476D01*
X138133333Y-110635476D01*
X138257142Y-110835476D02*
X138238095Y-110825952D01*
X138228571Y-110816428D01*
X138219047Y-110797380D01*
X138219047Y-110740238D01*
X138228571Y-110721190D01*
X138238095Y-110711666D01*
X138257142Y-110702142D01*
X138285714Y-110702142D01*
X138304761Y-110711666D01*
X138314285Y-110721190D01*
X138323809Y-110740238D01*
X138323809Y-110797380D01*
X138314285Y-110816428D01*
X138304761Y-110825952D01*
X138285714Y-110835476D01*
X138257142Y-110835476D01*
X138628571Y-110730714D02*
X138561904Y-110730714D01*
X138561904Y-110835476D02*
X138561904Y-110635476D01*
X138657142Y-110635476D01*
X138733333Y-110816428D02*
X138742857Y-110825952D01*
X138733333Y-110835476D01*
X138723809Y-110825952D01*
X138733333Y-110816428D01*
X138733333Y-110835476D01*
X138942857Y-110816428D02*
X138933333Y-110825952D01*
X138904761Y-110835476D01*
X138885714Y-110835476D01*
X138857142Y-110825952D01*
X138838095Y-110806904D01*
X138828571Y-110787857D01*
X138819047Y-110749761D01*
X138819047Y-110721190D01*
X138828571Y-110683095D01*
X138838095Y-110664047D01*
X138857142Y-110645000D01*
X138885714Y-110635476D01*
X138904761Y-110635476D01*
X138933333Y-110645000D01*
X138942857Y-110654523D01*
X139114285Y-110702142D02*
X139114285Y-110835476D01*
X139028571Y-110702142D02*
X139028571Y-110806904D01*
X139038095Y-110825952D01*
X139057142Y-110835476D01*
X139085714Y-110835476D01*
X139104761Y-110825952D01*
X139114285Y-110816428D01*
X139333333Y-110702142D02*
X139409523Y-110702142D01*
X139361904Y-110635476D02*
X139361904Y-110806904D01*
X139371428Y-110825952D01*
X139390476Y-110835476D01*
X139409523Y-110835476D01*
X139476190Y-110835476D02*
X139476190Y-110702142D01*
X139476190Y-110740238D02*
X139485714Y-110721190D01*
X139495238Y-110711666D01*
X139514285Y-110702142D01*
X139533333Y-110702142D01*
X139685714Y-110835476D02*
X139685714Y-110730714D01*
X139676190Y-110711666D01*
X139657142Y-110702142D01*
X139619047Y-110702142D01*
X139600000Y-110711666D01*
X139685714Y-110825952D02*
X139666666Y-110835476D01*
X139619047Y-110835476D01*
X139600000Y-110825952D01*
X139590476Y-110806904D01*
X139590476Y-110787857D01*
X139600000Y-110768809D01*
X139619047Y-110759285D01*
X139666666Y-110759285D01*
X139685714Y-110749761D01*
X139866666Y-110825952D02*
X139847619Y-110835476D01*
X139809523Y-110835476D01*
X139790476Y-110825952D01*
X139780952Y-110816428D01*
X139771428Y-110797380D01*
X139771428Y-110740238D01*
X139780952Y-110721190D01*
X139790476Y-110711666D01*
X139809523Y-110702142D01*
X139847619Y-110702142D01*
X139866666Y-110711666D01*
X139952380Y-110835476D02*
X139952380Y-110635476D01*
X139971428Y-110759285D02*
X140028571Y-110835476D01*
X140028571Y-110702142D02*
X139952380Y-110778333D01*
X140104761Y-110825952D02*
X140123809Y-110835476D01*
X140161904Y-110835476D01*
X140180952Y-110825952D01*
X140190476Y-110806904D01*
X140190476Y-110797380D01*
X140180952Y-110778333D01*
X140161904Y-110768809D01*
X140133333Y-110768809D01*
X140114285Y-110759285D01*
X140104761Y-110740238D01*
X140104761Y-110730714D01*
X140114285Y-110711666D01*
X140133333Y-110702142D01*
X140161904Y-110702142D01*
X140180952Y-110711666D01*
X133019047Y-110835476D02*
X133019047Y-110635476D01*
X133133333Y-110835476D01*
X133133333Y-110635476D01*
X133257142Y-110835476D02*
X133238095Y-110825952D01*
X133228571Y-110816428D01*
X133219047Y-110797380D01*
X133219047Y-110740238D01*
X133228571Y-110721190D01*
X133238095Y-110711666D01*
X133257142Y-110702142D01*
X133285714Y-110702142D01*
X133304761Y-110711666D01*
X133314285Y-110721190D01*
X133323809Y-110740238D01*
X133323809Y-110797380D01*
X133314285Y-110816428D01*
X133304761Y-110825952D01*
X133285714Y-110835476D01*
X133257142Y-110835476D01*
X133628571Y-110730714D02*
X133561904Y-110730714D01*
X133561904Y-110835476D02*
X133561904Y-110635476D01*
X133657142Y-110635476D01*
X133733333Y-110816428D02*
X133742857Y-110825952D01*
X133733333Y-110835476D01*
X133723809Y-110825952D01*
X133733333Y-110816428D01*
X133733333Y-110835476D01*
X133942857Y-110816428D02*
X133933333Y-110825952D01*
X133904761Y-110835476D01*
X133885714Y-110835476D01*
X133857142Y-110825952D01*
X133838095Y-110806904D01*
X133828571Y-110787857D01*
X133819047Y-110749761D01*
X133819047Y-110721190D01*
X133828571Y-110683095D01*
X133838095Y-110664047D01*
X133857142Y-110645000D01*
X133885714Y-110635476D01*
X133904761Y-110635476D01*
X133933333Y-110645000D01*
X133942857Y-110654523D01*
X134114285Y-110702142D02*
X134114285Y-110835476D01*
X134028571Y-110702142D02*
X134028571Y-110806904D01*
X134038095Y-110825952D01*
X134057142Y-110835476D01*
X134085714Y-110835476D01*
X134104761Y-110825952D01*
X134114285Y-110816428D01*
X134333333Y-110702142D02*
X134409523Y-110702142D01*
X134361904Y-110635476D02*
X134361904Y-110806904D01*
X134371428Y-110825952D01*
X134390476Y-110835476D01*
X134409523Y-110835476D01*
X134476190Y-110835476D02*
X134476190Y-110702142D01*
X134476190Y-110740238D02*
X134485714Y-110721190D01*
X134495238Y-110711666D01*
X134514285Y-110702142D01*
X134533333Y-110702142D01*
X134685714Y-110835476D02*
X134685714Y-110730714D01*
X134676190Y-110711666D01*
X134657142Y-110702142D01*
X134619047Y-110702142D01*
X134600000Y-110711666D01*
X134685714Y-110825952D02*
X134666666Y-110835476D01*
X134619047Y-110835476D01*
X134600000Y-110825952D01*
X134590476Y-110806904D01*
X134590476Y-110787857D01*
X134600000Y-110768809D01*
X134619047Y-110759285D01*
X134666666Y-110759285D01*
X134685714Y-110749761D01*
X134866666Y-110825952D02*
X134847619Y-110835476D01*
X134809523Y-110835476D01*
X134790476Y-110825952D01*
X134780952Y-110816428D01*
X134771428Y-110797380D01*
X134771428Y-110740238D01*
X134780952Y-110721190D01*
X134790476Y-110711666D01*
X134809523Y-110702142D01*
X134847619Y-110702142D01*
X134866666Y-110711666D01*
X134952380Y-110835476D02*
X134952380Y-110635476D01*
X134971428Y-110759285D02*
X135028571Y-110835476D01*
X135028571Y-110702142D02*
X134952380Y-110778333D01*
X135104761Y-110825952D02*
X135123809Y-110835476D01*
X135161904Y-110835476D01*
X135180952Y-110825952D01*
X135190476Y-110806904D01*
X135190476Y-110797380D01*
X135180952Y-110778333D01*
X135161904Y-110768809D01*
X135133333Y-110768809D01*
X135114285Y-110759285D01*
X135104761Y-110740238D01*
X135104761Y-110730714D01*
X135114285Y-110711666D01*
X135133333Y-110702142D01*
X135161904Y-110702142D01*
X135180952Y-110711666D01*
%TO.C,SW_decel1*%
X122725714Y-110435476D02*
X122725714Y-110235476D01*
X122840000Y-110435476D02*
X122754285Y-110321190D01*
X122840000Y-110235476D02*
X122725714Y-110349761D01*
X122925714Y-110330714D02*
X122992380Y-110330714D01*
X123020952Y-110435476D02*
X122925714Y-110435476D01*
X122925714Y-110235476D01*
X123020952Y-110235476D01*
X123106666Y-110330714D02*
X123173333Y-110330714D01*
X123201904Y-110435476D02*
X123106666Y-110435476D01*
X123106666Y-110235476D01*
X123201904Y-110235476D01*
X123287619Y-110435476D02*
X123287619Y-110235476D01*
X123363809Y-110235476D01*
X123382857Y-110245000D01*
X123392380Y-110254523D01*
X123401904Y-110273571D01*
X123401904Y-110302142D01*
X123392380Y-110321190D01*
X123382857Y-110330714D01*
X123363809Y-110340238D01*
X123287619Y-110340238D01*
X123487619Y-110359285D02*
X123640000Y-110359285D01*
X123773333Y-110235476D02*
X123811428Y-110235476D01*
X123830476Y-110245000D01*
X123849523Y-110264047D01*
X123859047Y-110302142D01*
X123859047Y-110368809D01*
X123849523Y-110406904D01*
X123830476Y-110425952D01*
X123811428Y-110435476D01*
X123773333Y-110435476D01*
X123754285Y-110425952D01*
X123735238Y-110406904D01*
X123725714Y-110368809D01*
X123725714Y-110302142D01*
X123735238Y-110264047D01*
X123754285Y-110245000D01*
X123773333Y-110235476D01*
X123944761Y-110235476D02*
X123944761Y-110397380D01*
X123954285Y-110416428D01*
X123963809Y-110425952D01*
X123982857Y-110435476D01*
X124020952Y-110435476D01*
X124040000Y-110425952D01*
X124049523Y-110416428D01*
X124059047Y-110397380D01*
X124059047Y-110235476D01*
X124125714Y-110235476D02*
X124240000Y-110235476D01*
X124182857Y-110435476D02*
X124182857Y-110235476D01*
X124440000Y-110235476D02*
X124573333Y-110235476D01*
X124440000Y-110435476D01*
X124573333Y-110435476D01*
X124687619Y-110235476D02*
X124725714Y-110235476D01*
X124744761Y-110245000D01*
X124763809Y-110264047D01*
X124773333Y-110302142D01*
X124773333Y-110368809D01*
X124763809Y-110406904D01*
X124744761Y-110425952D01*
X124725714Y-110435476D01*
X124687619Y-110435476D01*
X124668571Y-110425952D01*
X124649523Y-110406904D01*
X124640000Y-110368809D01*
X124640000Y-110302142D01*
X124649523Y-110264047D01*
X124668571Y-110245000D01*
X124687619Y-110235476D01*
X124859047Y-110435476D02*
X124859047Y-110235476D01*
X124973333Y-110435476D01*
X124973333Y-110235476D01*
X125068571Y-110330714D02*
X125135238Y-110330714D01*
X125163809Y-110435476D02*
X125068571Y-110435476D01*
X125068571Y-110235476D01*
X125163809Y-110235476D01*
X127725714Y-110435476D02*
X127725714Y-110235476D01*
X127840000Y-110435476D02*
X127754285Y-110321190D01*
X127840000Y-110235476D02*
X127725714Y-110349761D01*
X127925714Y-110330714D02*
X127992380Y-110330714D01*
X128020952Y-110435476D02*
X127925714Y-110435476D01*
X127925714Y-110235476D01*
X128020952Y-110235476D01*
X128106666Y-110330714D02*
X128173333Y-110330714D01*
X128201904Y-110435476D02*
X128106666Y-110435476D01*
X128106666Y-110235476D01*
X128201904Y-110235476D01*
X128287619Y-110435476D02*
X128287619Y-110235476D01*
X128363809Y-110235476D01*
X128382857Y-110245000D01*
X128392380Y-110254523D01*
X128401904Y-110273571D01*
X128401904Y-110302142D01*
X128392380Y-110321190D01*
X128382857Y-110330714D01*
X128363809Y-110340238D01*
X128287619Y-110340238D01*
X128487619Y-110359285D02*
X128640000Y-110359285D01*
X128773333Y-110235476D02*
X128811428Y-110235476D01*
X128830476Y-110245000D01*
X128849523Y-110264047D01*
X128859047Y-110302142D01*
X128859047Y-110368809D01*
X128849523Y-110406904D01*
X128830476Y-110425952D01*
X128811428Y-110435476D01*
X128773333Y-110435476D01*
X128754285Y-110425952D01*
X128735238Y-110406904D01*
X128725714Y-110368809D01*
X128725714Y-110302142D01*
X128735238Y-110264047D01*
X128754285Y-110245000D01*
X128773333Y-110235476D01*
X128944761Y-110235476D02*
X128944761Y-110397380D01*
X128954285Y-110416428D01*
X128963809Y-110425952D01*
X128982857Y-110435476D01*
X129020952Y-110435476D01*
X129040000Y-110425952D01*
X129049523Y-110416428D01*
X129059047Y-110397380D01*
X129059047Y-110235476D01*
X129125714Y-110235476D02*
X129240000Y-110235476D01*
X129182857Y-110435476D02*
X129182857Y-110235476D01*
X129440000Y-110235476D02*
X129573333Y-110235476D01*
X129440000Y-110435476D01*
X129573333Y-110435476D01*
X129687619Y-110235476D02*
X129725714Y-110235476D01*
X129744761Y-110245000D01*
X129763809Y-110264047D01*
X129773333Y-110302142D01*
X129773333Y-110368809D01*
X129763809Y-110406904D01*
X129744761Y-110425952D01*
X129725714Y-110435476D01*
X129687619Y-110435476D01*
X129668571Y-110425952D01*
X129649523Y-110406904D01*
X129640000Y-110368809D01*
X129640000Y-110302142D01*
X129649523Y-110264047D01*
X129668571Y-110245000D01*
X129687619Y-110235476D01*
X129859047Y-110435476D02*
X129859047Y-110235476D01*
X129973333Y-110435476D01*
X129973333Y-110235476D01*
X130068571Y-110330714D02*
X130135238Y-110330714D01*
X130163809Y-110435476D02*
X130068571Y-110435476D01*
X130068571Y-110235476D01*
X130163809Y-110235476D01*
X127859047Y-110835476D02*
X127859047Y-110635476D01*
X127973333Y-110835476D01*
X127973333Y-110635476D01*
X128097142Y-110835476D02*
X128078095Y-110825952D01*
X128068571Y-110816428D01*
X128059047Y-110797380D01*
X128059047Y-110740238D01*
X128068571Y-110721190D01*
X128078095Y-110711666D01*
X128097142Y-110702142D01*
X128125714Y-110702142D01*
X128144761Y-110711666D01*
X128154285Y-110721190D01*
X128163809Y-110740238D01*
X128163809Y-110797380D01*
X128154285Y-110816428D01*
X128144761Y-110825952D01*
X128125714Y-110835476D01*
X128097142Y-110835476D01*
X128468571Y-110730714D02*
X128401904Y-110730714D01*
X128401904Y-110835476D02*
X128401904Y-110635476D01*
X128497142Y-110635476D01*
X128573333Y-110816428D02*
X128582857Y-110825952D01*
X128573333Y-110835476D01*
X128563809Y-110825952D01*
X128573333Y-110816428D01*
X128573333Y-110835476D01*
X128782857Y-110816428D02*
X128773333Y-110825952D01*
X128744761Y-110835476D01*
X128725714Y-110835476D01*
X128697142Y-110825952D01*
X128678095Y-110806904D01*
X128668571Y-110787857D01*
X128659047Y-110749761D01*
X128659047Y-110721190D01*
X128668571Y-110683095D01*
X128678095Y-110664047D01*
X128697142Y-110645000D01*
X128725714Y-110635476D01*
X128744761Y-110635476D01*
X128773333Y-110645000D01*
X128782857Y-110654523D01*
X128954285Y-110702142D02*
X128954285Y-110835476D01*
X128868571Y-110702142D02*
X128868571Y-110806904D01*
X128878095Y-110825952D01*
X128897142Y-110835476D01*
X128925714Y-110835476D01*
X128944761Y-110825952D01*
X128954285Y-110816428D01*
X129173333Y-110702142D02*
X129249523Y-110702142D01*
X129201904Y-110635476D02*
X129201904Y-110806904D01*
X129211428Y-110825952D01*
X129230476Y-110835476D01*
X129249523Y-110835476D01*
X129316190Y-110835476D02*
X129316190Y-110702142D01*
X129316190Y-110740238D02*
X129325714Y-110721190D01*
X129335238Y-110711666D01*
X129354285Y-110702142D01*
X129373333Y-110702142D01*
X129525714Y-110835476D02*
X129525714Y-110730714D01*
X129516190Y-110711666D01*
X129497142Y-110702142D01*
X129459047Y-110702142D01*
X129440000Y-110711666D01*
X129525714Y-110825952D02*
X129506666Y-110835476D01*
X129459047Y-110835476D01*
X129440000Y-110825952D01*
X129430476Y-110806904D01*
X129430476Y-110787857D01*
X129440000Y-110768809D01*
X129459047Y-110759285D01*
X129506666Y-110759285D01*
X129525714Y-110749761D01*
X129706666Y-110825952D02*
X129687619Y-110835476D01*
X129649523Y-110835476D01*
X129630476Y-110825952D01*
X129620952Y-110816428D01*
X129611428Y-110797380D01*
X129611428Y-110740238D01*
X129620952Y-110721190D01*
X129630476Y-110711666D01*
X129649523Y-110702142D01*
X129687619Y-110702142D01*
X129706666Y-110711666D01*
X129792380Y-110835476D02*
X129792380Y-110635476D01*
X129811428Y-110759285D02*
X129868571Y-110835476D01*
X129868571Y-110702142D02*
X129792380Y-110778333D01*
X129944761Y-110825952D02*
X129963809Y-110835476D01*
X130001904Y-110835476D01*
X130020952Y-110825952D01*
X130030476Y-110806904D01*
X130030476Y-110797380D01*
X130020952Y-110778333D01*
X130001904Y-110768809D01*
X129973333Y-110768809D01*
X129954285Y-110759285D01*
X129944761Y-110740238D01*
X129944761Y-110730714D01*
X129954285Y-110711666D01*
X129973333Y-110702142D01*
X130001904Y-110702142D01*
X130020952Y-110711666D01*
X122859047Y-110835476D02*
X122859047Y-110635476D01*
X122973333Y-110835476D01*
X122973333Y-110635476D01*
X123097142Y-110835476D02*
X123078095Y-110825952D01*
X123068571Y-110816428D01*
X123059047Y-110797380D01*
X123059047Y-110740238D01*
X123068571Y-110721190D01*
X123078095Y-110711666D01*
X123097142Y-110702142D01*
X123125714Y-110702142D01*
X123144761Y-110711666D01*
X123154285Y-110721190D01*
X123163809Y-110740238D01*
X123163809Y-110797380D01*
X123154285Y-110816428D01*
X123144761Y-110825952D01*
X123125714Y-110835476D01*
X123097142Y-110835476D01*
X123468571Y-110730714D02*
X123401904Y-110730714D01*
X123401904Y-110835476D02*
X123401904Y-110635476D01*
X123497142Y-110635476D01*
X123573333Y-110816428D02*
X123582857Y-110825952D01*
X123573333Y-110835476D01*
X123563809Y-110825952D01*
X123573333Y-110816428D01*
X123573333Y-110835476D01*
X123782857Y-110816428D02*
X123773333Y-110825952D01*
X123744761Y-110835476D01*
X123725714Y-110835476D01*
X123697142Y-110825952D01*
X123678095Y-110806904D01*
X123668571Y-110787857D01*
X123659047Y-110749761D01*
X123659047Y-110721190D01*
X123668571Y-110683095D01*
X123678095Y-110664047D01*
X123697142Y-110645000D01*
X123725714Y-110635476D01*
X123744761Y-110635476D01*
X123773333Y-110645000D01*
X123782857Y-110654523D01*
X123954285Y-110702142D02*
X123954285Y-110835476D01*
X123868571Y-110702142D02*
X123868571Y-110806904D01*
X123878095Y-110825952D01*
X123897142Y-110835476D01*
X123925714Y-110835476D01*
X123944761Y-110825952D01*
X123954285Y-110816428D01*
X124173333Y-110702142D02*
X124249523Y-110702142D01*
X124201904Y-110635476D02*
X124201904Y-110806904D01*
X124211428Y-110825952D01*
X124230476Y-110835476D01*
X124249523Y-110835476D01*
X124316190Y-110835476D02*
X124316190Y-110702142D01*
X124316190Y-110740238D02*
X124325714Y-110721190D01*
X124335238Y-110711666D01*
X124354285Y-110702142D01*
X124373333Y-110702142D01*
X124525714Y-110835476D02*
X124525714Y-110730714D01*
X124516190Y-110711666D01*
X124497142Y-110702142D01*
X124459047Y-110702142D01*
X124440000Y-110711666D01*
X124525714Y-110825952D02*
X124506666Y-110835476D01*
X124459047Y-110835476D01*
X124440000Y-110825952D01*
X124430476Y-110806904D01*
X124430476Y-110787857D01*
X124440000Y-110768809D01*
X124459047Y-110759285D01*
X124506666Y-110759285D01*
X124525714Y-110749761D01*
X124706666Y-110825952D02*
X124687619Y-110835476D01*
X124649523Y-110835476D01*
X124630476Y-110825952D01*
X124620952Y-110816428D01*
X124611428Y-110797380D01*
X124611428Y-110740238D01*
X124620952Y-110721190D01*
X124630476Y-110711666D01*
X124649523Y-110702142D01*
X124687619Y-110702142D01*
X124706666Y-110711666D01*
X124792380Y-110835476D02*
X124792380Y-110635476D01*
X124811428Y-110759285D02*
X124868571Y-110835476D01*
X124868571Y-110702142D02*
X124792380Y-110778333D01*
X124944761Y-110825952D02*
X124963809Y-110835476D01*
X125001904Y-110835476D01*
X125020952Y-110825952D01*
X125030476Y-110806904D01*
X125030476Y-110797380D01*
X125020952Y-110778333D01*
X125001904Y-110768809D01*
X124973333Y-110768809D01*
X124954285Y-110759285D01*
X124944761Y-110740238D01*
X124944761Y-110730714D01*
X124954285Y-110711666D01*
X124973333Y-110702142D01*
X125001904Y-110702142D01*
X125020952Y-110711666D01*
%TO.C,SW_accel1*%
X122725714Y-100076476D02*
X122725714Y-99876476D01*
X122840000Y-100076476D02*
X122754285Y-99962190D01*
X122840000Y-99876476D02*
X122725714Y-99990761D01*
X122925714Y-99971714D02*
X122992380Y-99971714D01*
X123020952Y-100076476D02*
X122925714Y-100076476D01*
X122925714Y-99876476D01*
X123020952Y-99876476D01*
X123106666Y-99971714D02*
X123173333Y-99971714D01*
X123201904Y-100076476D02*
X123106666Y-100076476D01*
X123106666Y-99876476D01*
X123201904Y-99876476D01*
X123287619Y-100076476D02*
X123287619Y-99876476D01*
X123363809Y-99876476D01*
X123382857Y-99886000D01*
X123392380Y-99895523D01*
X123401904Y-99914571D01*
X123401904Y-99943142D01*
X123392380Y-99962190D01*
X123382857Y-99971714D01*
X123363809Y-99981238D01*
X123287619Y-99981238D01*
X123487619Y-100000285D02*
X123640000Y-100000285D01*
X123773333Y-99876476D02*
X123811428Y-99876476D01*
X123830476Y-99886000D01*
X123849523Y-99905047D01*
X123859047Y-99943142D01*
X123859047Y-100009809D01*
X123849523Y-100047904D01*
X123830476Y-100066952D01*
X123811428Y-100076476D01*
X123773333Y-100076476D01*
X123754285Y-100066952D01*
X123735238Y-100047904D01*
X123725714Y-100009809D01*
X123725714Y-99943142D01*
X123735238Y-99905047D01*
X123754285Y-99886000D01*
X123773333Y-99876476D01*
X123944761Y-99876476D02*
X123944761Y-100038380D01*
X123954285Y-100057428D01*
X123963809Y-100066952D01*
X123982857Y-100076476D01*
X124020952Y-100076476D01*
X124040000Y-100066952D01*
X124049523Y-100057428D01*
X124059047Y-100038380D01*
X124059047Y-99876476D01*
X124125714Y-99876476D02*
X124240000Y-99876476D01*
X124182857Y-100076476D02*
X124182857Y-99876476D01*
X124440000Y-99876476D02*
X124573333Y-99876476D01*
X124440000Y-100076476D01*
X124573333Y-100076476D01*
X124687619Y-99876476D02*
X124725714Y-99876476D01*
X124744761Y-99886000D01*
X124763809Y-99905047D01*
X124773333Y-99943142D01*
X124773333Y-100009809D01*
X124763809Y-100047904D01*
X124744761Y-100066952D01*
X124725714Y-100076476D01*
X124687619Y-100076476D01*
X124668571Y-100066952D01*
X124649523Y-100047904D01*
X124640000Y-100009809D01*
X124640000Y-99943142D01*
X124649523Y-99905047D01*
X124668571Y-99886000D01*
X124687619Y-99876476D01*
X124859047Y-100076476D02*
X124859047Y-99876476D01*
X124973333Y-100076476D01*
X124973333Y-99876476D01*
X125068571Y-99971714D02*
X125135238Y-99971714D01*
X125163809Y-100076476D02*
X125068571Y-100076476D01*
X125068571Y-99876476D01*
X125163809Y-99876476D01*
X127725714Y-100076476D02*
X127725714Y-99876476D01*
X127840000Y-100076476D02*
X127754285Y-99962190D01*
X127840000Y-99876476D02*
X127725714Y-99990761D01*
X127925714Y-99971714D02*
X127992380Y-99971714D01*
X128020952Y-100076476D02*
X127925714Y-100076476D01*
X127925714Y-99876476D01*
X128020952Y-99876476D01*
X128106666Y-99971714D02*
X128173333Y-99971714D01*
X128201904Y-100076476D02*
X128106666Y-100076476D01*
X128106666Y-99876476D01*
X128201904Y-99876476D01*
X128287619Y-100076476D02*
X128287619Y-99876476D01*
X128363809Y-99876476D01*
X128382857Y-99886000D01*
X128392380Y-99895523D01*
X128401904Y-99914571D01*
X128401904Y-99943142D01*
X128392380Y-99962190D01*
X128382857Y-99971714D01*
X128363809Y-99981238D01*
X128287619Y-99981238D01*
X128487619Y-100000285D02*
X128640000Y-100000285D01*
X128773333Y-99876476D02*
X128811428Y-99876476D01*
X128830476Y-99886000D01*
X128849523Y-99905047D01*
X128859047Y-99943142D01*
X128859047Y-100009809D01*
X128849523Y-100047904D01*
X128830476Y-100066952D01*
X128811428Y-100076476D01*
X128773333Y-100076476D01*
X128754285Y-100066952D01*
X128735238Y-100047904D01*
X128725714Y-100009809D01*
X128725714Y-99943142D01*
X128735238Y-99905047D01*
X128754285Y-99886000D01*
X128773333Y-99876476D01*
X128944761Y-99876476D02*
X128944761Y-100038380D01*
X128954285Y-100057428D01*
X128963809Y-100066952D01*
X128982857Y-100076476D01*
X129020952Y-100076476D01*
X129040000Y-100066952D01*
X129049523Y-100057428D01*
X129059047Y-100038380D01*
X129059047Y-99876476D01*
X129125714Y-99876476D02*
X129240000Y-99876476D01*
X129182857Y-100076476D02*
X129182857Y-99876476D01*
X129440000Y-99876476D02*
X129573333Y-99876476D01*
X129440000Y-100076476D01*
X129573333Y-100076476D01*
X129687619Y-99876476D02*
X129725714Y-99876476D01*
X129744761Y-99886000D01*
X129763809Y-99905047D01*
X129773333Y-99943142D01*
X129773333Y-100009809D01*
X129763809Y-100047904D01*
X129744761Y-100066952D01*
X129725714Y-100076476D01*
X129687619Y-100076476D01*
X129668571Y-100066952D01*
X129649523Y-100047904D01*
X129640000Y-100009809D01*
X129640000Y-99943142D01*
X129649523Y-99905047D01*
X129668571Y-99886000D01*
X129687619Y-99876476D01*
X129859047Y-100076476D02*
X129859047Y-99876476D01*
X129973333Y-100076476D01*
X129973333Y-99876476D01*
X130068571Y-99971714D02*
X130135238Y-99971714D01*
X130163809Y-100076476D02*
X130068571Y-100076476D01*
X130068571Y-99876476D01*
X130163809Y-99876476D01*
X127859047Y-100476476D02*
X127859047Y-100276476D01*
X127973333Y-100476476D01*
X127973333Y-100276476D01*
X128097142Y-100476476D02*
X128078095Y-100466952D01*
X128068571Y-100457428D01*
X128059047Y-100438380D01*
X128059047Y-100381238D01*
X128068571Y-100362190D01*
X128078095Y-100352666D01*
X128097142Y-100343142D01*
X128125714Y-100343142D01*
X128144761Y-100352666D01*
X128154285Y-100362190D01*
X128163809Y-100381238D01*
X128163809Y-100438380D01*
X128154285Y-100457428D01*
X128144761Y-100466952D01*
X128125714Y-100476476D01*
X128097142Y-100476476D01*
X128468571Y-100371714D02*
X128401904Y-100371714D01*
X128401904Y-100476476D02*
X128401904Y-100276476D01*
X128497142Y-100276476D01*
X128573333Y-100457428D02*
X128582857Y-100466952D01*
X128573333Y-100476476D01*
X128563809Y-100466952D01*
X128573333Y-100457428D01*
X128573333Y-100476476D01*
X128782857Y-100457428D02*
X128773333Y-100466952D01*
X128744761Y-100476476D01*
X128725714Y-100476476D01*
X128697142Y-100466952D01*
X128678095Y-100447904D01*
X128668571Y-100428857D01*
X128659047Y-100390761D01*
X128659047Y-100362190D01*
X128668571Y-100324095D01*
X128678095Y-100305047D01*
X128697142Y-100286000D01*
X128725714Y-100276476D01*
X128744761Y-100276476D01*
X128773333Y-100286000D01*
X128782857Y-100295523D01*
X128954285Y-100343142D02*
X128954285Y-100476476D01*
X128868571Y-100343142D02*
X128868571Y-100447904D01*
X128878095Y-100466952D01*
X128897142Y-100476476D01*
X128925714Y-100476476D01*
X128944761Y-100466952D01*
X128954285Y-100457428D01*
X129173333Y-100343142D02*
X129249523Y-100343142D01*
X129201904Y-100276476D02*
X129201904Y-100447904D01*
X129211428Y-100466952D01*
X129230476Y-100476476D01*
X129249523Y-100476476D01*
X129316190Y-100476476D02*
X129316190Y-100343142D01*
X129316190Y-100381238D02*
X129325714Y-100362190D01*
X129335238Y-100352666D01*
X129354285Y-100343142D01*
X129373333Y-100343142D01*
X129525714Y-100476476D02*
X129525714Y-100371714D01*
X129516190Y-100352666D01*
X129497142Y-100343142D01*
X129459047Y-100343142D01*
X129440000Y-100352666D01*
X129525714Y-100466952D02*
X129506666Y-100476476D01*
X129459047Y-100476476D01*
X129440000Y-100466952D01*
X129430476Y-100447904D01*
X129430476Y-100428857D01*
X129440000Y-100409809D01*
X129459047Y-100400285D01*
X129506666Y-100400285D01*
X129525714Y-100390761D01*
X129706666Y-100466952D02*
X129687619Y-100476476D01*
X129649523Y-100476476D01*
X129630476Y-100466952D01*
X129620952Y-100457428D01*
X129611428Y-100438380D01*
X129611428Y-100381238D01*
X129620952Y-100362190D01*
X129630476Y-100352666D01*
X129649523Y-100343142D01*
X129687619Y-100343142D01*
X129706666Y-100352666D01*
X129792380Y-100476476D02*
X129792380Y-100276476D01*
X129811428Y-100400285D02*
X129868571Y-100476476D01*
X129868571Y-100343142D02*
X129792380Y-100419333D01*
X129944761Y-100466952D02*
X129963809Y-100476476D01*
X130001904Y-100476476D01*
X130020952Y-100466952D01*
X130030476Y-100447904D01*
X130030476Y-100438380D01*
X130020952Y-100419333D01*
X130001904Y-100409809D01*
X129973333Y-100409809D01*
X129954285Y-100400285D01*
X129944761Y-100381238D01*
X129944761Y-100371714D01*
X129954285Y-100352666D01*
X129973333Y-100343142D01*
X130001904Y-100343142D01*
X130020952Y-100352666D01*
X122859047Y-100476476D02*
X122859047Y-100276476D01*
X122973333Y-100476476D01*
X122973333Y-100276476D01*
X123097142Y-100476476D02*
X123078095Y-100466952D01*
X123068571Y-100457428D01*
X123059047Y-100438380D01*
X123059047Y-100381238D01*
X123068571Y-100362190D01*
X123078095Y-100352666D01*
X123097142Y-100343142D01*
X123125714Y-100343142D01*
X123144761Y-100352666D01*
X123154285Y-100362190D01*
X123163809Y-100381238D01*
X123163809Y-100438380D01*
X123154285Y-100457428D01*
X123144761Y-100466952D01*
X123125714Y-100476476D01*
X123097142Y-100476476D01*
X123468571Y-100371714D02*
X123401904Y-100371714D01*
X123401904Y-100476476D02*
X123401904Y-100276476D01*
X123497142Y-100276476D01*
X123573333Y-100457428D02*
X123582857Y-100466952D01*
X123573333Y-100476476D01*
X123563809Y-100466952D01*
X123573333Y-100457428D01*
X123573333Y-100476476D01*
X123782857Y-100457428D02*
X123773333Y-100466952D01*
X123744761Y-100476476D01*
X123725714Y-100476476D01*
X123697142Y-100466952D01*
X123678095Y-100447904D01*
X123668571Y-100428857D01*
X123659047Y-100390761D01*
X123659047Y-100362190D01*
X123668571Y-100324095D01*
X123678095Y-100305047D01*
X123697142Y-100286000D01*
X123725714Y-100276476D01*
X123744761Y-100276476D01*
X123773333Y-100286000D01*
X123782857Y-100295523D01*
X123954285Y-100343142D02*
X123954285Y-100476476D01*
X123868571Y-100343142D02*
X123868571Y-100447904D01*
X123878095Y-100466952D01*
X123897142Y-100476476D01*
X123925714Y-100476476D01*
X123944761Y-100466952D01*
X123954285Y-100457428D01*
X124173333Y-100343142D02*
X124249523Y-100343142D01*
X124201904Y-100276476D02*
X124201904Y-100447904D01*
X124211428Y-100466952D01*
X124230476Y-100476476D01*
X124249523Y-100476476D01*
X124316190Y-100476476D02*
X124316190Y-100343142D01*
X124316190Y-100381238D02*
X124325714Y-100362190D01*
X124335238Y-100352666D01*
X124354285Y-100343142D01*
X124373333Y-100343142D01*
X124525714Y-100476476D02*
X124525714Y-100371714D01*
X124516190Y-100352666D01*
X124497142Y-100343142D01*
X124459047Y-100343142D01*
X124440000Y-100352666D01*
X124525714Y-100466952D02*
X124506666Y-100476476D01*
X124459047Y-100476476D01*
X124440000Y-100466952D01*
X124430476Y-100447904D01*
X124430476Y-100428857D01*
X124440000Y-100409809D01*
X124459047Y-100400285D01*
X124506666Y-100400285D01*
X124525714Y-100390761D01*
X124706666Y-100466952D02*
X124687619Y-100476476D01*
X124649523Y-100476476D01*
X124630476Y-100466952D01*
X124620952Y-100457428D01*
X124611428Y-100438380D01*
X124611428Y-100381238D01*
X124620952Y-100362190D01*
X124630476Y-100352666D01*
X124649523Y-100343142D01*
X124687619Y-100343142D01*
X124706666Y-100352666D01*
X124792380Y-100476476D02*
X124792380Y-100276476D01*
X124811428Y-100400285D02*
X124868571Y-100476476D01*
X124868571Y-100343142D02*
X124792380Y-100419333D01*
X124944761Y-100466952D02*
X124963809Y-100476476D01*
X125001904Y-100476476D01*
X125020952Y-100466952D01*
X125030476Y-100447904D01*
X125030476Y-100438380D01*
X125020952Y-100419333D01*
X125001904Y-100409809D01*
X124973333Y-100409809D01*
X124954285Y-100400285D01*
X124944761Y-100381238D01*
X124944761Y-100371714D01*
X124954285Y-100352666D01*
X124973333Y-100343142D01*
X125001904Y-100343142D01*
X125020952Y-100352666D01*
%TO.C,SW_stop1*%
X127805714Y-89662476D02*
X127805714Y-89462476D01*
X127920000Y-89662476D02*
X127834285Y-89548190D01*
X127920000Y-89462476D02*
X127805714Y-89576761D01*
X128005714Y-89557714D02*
X128072380Y-89557714D01*
X128100952Y-89662476D02*
X128005714Y-89662476D01*
X128005714Y-89462476D01*
X128100952Y-89462476D01*
X128186666Y-89557714D02*
X128253333Y-89557714D01*
X128281904Y-89662476D02*
X128186666Y-89662476D01*
X128186666Y-89462476D01*
X128281904Y-89462476D01*
X128367619Y-89662476D02*
X128367619Y-89462476D01*
X128443809Y-89462476D01*
X128462857Y-89472000D01*
X128472380Y-89481523D01*
X128481904Y-89500571D01*
X128481904Y-89529142D01*
X128472380Y-89548190D01*
X128462857Y-89557714D01*
X128443809Y-89567238D01*
X128367619Y-89567238D01*
X128567619Y-89586285D02*
X128720000Y-89586285D01*
X128853333Y-89462476D02*
X128891428Y-89462476D01*
X128910476Y-89472000D01*
X128929523Y-89491047D01*
X128939047Y-89529142D01*
X128939047Y-89595809D01*
X128929523Y-89633904D01*
X128910476Y-89652952D01*
X128891428Y-89662476D01*
X128853333Y-89662476D01*
X128834285Y-89652952D01*
X128815238Y-89633904D01*
X128805714Y-89595809D01*
X128805714Y-89529142D01*
X128815238Y-89491047D01*
X128834285Y-89472000D01*
X128853333Y-89462476D01*
X129024761Y-89462476D02*
X129024761Y-89624380D01*
X129034285Y-89643428D01*
X129043809Y-89652952D01*
X129062857Y-89662476D01*
X129100952Y-89662476D01*
X129120000Y-89652952D01*
X129129523Y-89643428D01*
X129139047Y-89624380D01*
X129139047Y-89462476D01*
X129205714Y-89462476D02*
X129320000Y-89462476D01*
X129262857Y-89662476D02*
X129262857Y-89462476D01*
X129520000Y-89462476D02*
X129653333Y-89462476D01*
X129520000Y-89662476D01*
X129653333Y-89662476D01*
X129767619Y-89462476D02*
X129805714Y-89462476D01*
X129824761Y-89472000D01*
X129843809Y-89491047D01*
X129853333Y-89529142D01*
X129853333Y-89595809D01*
X129843809Y-89633904D01*
X129824761Y-89652952D01*
X129805714Y-89662476D01*
X129767619Y-89662476D01*
X129748571Y-89652952D01*
X129729523Y-89633904D01*
X129720000Y-89595809D01*
X129720000Y-89529142D01*
X129729523Y-89491047D01*
X129748571Y-89472000D01*
X129767619Y-89462476D01*
X129939047Y-89662476D02*
X129939047Y-89462476D01*
X130053333Y-89662476D01*
X130053333Y-89462476D01*
X130148571Y-89557714D02*
X130215238Y-89557714D01*
X130243809Y-89662476D02*
X130148571Y-89662476D01*
X130148571Y-89462476D01*
X130243809Y-89462476D01*
X132805714Y-89662476D02*
X132805714Y-89462476D01*
X132920000Y-89662476D02*
X132834285Y-89548190D01*
X132920000Y-89462476D02*
X132805714Y-89576761D01*
X133005714Y-89557714D02*
X133072380Y-89557714D01*
X133100952Y-89662476D02*
X133005714Y-89662476D01*
X133005714Y-89462476D01*
X133100952Y-89462476D01*
X133186666Y-89557714D02*
X133253333Y-89557714D01*
X133281904Y-89662476D02*
X133186666Y-89662476D01*
X133186666Y-89462476D01*
X133281904Y-89462476D01*
X133367619Y-89662476D02*
X133367619Y-89462476D01*
X133443809Y-89462476D01*
X133462857Y-89472000D01*
X133472380Y-89481523D01*
X133481904Y-89500571D01*
X133481904Y-89529142D01*
X133472380Y-89548190D01*
X133462857Y-89557714D01*
X133443809Y-89567238D01*
X133367619Y-89567238D01*
X133567619Y-89586285D02*
X133720000Y-89586285D01*
X133853333Y-89462476D02*
X133891428Y-89462476D01*
X133910476Y-89472000D01*
X133929523Y-89491047D01*
X133939047Y-89529142D01*
X133939047Y-89595809D01*
X133929523Y-89633904D01*
X133910476Y-89652952D01*
X133891428Y-89662476D01*
X133853333Y-89662476D01*
X133834285Y-89652952D01*
X133815238Y-89633904D01*
X133805714Y-89595809D01*
X133805714Y-89529142D01*
X133815238Y-89491047D01*
X133834285Y-89472000D01*
X133853333Y-89462476D01*
X134024761Y-89462476D02*
X134024761Y-89624380D01*
X134034285Y-89643428D01*
X134043809Y-89652952D01*
X134062857Y-89662476D01*
X134100952Y-89662476D01*
X134120000Y-89652952D01*
X134129523Y-89643428D01*
X134139047Y-89624380D01*
X134139047Y-89462476D01*
X134205714Y-89462476D02*
X134320000Y-89462476D01*
X134262857Y-89662476D02*
X134262857Y-89462476D01*
X134520000Y-89462476D02*
X134653333Y-89462476D01*
X134520000Y-89662476D01*
X134653333Y-89662476D01*
X134767619Y-89462476D02*
X134805714Y-89462476D01*
X134824761Y-89472000D01*
X134843809Y-89491047D01*
X134853333Y-89529142D01*
X134853333Y-89595809D01*
X134843809Y-89633904D01*
X134824761Y-89652952D01*
X134805714Y-89662476D01*
X134767619Y-89662476D01*
X134748571Y-89652952D01*
X134729523Y-89633904D01*
X134720000Y-89595809D01*
X134720000Y-89529142D01*
X134729523Y-89491047D01*
X134748571Y-89472000D01*
X134767619Y-89462476D01*
X134939047Y-89662476D02*
X134939047Y-89462476D01*
X135053333Y-89662476D01*
X135053333Y-89462476D01*
X135148571Y-89557714D02*
X135215238Y-89557714D01*
X135243809Y-89662476D02*
X135148571Y-89662476D01*
X135148571Y-89462476D01*
X135243809Y-89462476D01*
X132939047Y-90062476D02*
X132939047Y-89862476D01*
X133053333Y-90062476D01*
X133053333Y-89862476D01*
X133177142Y-90062476D02*
X133158095Y-90052952D01*
X133148571Y-90043428D01*
X133139047Y-90024380D01*
X133139047Y-89967238D01*
X133148571Y-89948190D01*
X133158095Y-89938666D01*
X133177142Y-89929142D01*
X133205714Y-89929142D01*
X133224761Y-89938666D01*
X133234285Y-89948190D01*
X133243809Y-89967238D01*
X133243809Y-90024380D01*
X133234285Y-90043428D01*
X133224761Y-90052952D01*
X133205714Y-90062476D01*
X133177142Y-90062476D01*
X133548571Y-89957714D02*
X133481904Y-89957714D01*
X133481904Y-90062476D02*
X133481904Y-89862476D01*
X133577142Y-89862476D01*
X133653333Y-90043428D02*
X133662857Y-90052952D01*
X133653333Y-90062476D01*
X133643809Y-90052952D01*
X133653333Y-90043428D01*
X133653333Y-90062476D01*
X133862857Y-90043428D02*
X133853333Y-90052952D01*
X133824761Y-90062476D01*
X133805714Y-90062476D01*
X133777142Y-90052952D01*
X133758095Y-90033904D01*
X133748571Y-90014857D01*
X133739047Y-89976761D01*
X133739047Y-89948190D01*
X133748571Y-89910095D01*
X133758095Y-89891047D01*
X133777142Y-89872000D01*
X133805714Y-89862476D01*
X133824761Y-89862476D01*
X133853333Y-89872000D01*
X133862857Y-89881523D01*
X134034285Y-89929142D02*
X134034285Y-90062476D01*
X133948571Y-89929142D02*
X133948571Y-90033904D01*
X133958095Y-90052952D01*
X133977142Y-90062476D01*
X134005714Y-90062476D01*
X134024761Y-90052952D01*
X134034285Y-90043428D01*
X134253333Y-89929142D02*
X134329523Y-89929142D01*
X134281904Y-89862476D02*
X134281904Y-90033904D01*
X134291428Y-90052952D01*
X134310476Y-90062476D01*
X134329523Y-90062476D01*
X134396190Y-90062476D02*
X134396190Y-89929142D01*
X134396190Y-89967238D02*
X134405714Y-89948190D01*
X134415238Y-89938666D01*
X134434285Y-89929142D01*
X134453333Y-89929142D01*
X134605714Y-90062476D02*
X134605714Y-89957714D01*
X134596190Y-89938666D01*
X134577142Y-89929142D01*
X134539047Y-89929142D01*
X134520000Y-89938666D01*
X134605714Y-90052952D02*
X134586666Y-90062476D01*
X134539047Y-90062476D01*
X134520000Y-90052952D01*
X134510476Y-90033904D01*
X134510476Y-90014857D01*
X134520000Y-89995809D01*
X134539047Y-89986285D01*
X134586666Y-89986285D01*
X134605714Y-89976761D01*
X134786666Y-90052952D02*
X134767619Y-90062476D01*
X134729523Y-90062476D01*
X134710476Y-90052952D01*
X134700952Y-90043428D01*
X134691428Y-90024380D01*
X134691428Y-89967238D01*
X134700952Y-89948190D01*
X134710476Y-89938666D01*
X134729523Y-89929142D01*
X134767619Y-89929142D01*
X134786666Y-89938666D01*
X134872380Y-90062476D02*
X134872380Y-89862476D01*
X134891428Y-89986285D02*
X134948571Y-90062476D01*
X134948571Y-89929142D02*
X134872380Y-90005333D01*
X135024761Y-90052952D02*
X135043809Y-90062476D01*
X135081904Y-90062476D01*
X135100952Y-90052952D01*
X135110476Y-90033904D01*
X135110476Y-90024380D01*
X135100952Y-90005333D01*
X135081904Y-89995809D01*
X135053333Y-89995809D01*
X135034285Y-89986285D01*
X135024761Y-89967238D01*
X135024761Y-89957714D01*
X135034285Y-89938666D01*
X135053333Y-89929142D01*
X135081904Y-89929142D01*
X135100952Y-89938666D01*
X127939047Y-90062476D02*
X127939047Y-89862476D01*
X128053333Y-90062476D01*
X128053333Y-89862476D01*
X128177142Y-90062476D02*
X128158095Y-90052952D01*
X128148571Y-90043428D01*
X128139047Y-90024380D01*
X128139047Y-89967238D01*
X128148571Y-89948190D01*
X128158095Y-89938666D01*
X128177142Y-89929142D01*
X128205714Y-89929142D01*
X128224761Y-89938666D01*
X128234285Y-89948190D01*
X128243809Y-89967238D01*
X128243809Y-90024380D01*
X128234285Y-90043428D01*
X128224761Y-90052952D01*
X128205714Y-90062476D01*
X128177142Y-90062476D01*
X128548571Y-89957714D02*
X128481904Y-89957714D01*
X128481904Y-90062476D02*
X128481904Y-89862476D01*
X128577142Y-89862476D01*
X128653333Y-90043428D02*
X128662857Y-90052952D01*
X128653333Y-90062476D01*
X128643809Y-90052952D01*
X128653333Y-90043428D01*
X128653333Y-90062476D01*
X128862857Y-90043428D02*
X128853333Y-90052952D01*
X128824761Y-90062476D01*
X128805714Y-90062476D01*
X128777142Y-90052952D01*
X128758095Y-90033904D01*
X128748571Y-90014857D01*
X128739047Y-89976761D01*
X128739047Y-89948190D01*
X128748571Y-89910095D01*
X128758095Y-89891047D01*
X128777142Y-89872000D01*
X128805714Y-89862476D01*
X128824761Y-89862476D01*
X128853333Y-89872000D01*
X128862857Y-89881523D01*
X129034285Y-89929142D02*
X129034285Y-90062476D01*
X128948571Y-89929142D02*
X128948571Y-90033904D01*
X128958095Y-90052952D01*
X128977142Y-90062476D01*
X129005714Y-90062476D01*
X129024761Y-90052952D01*
X129034285Y-90043428D01*
X129253333Y-89929142D02*
X129329523Y-89929142D01*
X129281904Y-89862476D02*
X129281904Y-90033904D01*
X129291428Y-90052952D01*
X129310476Y-90062476D01*
X129329523Y-90062476D01*
X129396190Y-90062476D02*
X129396190Y-89929142D01*
X129396190Y-89967238D02*
X129405714Y-89948190D01*
X129415238Y-89938666D01*
X129434285Y-89929142D01*
X129453333Y-89929142D01*
X129605714Y-90062476D02*
X129605714Y-89957714D01*
X129596190Y-89938666D01*
X129577142Y-89929142D01*
X129539047Y-89929142D01*
X129520000Y-89938666D01*
X129605714Y-90052952D02*
X129586666Y-90062476D01*
X129539047Y-90062476D01*
X129520000Y-90052952D01*
X129510476Y-90033904D01*
X129510476Y-90014857D01*
X129520000Y-89995809D01*
X129539047Y-89986285D01*
X129586666Y-89986285D01*
X129605714Y-89976761D01*
X129786666Y-90052952D02*
X129767619Y-90062476D01*
X129729523Y-90062476D01*
X129710476Y-90052952D01*
X129700952Y-90043428D01*
X129691428Y-90024380D01*
X129691428Y-89967238D01*
X129700952Y-89948190D01*
X129710476Y-89938666D01*
X129729523Y-89929142D01*
X129767619Y-89929142D01*
X129786666Y-89938666D01*
X129872380Y-90062476D02*
X129872380Y-89862476D01*
X129891428Y-89986285D02*
X129948571Y-90062476D01*
X129948571Y-89929142D02*
X129872380Y-90005333D01*
X130024761Y-90052952D02*
X130043809Y-90062476D01*
X130081904Y-90062476D01*
X130100952Y-90052952D01*
X130110476Y-90033904D01*
X130110476Y-90024380D01*
X130100952Y-90005333D01*
X130081904Y-89995809D01*
X130053333Y-89995809D01*
X130034285Y-89986285D01*
X130024761Y-89967238D01*
X130024761Y-89957714D01*
X130034285Y-89938666D01*
X130053333Y-89929142D01*
X130081904Y-89929142D01*
X130100952Y-89938666D01*
%TO.C,SW_left1*%
X122859047Y-81934476D02*
X122859047Y-81734476D01*
X122973333Y-81934476D01*
X122973333Y-81734476D01*
X123097142Y-81934476D02*
X123078095Y-81924952D01*
X123068571Y-81915428D01*
X123059047Y-81896380D01*
X123059047Y-81839238D01*
X123068571Y-81820190D01*
X123078095Y-81810666D01*
X123097142Y-81801142D01*
X123125714Y-81801142D01*
X123144761Y-81810666D01*
X123154285Y-81820190D01*
X123163809Y-81839238D01*
X123163809Y-81896380D01*
X123154285Y-81915428D01*
X123144761Y-81924952D01*
X123125714Y-81934476D01*
X123097142Y-81934476D01*
X123468571Y-81829714D02*
X123401904Y-81829714D01*
X123401904Y-81934476D02*
X123401904Y-81734476D01*
X123497142Y-81734476D01*
X123573333Y-81915428D02*
X123582857Y-81924952D01*
X123573333Y-81934476D01*
X123563809Y-81924952D01*
X123573333Y-81915428D01*
X123573333Y-81934476D01*
X123782857Y-81915428D02*
X123773333Y-81924952D01*
X123744761Y-81934476D01*
X123725714Y-81934476D01*
X123697142Y-81924952D01*
X123678095Y-81905904D01*
X123668571Y-81886857D01*
X123659047Y-81848761D01*
X123659047Y-81820190D01*
X123668571Y-81782095D01*
X123678095Y-81763047D01*
X123697142Y-81744000D01*
X123725714Y-81734476D01*
X123744761Y-81734476D01*
X123773333Y-81744000D01*
X123782857Y-81753523D01*
X123954285Y-81801142D02*
X123954285Y-81934476D01*
X123868571Y-81801142D02*
X123868571Y-81905904D01*
X123878095Y-81924952D01*
X123897142Y-81934476D01*
X123925714Y-81934476D01*
X123944761Y-81924952D01*
X123954285Y-81915428D01*
X124173333Y-81801142D02*
X124249523Y-81801142D01*
X124201904Y-81734476D02*
X124201904Y-81905904D01*
X124211428Y-81924952D01*
X124230476Y-81934476D01*
X124249523Y-81934476D01*
X124316190Y-81934476D02*
X124316190Y-81801142D01*
X124316190Y-81839238D02*
X124325714Y-81820190D01*
X124335238Y-81810666D01*
X124354285Y-81801142D01*
X124373333Y-81801142D01*
X124525714Y-81934476D02*
X124525714Y-81829714D01*
X124516190Y-81810666D01*
X124497142Y-81801142D01*
X124459047Y-81801142D01*
X124440000Y-81810666D01*
X124525714Y-81924952D02*
X124506666Y-81934476D01*
X124459047Y-81934476D01*
X124440000Y-81924952D01*
X124430476Y-81905904D01*
X124430476Y-81886857D01*
X124440000Y-81867809D01*
X124459047Y-81858285D01*
X124506666Y-81858285D01*
X124525714Y-81848761D01*
X124706666Y-81924952D02*
X124687619Y-81934476D01*
X124649523Y-81934476D01*
X124630476Y-81924952D01*
X124620952Y-81915428D01*
X124611428Y-81896380D01*
X124611428Y-81839238D01*
X124620952Y-81820190D01*
X124630476Y-81810666D01*
X124649523Y-81801142D01*
X124687619Y-81801142D01*
X124706666Y-81810666D01*
X124792380Y-81934476D02*
X124792380Y-81734476D01*
X124811428Y-81858285D02*
X124868571Y-81934476D01*
X124868571Y-81801142D02*
X124792380Y-81877333D01*
X124944761Y-81924952D02*
X124963809Y-81934476D01*
X125001904Y-81934476D01*
X125020952Y-81924952D01*
X125030476Y-81905904D01*
X125030476Y-81896380D01*
X125020952Y-81877333D01*
X125001904Y-81867809D01*
X124973333Y-81867809D01*
X124954285Y-81858285D01*
X124944761Y-81839238D01*
X124944761Y-81829714D01*
X124954285Y-81810666D01*
X124973333Y-81801142D01*
X125001904Y-81801142D01*
X125020952Y-81810666D01*
X127859047Y-81934476D02*
X127859047Y-81734476D01*
X127973333Y-81934476D01*
X127973333Y-81734476D01*
X128097142Y-81934476D02*
X128078095Y-81924952D01*
X128068571Y-81915428D01*
X128059047Y-81896380D01*
X128059047Y-81839238D01*
X128068571Y-81820190D01*
X128078095Y-81810666D01*
X128097142Y-81801142D01*
X128125714Y-81801142D01*
X128144761Y-81810666D01*
X128154285Y-81820190D01*
X128163809Y-81839238D01*
X128163809Y-81896380D01*
X128154285Y-81915428D01*
X128144761Y-81924952D01*
X128125714Y-81934476D01*
X128097142Y-81934476D01*
X128468571Y-81829714D02*
X128401904Y-81829714D01*
X128401904Y-81934476D02*
X128401904Y-81734476D01*
X128497142Y-81734476D01*
X128573333Y-81915428D02*
X128582857Y-81924952D01*
X128573333Y-81934476D01*
X128563809Y-81924952D01*
X128573333Y-81915428D01*
X128573333Y-81934476D01*
X128782857Y-81915428D02*
X128773333Y-81924952D01*
X128744761Y-81934476D01*
X128725714Y-81934476D01*
X128697142Y-81924952D01*
X128678095Y-81905904D01*
X128668571Y-81886857D01*
X128659047Y-81848761D01*
X128659047Y-81820190D01*
X128668571Y-81782095D01*
X128678095Y-81763047D01*
X128697142Y-81744000D01*
X128725714Y-81734476D01*
X128744761Y-81734476D01*
X128773333Y-81744000D01*
X128782857Y-81753523D01*
X128954285Y-81801142D02*
X128954285Y-81934476D01*
X128868571Y-81801142D02*
X128868571Y-81905904D01*
X128878095Y-81924952D01*
X128897142Y-81934476D01*
X128925714Y-81934476D01*
X128944761Y-81924952D01*
X128954285Y-81915428D01*
X129173333Y-81801142D02*
X129249523Y-81801142D01*
X129201904Y-81734476D02*
X129201904Y-81905904D01*
X129211428Y-81924952D01*
X129230476Y-81934476D01*
X129249523Y-81934476D01*
X129316190Y-81934476D02*
X129316190Y-81801142D01*
X129316190Y-81839238D02*
X129325714Y-81820190D01*
X129335238Y-81810666D01*
X129354285Y-81801142D01*
X129373333Y-81801142D01*
X129525714Y-81934476D02*
X129525714Y-81829714D01*
X129516190Y-81810666D01*
X129497142Y-81801142D01*
X129459047Y-81801142D01*
X129440000Y-81810666D01*
X129525714Y-81924952D02*
X129506666Y-81934476D01*
X129459047Y-81934476D01*
X129440000Y-81924952D01*
X129430476Y-81905904D01*
X129430476Y-81886857D01*
X129440000Y-81867809D01*
X129459047Y-81858285D01*
X129506666Y-81858285D01*
X129525714Y-81848761D01*
X129706666Y-81924952D02*
X129687619Y-81934476D01*
X129649523Y-81934476D01*
X129630476Y-81924952D01*
X129620952Y-81915428D01*
X129611428Y-81896380D01*
X129611428Y-81839238D01*
X129620952Y-81820190D01*
X129630476Y-81810666D01*
X129649523Y-81801142D01*
X129687619Y-81801142D01*
X129706666Y-81810666D01*
X129792380Y-81934476D02*
X129792380Y-81734476D01*
X129811428Y-81858285D02*
X129868571Y-81934476D01*
X129868571Y-81801142D02*
X129792380Y-81877333D01*
X129944761Y-81924952D02*
X129963809Y-81934476D01*
X130001904Y-81934476D01*
X130020952Y-81924952D01*
X130030476Y-81905904D01*
X130030476Y-81896380D01*
X130020952Y-81877333D01*
X130001904Y-81867809D01*
X129973333Y-81867809D01*
X129954285Y-81858285D01*
X129944761Y-81839238D01*
X129944761Y-81829714D01*
X129954285Y-81810666D01*
X129973333Y-81801142D01*
X130001904Y-81801142D01*
X130020952Y-81810666D01*
X127725714Y-81534476D02*
X127725714Y-81334476D01*
X127840000Y-81534476D02*
X127754285Y-81420190D01*
X127840000Y-81334476D02*
X127725714Y-81448761D01*
X127925714Y-81429714D02*
X127992380Y-81429714D01*
X128020952Y-81534476D02*
X127925714Y-81534476D01*
X127925714Y-81334476D01*
X128020952Y-81334476D01*
X128106666Y-81429714D02*
X128173333Y-81429714D01*
X128201904Y-81534476D02*
X128106666Y-81534476D01*
X128106666Y-81334476D01*
X128201904Y-81334476D01*
X128287619Y-81534476D02*
X128287619Y-81334476D01*
X128363809Y-81334476D01*
X128382857Y-81344000D01*
X128392380Y-81353523D01*
X128401904Y-81372571D01*
X128401904Y-81401142D01*
X128392380Y-81420190D01*
X128382857Y-81429714D01*
X128363809Y-81439238D01*
X128287619Y-81439238D01*
X128487619Y-81458285D02*
X128640000Y-81458285D01*
X128773333Y-81334476D02*
X128811428Y-81334476D01*
X128830476Y-81344000D01*
X128849523Y-81363047D01*
X128859047Y-81401142D01*
X128859047Y-81467809D01*
X128849523Y-81505904D01*
X128830476Y-81524952D01*
X128811428Y-81534476D01*
X128773333Y-81534476D01*
X128754285Y-81524952D01*
X128735238Y-81505904D01*
X128725714Y-81467809D01*
X128725714Y-81401142D01*
X128735238Y-81363047D01*
X128754285Y-81344000D01*
X128773333Y-81334476D01*
X128944761Y-81334476D02*
X128944761Y-81496380D01*
X128954285Y-81515428D01*
X128963809Y-81524952D01*
X128982857Y-81534476D01*
X129020952Y-81534476D01*
X129040000Y-81524952D01*
X129049523Y-81515428D01*
X129059047Y-81496380D01*
X129059047Y-81334476D01*
X129125714Y-81334476D02*
X129240000Y-81334476D01*
X129182857Y-81534476D02*
X129182857Y-81334476D01*
X129440000Y-81334476D02*
X129573333Y-81334476D01*
X129440000Y-81534476D01*
X129573333Y-81534476D01*
X129687619Y-81334476D02*
X129725714Y-81334476D01*
X129744761Y-81344000D01*
X129763809Y-81363047D01*
X129773333Y-81401142D01*
X129773333Y-81467809D01*
X129763809Y-81505904D01*
X129744761Y-81524952D01*
X129725714Y-81534476D01*
X129687619Y-81534476D01*
X129668571Y-81524952D01*
X129649523Y-81505904D01*
X129640000Y-81467809D01*
X129640000Y-81401142D01*
X129649523Y-81363047D01*
X129668571Y-81344000D01*
X129687619Y-81334476D01*
X129859047Y-81534476D02*
X129859047Y-81334476D01*
X129973333Y-81534476D01*
X129973333Y-81334476D01*
X130068571Y-81429714D02*
X130135238Y-81429714D01*
X130163809Y-81534476D02*
X130068571Y-81534476D01*
X130068571Y-81334476D01*
X130163809Y-81334476D01*
X122725714Y-81534476D02*
X122725714Y-81334476D01*
X122840000Y-81534476D02*
X122754285Y-81420190D01*
X122840000Y-81334476D02*
X122725714Y-81448761D01*
X122925714Y-81429714D02*
X122992380Y-81429714D01*
X123020952Y-81534476D02*
X122925714Y-81534476D01*
X122925714Y-81334476D01*
X123020952Y-81334476D01*
X123106666Y-81429714D02*
X123173333Y-81429714D01*
X123201904Y-81534476D02*
X123106666Y-81534476D01*
X123106666Y-81334476D01*
X123201904Y-81334476D01*
X123287619Y-81534476D02*
X123287619Y-81334476D01*
X123363809Y-81334476D01*
X123382857Y-81344000D01*
X123392380Y-81353523D01*
X123401904Y-81372571D01*
X123401904Y-81401142D01*
X123392380Y-81420190D01*
X123382857Y-81429714D01*
X123363809Y-81439238D01*
X123287619Y-81439238D01*
X123487619Y-81458285D02*
X123640000Y-81458285D01*
X123773333Y-81334476D02*
X123811428Y-81334476D01*
X123830476Y-81344000D01*
X123849523Y-81363047D01*
X123859047Y-81401142D01*
X123859047Y-81467809D01*
X123849523Y-81505904D01*
X123830476Y-81524952D01*
X123811428Y-81534476D01*
X123773333Y-81534476D01*
X123754285Y-81524952D01*
X123735238Y-81505904D01*
X123725714Y-81467809D01*
X123725714Y-81401142D01*
X123735238Y-81363047D01*
X123754285Y-81344000D01*
X123773333Y-81334476D01*
X123944761Y-81334476D02*
X123944761Y-81496380D01*
X123954285Y-81515428D01*
X123963809Y-81524952D01*
X123982857Y-81534476D01*
X124020952Y-81534476D01*
X124040000Y-81524952D01*
X124049523Y-81515428D01*
X124059047Y-81496380D01*
X124059047Y-81334476D01*
X124125714Y-81334476D02*
X124240000Y-81334476D01*
X124182857Y-81534476D02*
X124182857Y-81334476D01*
X124440000Y-81334476D02*
X124573333Y-81334476D01*
X124440000Y-81534476D01*
X124573333Y-81534476D01*
X124687619Y-81334476D02*
X124725714Y-81334476D01*
X124744761Y-81344000D01*
X124763809Y-81363047D01*
X124773333Y-81401142D01*
X124773333Y-81467809D01*
X124763809Y-81505904D01*
X124744761Y-81524952D01*
X124725714Y-81534476D01*
X124687619Y-81534476D01*
X124668571Y-81524952D01*
X124649523Y-81505904D01*
X124640000Y-81467809D01*
X124640000Y-81401142D01*
X124649523Y-81363047D01*
X124668571Y-81344000D01*
X124687619Y-81334476D01*
X124859047Y-81534476D02*
X124859047Y-81334476D01*
X124973333Y-81534476D01*
X124973333Y-81334476D01*
X125068571Y-81429714D02*
X125135238Y-81429714D01*
X125163809Y-81534476D02*
X125068571Y-81534476D01*
X125068571Y-81334476D01*
X125163809Y-81334476D01*
%TO.C,SW_right1*%
X133019047Y-81934476D02*
X133019047Y-81734476D01*
X133133333Y-81934476D01*
X133133333Y-81734476D01*
X133257142Y-81934476D02*
X133238095Y-81924952D01*
X133228571Y-81915428D01*
X133219047Y-81896380D01*
X133219047Y-81839238D01*
X133228571Y-81820190D01*
X133238095Y-81810666D01*
X133257142Y-81801142D01*
X133285714Y-81801142D01*
X133304761Y-81810666D01*
X133314285Y-81820190D01*
X133323809Y-81839238D01*
X133323809Y-81896380D01*
X133314285Y-81915428D01*
X133304761Y-81924952D01*
X133285714Y-81934476D01*
X133257142Y-81934476D01*
X133628571Y-81829714D02*
X133561904Y-81829714D01*
X133561904Y-81934476D02*
X133561904Y-81734476D01*
X133657142Y-81734476D01*
X133733333Y-81915428D02*
X133742857Y-81924952D01*
X133733333Y-81934476D01*
X133723809Y-81924952D01*
X133733333Y-81915428D01*
X133733333Y-81934476D01*
X133942857Y-81915428D02*
X133933333Y-81924952D01*
X133904761Y-81934476D01*
X133885714Y-81934476D01*
X133857142Y-81924952D01*
X133838095Y-81905904D01*
X133828571Y-81886857D01*
X133819047Y-81848761D01*
X133819047Y-81820190D01*
X133828571Y-81782095D01*
X133838095Y-81763047D01*
X133857142Y-81744000D01*
X133885714Y-81734476D01*
X133904761Y-81734476D01*
X133933333Y-81744000D01*
X133942857Y-81753523D01*
X134114285Y-81801142D02*
X134114285Y-81934476D01*
X134028571Y-81801142D02*
X134028571Y-81905904D01*
X134038095Y-81924952D01*
X134057142Y-81934476D01*
X134085714Y-81934476D01*
X134104761Y-81924952D01*
X134114285Y-81915428D01*
X134333333Y-81801142D02*
X134409523Y-81801142D01*
X134361904Y-81734476D02*
X134361904Y-81905904D01*
X134371428Y-81924952D01*
X134390476Y-81934476D01*
X134409523Y-81934476D01*
X134476190Y-81934476D02*
X134476190Y-81801142D01*
X134476190Y-81839238D02*
X134485714Y-81820190D01*
X134495238Y-81810666D01*
X134514285Y-81801142D01*
X134533333Y-81801142D01*
X134685714Y-81934476D02*
X134685714Y-81829714D01*
X134676190Y-81810666D01*
X134657142Y-81801142D01*
X134619047Y-81801142D01*
X134600000Y-81810666D01*
X134685714Y-81924952D02*
X134666666Y-81934476D01*
X134619047Y-81934476D01*
X134600000Y-81924952D01*
X134590476Y-81905904D01*
X134590476Y-81886857D01*
X134600000Y-81867809D01*
X134619047Y-81858285D01*
X134666666Y-81858285D01*
X134685714Y-81848761D01*
X134866666Y-81924952D02*
X134847619Y-81934476D01*
X134809523Y-81934476D01*
X134790476Y-81924952D01*
X134780952Y-81915428D01*
X134771428Y-81896380D01*
X134771428Y-81839238D01*
X134780952Y-81820190D01*
X134790476Y-81810666D01*
X134809523Y-81801142D01*
X134847619Y-81801142D01*
X134866666Y-81810666D01*
X134952380Y-81934476D02*
X134952380Y-81734476D01*
X134971428Y-81858285D02*
X135028571Y-81934476D01*
X135028571Y-81801142D02*
X134952380Y-81877333D01*
X135104761Y-81924952D02*
X135123809Y-81934476D01*
X135161904Y-81934476D01*
X135180952Y-81924952D01*
X135190476Y-81905904D01*
X135190476Y-81896380D01*
X135180952Y-81877333D01*
X135161904Y-81867809D01*
X135133333Y-81867809D01*
X135114285Y-81858285D01*
X135104761Y-81839238D01*
X135104761Y-81829714D01*
X135114285Y-81810666D01*
X135133333Y-81801142D01*
X135161904Y-81801142D01*
X135180952Y-81810666D01*
X138019047Y-81934476D02*
X138019047Y-81734476D01*
X138133333Y-81934476D01*
X138133333Y-81734476D01*
X138257142Y-81934476D02*
X138238095Y-81924952D01*
X138228571Y-81915428D01*
X138219047Y-81896380D01*
X138219047Y-81839238D01*
X138228571Y-81820190D01*
X138238095Y-81810666D01*
X138257142Y-81801142D01*
X138285714Y-81801142D01*
X138304761Y-81810666D01*
X138314285Y-81820190D01*
X138323809Y-81839238D01*
X138323809Y-81896380D01*
X138314285Y-81915428D01*
X138304761Y-81924952D01*
X138285714Y-81934476D01*
X138257142Y-81934476D01*
X138628571Y-81829714D02*
X138561904Y-81829714D01*
X138561904Y-81934476D02*
X138561904Y-81734476D01*
X138657142Y-81734476D01*
X138733333Y-81915428D02*
X138742857Y-81924952D01*
X138733333Y-81934476D01*
X138723809Y-81924952D01*
X138733333Y-81915428D01*
X138733333Y-81934476D01*
X138942857Y-81915428D02*
X138933333Y-81924952D01*
X138904761Y-81934476D01*
X138885714Y-81934476D01*
X138857142Y-81924952D01*
X138838095Y-81905904D01*
X138828571Y-81886857D01*
X138819047Y-81848761D01*
X138819047Y-81820190D01*
X138828571Y-81782095D01*
X138838095Y-81763047D01*
X138857142Y-81744000D01*
X138885714Y-81734476D01*
X138904761Y-81734476D01*
X138933333Y-81744000D01*
X138942857Y-81753523D01*
X139114285Y-81801142D02*
X139114285Y-81934476D01*
X139028571Y-81801142D02*
X139028571Y-81905904D01*
X139038095Y-81924952D01*
X139057142Y-81934476D01*
X139085714Y-81934476D01*
X139104761Y-81924952D01*
X139114285Y-81915428D01*
X139333333Y-81801142D02*
X139409523Y-81801142D01*
X139361904Y-81734476D02*
X139361904Y-81905904D01*
X139371428Y-81924952D01*
X139390476Y-81934476D01*
X139409523Y-81934476D01*
X139476190Y-81934476D02*
X139476190Y-81801142D01*
X139476190Y-81839238D02*
X139485714Y-81820190D01*
X139495238Y-81810666D01*
X139514285Y-81801142D01*
X139533333Y-81801142D01*
X139685714Y-81934476D02*
X139685714Y-81829714D01*
X139676190Y-81810666D01*
X139657142Y-81801142D01*
X139619047Y-81801142D01*
X139600000Y-81810666D01*
X139685714Y-81924952D02*
X139666666Y-81934476D01*
X139619047Y-81934476D01*
X139600000Y-81924952D01*
X139590476Y-81905904D01*
X139590476Y-81886857D01*
X139600000Y-81867809D01*
X139619047Y-81858285D01*
X139666666Y-81858285D01*
X139685714Y-81848761D01*
X139866666Y-81924952D02*
X139847619Y-81934476D01*
X139809523Y-81934476D01*
X139790476Y-81924952D01*
X139780952Y-81915428D01*
X139771428Y-81896380D01*
X139771428Y-81839238D01*
X139780952Y-81820190D01*
X139790476Y-81810666D01*
X139809523Y-81801142D01*
X139847619Y-81801142D01*
X139866666Y-81810666D01*
X139952380Y-81934476D02*
X139952380Y-81734476D01*
X139971428Y-81858285D02*
X140028571Y-81934476D01*
X140028571Y-81801142D02*
X139952380Y-81877333D01*
X140104761Y-81924952D02*
X140123809Y-81934476D01*
X140161904Y-81934476D01*
X140180952Y-81924952D01*
X140190476Y-81905904D01*
X140190476Y-81896380D01*
X140180952Y-81877333D01*
X140161904Y-81867809D01*
X140133333Y-81867809D01*
X140114285Y-81858285D01*
X140104761Y-81839238D01*
X140104761Y-81829714D01*
X140114285Y-81810666D01*
X140133333Y-81801142D01*
X140161904Y-81801142D01*
X140180952Y-81810666D01*
X137885714Y-81534476D02*
X137885714Y-81334476D01*
X138000000Y-81534476D02*
X137914285Y-81420190D01*
X138000000Y-81334476D02*
X137885714Y-81448761D01*
X138085714Y-81429714D02*
X138152380Y-81429714D01*
X138180952Y-81534476D02*
X138085714Y-81534476D01*
X138085714Y-81334476D01*
X138180952Y-81334476D01*
X138266666Y-81429714D02*
X138333333Y-81429714D01*
X138361904Y-81534476D02*
X138266666Y-81534476D01*
X138266666Y-81334476D01*
X138361904Y-81334476D01*
X138447619Y-81534476D02*
X138447619Y-81334476D01*
X138523809Y-81334476D01*
X138542857Y-81344000D01*
X138552380Y-81353523D01*
X138561904Y-81372571D01*
X138561904Y-81401142D01*
X138552380Y-81420190D01*
X138542857Y-81429714D01*
X138523809Y-81439238D01*
X138447619Y-81439238D01*
X138647619Y-81458285D02*
X138800000Y-81458285D01*
X138933333Y-81334476D02*
X138971428Y-81334476D01*
X138990476Y-81344000D01*
X139009523Y-81363047D01*
X139019047Y-81401142D01*
X139019047Y-81467809D01*
X139009523Y-81505904D01*
X138990476Y-81524952D01*
X138971428Y-81534476D01*
X138933333Y-81534476D01*
X138914285Y-81524952D01*
X138895238Y-81505904D01*
X138885714Y-81467809D01*
X138885714Y-81401142D01*
X138895238Y-81363047D01*
X138914285Y-81344000D01*
X138933333Y-81334476D01*
X139104761Y-81334476D02*
X139104761Y-81496380D01*
X139114285Y-81515428D01*
X139123809Y-81524952D01*
X139142857Y-81534476D01*
X139180952Y-81534476D01*
X139200000Y-81524952D01*
X139209523Y-81515428D01*
X139219047Y-81496380D01*
X139219047Y-81334476D01*
X139285714Y-81334476D02*
X139400000Y-81334476D01*
X139342857Y-81534476D02*
X139342857Y-81334476D01*
X139600000Y-81334476D02*
X139733333Y-81334476D01*
X139600000Y-81534476D01*
X139733333Y-81534476D01*
X139847619Y-81334476D02*
X139885714Y-81334476D01*
X139904761Y-81344000D01*
X139923809Y-81363047D01*
X139933333Y-81401142D01*
X139933333Y-81467809D01*
X139923809Y-81505904D01*
X139904761Y-81524952D01*
X139885714Y-81534476D01*
X139847619Y-81534476D01*
X139828571Y-81524952D01*
X139809523Y-81505904D01*
X139800000Y-81467809D01*
X139800000Y-81401142D01*
X139809523Y-81363047D01*
X139828571Y-81344000D01*
X139847619Y-81334476D01*
X140019047Y-81534476D02*
X140019047Y-81334476D01*
X140133333Y-81534476D01*
X140133333Y-81334476D01*
X140228571Y-81429714D02*
X140295238Y-81429714D01*
X140323809Y-81534476D02*
X140228571Y-81534476D01*
X140228571Y-81334476D01*
X140323809Y-81334476D01*
X132885714Y-81534476D02*
X132885714Y-81334476D01*
X133000000Y-81534476D02*
X132914285Y-81420190D01*
X133000000Y-81334476D02*
X132885714Y-81448761D01*
X133085714Y-81429714D02*
X133152380Y-81429714D01*
X133180952Y-81534476D02*
X133085714Y-81534476D01*
X133085714Y-81334476D01*
X133180952Y-81334476D01*
X133266666Y-81429714D02*
X133333333Y-81429714D01*
X133361904Y-81534476D02*
X133266666Y-81534476D01*
X133266666Y-81334476D01*
X133361904Y-81334476D01*
X133447619Y-81534476D02*
X133447619Y-81334476D01*
X133523809Y-81334476D01*
X133542857Y-81344000D01*
X133552380Y-81353523D01*
X133561904Y-81372571D01*
X133561904Y-81401142D01*
X133552380Y-81420190D01*
X133542857Y-81429714D01*
X133523809Y-81439238D01*
X133447619Y-81439238D01*
X133647619Y-81458285D02*
X133800000Y-81458285D01*
X133933333Y-81334476D02*
X133971428Y-81334476D01*
X133990476Y-81344000D01*
X134009523Y-81363047D01*
X134019047Y-81401142D01*
X134019047Y-81467809D01*
X134009523Y-81505904D01*
X133990476Y-81524952D01*
X133971428Y-81534476D01*
X133933333Y-81534476D01*
X133914285Y-81524952D01*
X133895238Y-81505904D01*
X133885714Y-81467809D01*
X133885714Y-81401142D01*
X133895238Y-81363047D01*
X133914285Y-81344000D01*
X133933333Y-81334476D01*
X134104761Y-81334476D02*
X134104761Y-81496380D01*
X134114285Y-81515428D01*
X134123809Y-81524952D01*
X134142857Y-81534476D01*
X134180952Y-81534476D01*
X134200000Y-81524952D01*
X134209523Y-81515428D01*
X134219047Y-81496380D01*
X134219047Y-81334476D01*
X134285714Y-81334476D02*
X134400000Y-81334476D01*
X134342857Y-81534476D02*
X134342857Y-81334476D01*
X134600000Y-81334476D02*
X134733333Y-81334476D01*
X134600000Y-81534476D01*
X134733333Y-81534476D01*
X134847619Y-81334476D02*
X134885714Y-81334476D01*
X134904761Y-81344000D01*
X134923809Y-81363047D01*
X134933333Y-81401142D01*
X134933333Y-81467809D01*
X134923809Y-81505904D01*
X134904761Y-81524952D01*
X134885714Y-81534476D01*
X134847619Y-81534476D01*
X134828571Y-81524952D01*
X134809523Y-81505904D01*
X134800000Y-81467809D01*
X134800000Y-81401142D01*
X134809523Y-81363047D01*
X134828571Y-81344000D01*
X134847619Y-81334476D01*
X135019047Y-81534476D02*
X135019047Y-81334476D01*
X135133333Y-81534476D01*
X135133333Y-81334476D01*
X135228571Y-81429714D02*
X135295238Y-81429714D01*
X135323809Y-81534476D02*
X135228571Y-81534476D01*
X135228571Y-81334476D01*
X135323809Y-81334476D01*
%TD*%
M02*
