M48
; DRILL file {KiCad (6.0.9)} date Wed Nov 30 17:50:51 2022
; FORMAT={-:-/ absolute / inch / decimal}
; #@! TF.CreationDate,2022-11-30T17:50:51+01:00
; #@! TF.GenerationSoftware,Kicad,Pcbnew,(6.0.9)
; #@! TF.FileFunction,Plated,1,2,PTH
FMAT,2
INCH
; #@! TA.AperFunction,Plated,PTH,ViaDrill
T1C0.0157
; #@! TA.AperFunction,Plated,PTH,ComponentDrill
T2C0.0394
%
G90
G05
T1
X4.978Y-3.2793
X4.978Y-3.8743
X4.978Y-4.0093
X4.978Y-4.2872
X4.978Y-4.4172
X4.978Y-3.148
X5.145Y-3.04
X5.178Y-3.4693
X5.178Y-3.5993
X5.1957Y-3.0403
X5.368Y-3.1493
X5.3744Y-3.2793
X5.378Y-3.8793
X5.378Y-4.2872
X5.378Y-4.4172
X5.378Y-4.01
X5.54Y-3.0449
X5.605Y-3.75
X5.675Y-3.045
X5.725Y-3.045
X5.725Y-3.75
X5.7314Y-3.6336
X5.775Y-3.635
X5.795Y-3.175
X5.8Y-3.045
X5.8075Y-4.5972
X5.85Y-4.765
X5.855Y-3.13
X5.86Y-3.045
X5.881Y-4.6935
X5.9202Y-3.0802
X5.95Y-4.765
X5.975Y-3.045
X5.9792Y-4.6924
X6.025Y-3.045
X6.05Y-4.765
X6.07Y-3.92
X6.0702Y-3.9848
X6.075Y-3.045
X6.0792Y-4.6924
X6.115Y-3.107
X6.115Y-4.6335
X6.125Y-3.045
X6.15Y-4.765
X6.16Y-3.92
X6.16Y-3.985
X6.1792Y-4.6924
X6.25Y-4.765
X6.2792Y-4.6924
X6.31Y-3.08
X6.35Y-4.765
X6.375Y-3.13
X6.381Y-4.6935
X6.425Y-4.6
X6.435Y-3.175
X6.455Y-3.635
X6.51Y-3.645
T2
X4.8402Y-2.9
X4.9402Y-2.9
X5.0Y-4.8
X5.0333Y-3.3743
X5.0402Y-2.9
X5.1Y-4.8
X5.1402Y-2.9
X5.2Y-4.8
X5.2402Y-2.9
X5.3Y-4.8
X5.3326Y-3.3743
X5.3402Y-2.9
X5.4Y-4.8
X5.4402Y-2.9
X5.5Y-4.8
X5.5402Y-2.9
X5.6Y-4.8
X5.7Y-2.9
X5.7Y-4.8
X5.8Y-2.9
X5.9Y-2.9
X5.9Y-4.8
X6.0Y-2.9
X6.0Y-4.8
X6.1Y-2.9
X6.1Y-4.8
X6.2Y-2.9
X6.2Y-4.8
X6.3Y-2.9
X6.3Y-4.8
X6.4Y-2.9
X6.4Y-4.8
T0
M30
