%TF.GenerationSoftware,KiCad,Pcbnew,(6.0.9)*%
%TF.CreationDate,2022-11-30T17:50:51+01:00*%
%TF.ProjectId,car-shield,6361722d-7368-4696-956c-642e6b696361,rev0*%
%TF.SameCoordinates,Original*%
%TF.FileFunction,Soldermask,Top*%
%TF.FilePolarity,Negative*%
%FSLAX46Y46*%
G04 Gerber Fmt 4.6, Leading zero omitted, Abs format (unit mm)*
G04 Created by KiCad (PCBNEW (6.0.9)) date 2022-11-30 17:50:51*
%MOMM*%
%LPD*%
G01*
G04 APERTURE LIST*
G04 Aperture macros list*
%AMRoundRect*
0 Rectangle with rounded corners*
0 $1 Rounding radius*
0 $2 $3 $4 $5 $6 $7 $8 $9 X,Y pos of 4 corners*
0 Add a 4 corners polygon primitive as box body*
4,1,4,$2,$3,$4,$5,$6,$7,$8,$9,$2,$3,0*
0 Add four circle primitives for the rounded corners*
1,1,$1+$1,$2,$3*
1,1,$1+$1,$4,$5*
1,1,$1+$1,$6,$7*
1,1,$1+$1,$8,$9*
0 Add four rect primitives between the rounded corners*
20,1,$1+$1,$2,$3,$4,$5,0*
20,1,$1+$1,$4,$5,$6,$7,0*
20,1,$1+$1,$6,$7,$8,$9,0*
20,1,$1+$1,$8,$9,$2,$3,0*%
G04 Aperture macros list end*
%ADD10R,1.000000X0.750000*%
%ADD11RoundRect,0.218750X0.117915X0.315613X-0.293200X0.165979X-0.117915X-0.315613X0.293200X-0.165979X0*%
%ADD12RoundRect,0.135000X-0.135000X-0.185000X0.135000X-0.185000X0.135000X0.185000X-0.135000X0.185000X0*%
%ADD13RoundRect,0.135000X-0.185000X0.135000X-0.185000X-0.135000X0.185000X-0.135000X0.185000X0.135000X0*%
%ADD14RoundRect,0.218750X-0.277619X-0.190902X0.144974X-0.304135X0.277619X0.190902X-0.144974X0.304135X0*%
%ADD15RoundRect,0.218750X0.317568X0.112544X-0.061318X0.331294X-0.317568X-0.112544X0.061318X-0.331294X0*%
%ADD16RoundRect,0.218750X-0.332287X-0.055689X0.002858X-0.336909X0.332287X0.055689X-0.002858X0.336909X0*%
%ADD17RoundRect,0.218750X0.002858X0.336909X-0.332287X0.055689X-0.002858X-0.336909X0.332287X-0.055689X0*%
%ADD18RoundRect,0.218750X-0.256250X0.218750X-0.256250X-0.218750X0.256250X-0.218750X0.256250X0.218750X0*%
%ADD19RoundRect,0.218750X-0.061318X-0.331294X0.317568X-0.112544X0.061318X0.331294X-0.317568X0.112544X0*%
%ADD20RoundRect,0.218750X0.144974X0.304135X-0.277619X0.190902X-0.144974X-0.304135X0.277619X-0.190902X0*%
%ADD21RoundRect,0.135000X0.185000X-0.135000X0.185000X0.135000X-0.185000X0.135000X-0.185000X-0.135000X0*%
%ADD22RoundRect,0.218750X-0.293200X-0.165979X0.117915X-0.315613X0.293200X0.165979X-0.117915X0.315613X0*%
%ADD23C,2.000000*%
%ADD24R,1.600000X1.600000*%
%ADD25O,1.600000X1.600000*%
G04 APERTURE END LIST*
%TO.C,REF\u002A\u002A*%
G36*
X142196749Y-114198400D02*
G01*
X142196749Y-120198550D01*
X129590800Y-120198550D01*
X129590800Y-114703809D01*
X130091029Y-114703809D01*
X130091059Y-117299514D01*
X130094335Y-117423089D01*
X130103741Y-117545027D01*
X130119127Y-117665178D01*
X130140344Y-117783391D01*
X130167242Y-117899518D01*
X130199670Y-118013408D01*
X130237479Y-118124911D01*
X130280519Y-118233877D01*
X130328640Y-118340157D01*
X130381693Y-118443600D01*
X130439526Y-118544057D01*
X130501991Y-118641378D01*
X130568937Y-118735412D01*
X130640214Y-118826011D01*
X130715673Y-118913023D01*
X130795164Y-118996300D01*
X130878536Y-119075691D01*
X130965640Y-119151046D01*
X131056326Y-119222216D01*
X131150444Y-119289050D01*
X131247843Y-119351399D01*
X131348375Y-119409113D01*
X131451889Y-119462041D01*
X131558235Y-119510035D01*
X131667264Y-119552943D01*
X131778825Y-119590617D01*
X131892768Y-119622906D01*
X132008944Y-119649661D01*
X132127203Y-119670731D01*
X132247394Y-119685966D01*
X132369369Y-119695218D01*
X132492976Y-119698335D01*
X135085581Y-119698335D01*
X135085581Y-117879323D01*
X135709292Y-117879323D01*
X135968188Y-119692650D01*
X136685458Y-119692650D01*
X136789097Y-119093789D01*
X136823649Y-118886930D01*
X136846690Y-118741804D01*
X136866026Y-118873243D01*
X136886099Y-119001090D01*
X136906908Y-119125344D01*
X136928449Y-119246002D01*
X136950720Y-119363064D01*
X136973716Y-119476527D01*
X136997436Y-119586390D01*
X137021876Y-119692650D01*
X137743281Y-119692650D01*
X137743281Y-119692649D01*
X138269343Y-119692649D01*
X139297702Y-119692649D01*
X139641871Y-119692649D01*
X140220133Y-119692649D01*
X140484713Y-119692649D01*
X141610224Y-119692649D01*
X141610224Y-119329881D01*
X141117747Y-119329881D01*
X141610224Y-118242092D01*
X141610224Y-117879323D01*
X140531741Y-117879323D01*
X140531741Y-118242092D01*
X140989077Y-118242092D01*
X140484713Y-119429616D01*
X140484713Y-119692649D01*
X140220133Y-119692649D01*
X140220133Y-117879323D01*
X139641871Y-117879323D01*
X139641871Y-119692649D01*
X139297702Y-119692649D01*
X139297702Y-119329881D01*
X138847598Y-119329881D01*
X138847598Y-118930939D01*
X139297702Y-118930939D01*
X139297702Y-118586257D01*
X138847598Y-118586257D01*
X138847598Y-118242092D01*
X139297702Y-118242092D01*
X139297702Y-117879323D01*
X138269343Y-117879323D01*
X138269343Y-119692649D01*
X137743281Y-119692649D01*
X138001147Y-117879324D01*
X137439425Y-117879324D01*
X137412410Y-118037169D01*
X137387359Y-118195948D01*
X137364270Y-118355650D01*
X137343142Y-118516264D01*
X137323972Y-118677780D01*
X137306759Y-118840184D01*
X137291500Y-119003468D01*
X137278193Y-119167618D01*
X137214114Y-118477736D01*
X137190997Y-118245854D01*
X137172799Y-118068775D01*
X137159496Y-117946574D01*
X137151065Y-117879323D01*
X136550585Y-117879323D01*
X136520120Y-118067084D01*
X136492670Y-118245650D01*
X136468227Y-118415016D01*
X136446786Y-118575178D01*
X136428339Y-118726132D01*
X136412881Y-118867871D01*
X136400404Y-119000393D01*
X136390902Y-119123692D01*
X136331996Y-118511843D01*
X136271014Y-117879323D01*
X135709292Y-117879323D01*
X135085581Y-117879323D01*
X135085581Y-117656081D01*
X140057345Y-117656081D01*
X141697039Y-117656081D01*
X141697039Y-116932611D01*
X140819575Y-116932611D01*
X140819575Y-114749799D01*
X140057345Y-115512027D01*
X140057345Y-117656081D01*
X135085581Y-117656081D01*
X135085581Y-117656068D01*
X135642626Y-117656068D01*
X136407954Y-117656068D01*
X136407954Y-116609103D01*
X136835314Y-116609103D01*
X136835314Y-117656068D01*
X137597544Y-117656068D01*
X137597544Y-115494443D01*
X137845584Y-115494443D01*
X138462603Y-115494443D01*
X138462603Y-117656068D01*
X139224833Y-117656068D01*
X139224833Y-115494443D01*
X139722476Y-115494443D01*
X140530696Y-114698110D01*
X137845591Y-114698110D01*
X137845584Y-115494443D01*
X137597544Y-115494443D01*
X137597544Y-114698110D01*
X136835314Y-114698110D01*
X136835314Y-115777631D01*
X136407954Y-115777631D01*
X136407954Y-114698110D01*
X135642626Y-114698110D01*
X135642626Y-117656068D01*
X135085581Y-117656068D01*
X135085581Y-115381286D01*
X135082980Y-115378686D01*
X134069606Y-116392577D01*
X134069606Y-118688045D01*
X132490893Y-118688045D01*
X132419233Y-118686235D01*
X132348522Y-118680865D01*
X132278847Y-118672022D01*
X132210294Y-118659792D01*
X132142952Y-118644263D01*
X132076907Y-118625522D01*
X132012245Y-118603656D01*
X131949054Y-118578752D01*
X131887421Y-118550899D01*
X131827432Y-118520181D01*
X131769175Y-118486688D01*
X131712736Y-118450505D01*
X131658203Y-118411721D01*
X131605662Y-118370422D01*
X131555201Y-118326695D01*
X131506906Y-118280629D01*
X131460865Y-118232308D01*
X131417163Y-118181822D01*
X131375889Y-118129257D01*
X131337129Y-118074701D01*
X131300970Y-118018240D01*
X131267500Y-117959961D01*
X131236804Y-117899953D01*
X131208970Y-117838301D01*
X131184085Y-117775093D01*
X131162236Y-117710417D01*
X131143510Y-117644359D01*
X131127993Y-117577007D01*
X131115774Y-117508447D01*
X131106938Y-117438768D01*
X131101572Y-117368056D01*
X131099765Y-117296397D01*
X131099765Y-115716132D01*
X132647471Y-115716132D01*
X132650569Y-115718732D01*
X131879039Y-116497497D01*
X132584422Y-117201846D01*
X134070636Y-115717183D01*
X135085559Y-114703809D01*
X130091029Y-114703809D01*
X129590800Y-114703809D01*
X129590800Y-114198400D01*
X142196749Y-114198400D01*
G37*
G36*
X147965330Y-90045199D02*
G01*
X148197870Y-91365830D01*
X148331966Y-92280718D01*
X148460975Y-93333495D01*
X148572168Y-94500293D01*
X148652815Y-95757241D01*
X148685749Y-96642214D01*
X148708214Y-97670712D01*
X148719369Y-98825127D01*
X148718374Y-100087853D01*
X148718374Y-100087857D01*
X148569625Y-100031295D01*
X148421104Y-99979882D01*
X148124998Y-99884531D01*
X147977537Y-99836605D01*
X147830553Y-99785855D01*
X147684109Y-99730287D01*
X147611109Y-99700074D01*
X147538268Y-99667909D01*
X147571159Y-97530664D01*
X147633951Y-95142495D01*
X147730632Y-92490695D01*
X147865187Y-89562554D01*
X147965330Y-90045199D01*
G37*
G36*
X147610317Y-100005882D02*
G01*
X147684913Y-100025263D01*
X147759402Y-100046526D01*
X147833784Y-100069428D01*
X147982219Y-100119180D01*
X148130209Y-100172576D01*
X148424808Y-100282534D01*
X148571396Y-100335214D01*
X148717497Y-100383771D01*
X148700775Y-101842783D01*
X148667949Y-103321656D01*
X148618118Y-104779952D01*
X148550378Y-106177229D01*
X148463825Y-107473050D01*
X148357556Y-108626974D01*
X148230668Y-109598563D01*
X148159210Y-110003343D01*
X148082259Y-110347375D01*
X147988003Y-109895475D01*
X147892718Y-109257279D01*
X147785357Y-108279078D01*
X147680944Y-106911993D01*
X147594501Y-105107143D01*
X147541051Y-102815647D01*
X147535616Y-99988626D01*
X147610317Y-100005882D01*
G37*
G36*
X161107761Y-113797334D02*
G01*
X161035797Y-113868561D01*
X160942860Y-113950310D01*
X160809301Y-114056341D01*
X160633133Y-114181798D01*
X160528449Y-114250293D01*
X160412367Y-114321823D01*
X160284638Y-114395782D01*
X160145015Y-114471562D01*
X159993247Y-114548556D01*
X159829088Y-114626157D01*
X159652288Y-114703758D01*
X159462599Y-114780752D01*
X159259773Y-114856532D01*
X159043560Y-114930490D01*
X158813712Y-115002021D01*
X158569981Y-115070516D01*
X158312119Y-115135369D01*
X158039876Y-115195973D01*
X157753004Y-115251720D01*
X157451255Y-115302004D01*
X157134379Y-115346217D01*
X156802130Y-115383753D01*
X156454257Y-115414004D01*
X156090513Y-115436364D01*
X155710649Y-115450225D01*
X155314416Y-115454980D01*
X154538475Y-115436364D01*
X153826994Y-115383753D01*
X153177988Y-115302004D01*
X152589468Y-115195973D01*
X152059449Y-115070516D01*
X151585942Y-114930490D01*
X151166961Y-114780752D01*
X150800520Y-114626157D01*
X150484630Y-114471562D01*
X150217306Y-114321823D01*
X149996560Y-114181798D01*
X149820405Y-114056341D01*
X149593921Y-113868561D01*
X149521959Y-113797334D01*
X149521959Y-107793122D01*
X149606822Y-107826966D01*
X149864635Y-107916189D01*
X150059910Y-107975800D01*
X150300238Y-108042333D01*
X150586221Y-108113481D01*
X150918467Y-108186936D01*
X151297579Y-108260392D01*
X151724161Y-108331540D01*
X152198820Y-108398073D01*
X152722159Y-108457684D01*
X153002272Y-108484172D01*
X153294783Y-108508064D01*
X153599766Y-108529072D01*
X153917298Y-108546907D01*
X154247453Y-108561281D01*
X154590307Y-108571905D01*
X154945936Y-108578491D01*
X155314416Y-108580751D01*
X156038681Y-108571905D01*
X156711828Y-108546907D01*
X157334461Y-108508064D01*
X157907187Y-108457684D01*
X158430612Y-108398073D01*
X158905342Y-108331540D01*
X159711143Y-108186936D01*
X160329436Y-108042333D01*
X160765071Y-107916189D01*
X161107761Y-107793122D01*
X161107761Y-113797334D01*
G37*
G36*
X155823283Y-85169792D02*
G01*
X156308322Y-85195239D01*
X156770037Y-85236289D01*
X157208930Y-85291828D01*
X157625504Y-85360741D01*
X158020264Y-85441913D01*
X158393712Y-85534230D01*
X158746351Y-85636577D01*
X159078684Y-85747840D01*
X159391216Y-85866905D01*
X159684448Y-85992657D01*
X159958885Y-86123981D01*
X160215029Y-86259763D01*
X160453384Y-86398888D01*
X160674453Y-86540243D01*
X160878738Y-86682712D01*
X161066745Y-86825181D01*
X161238974Y-86966535D01*
X161395931Y-87105661D01*
X161538118Y-87241443D01*
X161666037Y-87372767D01*
X161780194Y-87498518D01*
X161969228Y-87728846D01*
X162109248Y-87923511D01*
X162204277Y-88073595D01*
X162275470Y-88204362D01*
X161532138Y-94181100D01*
X160988832Y-94075062D01*
X160367711Y-93966372D01*
X159565178Y-93841777D01*
X158619907Y-93717182D01*
X157570572Y-93608492D01*
X156455849Y-93531614D01*
X155886053Y-93510075D01*
X155314412Y-93502454D01*
X154742928Y-93510075D01*
X154173268Y-93531614D01*
X153610269Y-93565083D01*
X153058766Y-93608492D01*
X152523595Y-93659855D01*
X152009590Y-93717182D01*
X151064426Y-93841777D01*
X150261957Y-93966372D01*
X149640870Y-94075062D01*
X149097578Y-94181100D01*
X148353358Y-88204362D01*
X148424587Y-88073595D01*
X148659723Y-87728846D01*
X148848811Y-87498518D01*
X149090942Y-87241443D01*
X149390138Y-86966535D01*
X149750420Y-86682712D01*
X150175810Y-86398888D01*
X150670330Y-86123981D01*
X151238003Y-85866905D01*
X151550528Y-85747840D01*
X151882849Y-85636577D01*
X152235469Y-85534230D01*
X152608891Y-85441913D01*
X153003618Y-85360741D01*
X153420151Y-85291828D01*
X153858995Y-85236289D01*
X154320651Y-85195239D01*
X154805622Y-85169792D01*
X155314412Y-85161061D01*
X155314416Y-85161061D01*
X155823283Y-85169792D01*
G37*
G36*
X163088669Y-102815647D02*
G01*
X163035218Y-105107143D01*
X162948775Y-106911993D01*
X162844361Y-108279078D01*
X162737000Y-109257279D01*
X162641714Y-109895475D01*
X162547458Y-110347375D01*
X162470505Y-110003343D01*
X162399047Y-109598563D01*
X162272159Y-108626974D01*
X162165890Y-107473050D01*
X162079337Y-106177229D01*
X162011597Y-104779952D01*
X161961766Y-103321656D01*
X161928941Y-101842783D01*
X161912219Y-100383771D01*
X162058319Y-100335214D01*
X162204906Y-100282534D01*
X162499505Y-100172576D01*
X162647495Y-100119180D01*
X162795932Y-100069428D01*
X162870314Y-100046526D01*
X162944805Y-100025263D01*
X163019402Y-100005882D01*
X163094104Y-99988626D01*
X163088669Y-102815647D01*
G37*
G36*
X162899081Y-92490695D02*
G01*
X162995763Y-95142495D01*
X163058556Y-97530664D01*
X163091449Y-99667909D01*
X163018461Y-99700074D01*
X162945353Y-99730287D01*
X162798789Y-99785855D01*
X162651789Y-99836605D01*
X162504384Y-99884531D01*
X162208483Y-99979882D01*
X162060049Y-100031295D01*
X161911334Y-100087857D01*
X161911334Y-100087853D01*
X161910337Y-98825127D01*
X161921493Y-97670712D01*
X161943960Y-96642214D01*
X161976901Y-95757241D01*
X162057548Y-94500293D01*
X162168740Y-93333495D01*
X162297747Y-92280718D01*
X162431843Y-91365830D01*
X162664380Y-90045199D01*
X162764522Y-89562554D01*
X162899081Y-92490695D01*
G37*
%TD*%
D10*
%TO.C,SW_high_b1*%
X139600000Y-102061000D03*
X133600000Y-102061000D03*
X139600000Y-98311000D03*
X133600000Y-98311000D03*
%TD*%
%TO.C,SW_dipped_b1*%
X139600000Y-112420000D03*
X133600000Y-112420000D03*
X139600000Y-108670000D03*
X133600000Y-108670000D03*
%TD*%
%TO.C,SW_decel1*%
X129440000Y-112420000D03*
X123440000Y-112420000D03*
X129440000Y-108670000D03*
X123440000Y-108670000D03*
%TD*%
%TO.C,SW_accel1*%
X129440000Y-102061000D03*
X123440000Y-102061000D03*
X129440000Y-98311000D03*
X123440000Y-98311000D03*
%TD*%
%TO.C,SW_stop1*%
X134520000Y-91647000D03*
X128520000Y-91647000D03*
X134520000Y-87897000D03*
X128520000Y-87897000D03*
%TD*%
%TO.C,SW_left1*%
X123440000Y-79769000D03*
X129440000Y-79769000D03*
X123440000Y-83519000D03*
X129440000Y-83519000D03*
%TD*%
%TO.C,SW_right1*%
X133600000Y-79769000D03*
X139600000Y-79769000D03*
X133600000Y-83519000D03*
X139600000Y-83519000D03*
%TD*%
D11*
%TO.C,D5*%
X146663008Y-90916659D03*
X145182992Y-91455341D03*
%TD*%
D12*
%TO.C,R11*%
X156460000Y-120015000D03*
X157480000Y-120015000D03*
%TD*%
D13*
%TO.C,R4*%
X153035000Y-75565000D03*
X153035000Y-76585000D03*
%TD*%
D14*
%TO.C,D2*%
X158497333Y-78917180D03*
X160018667Y-79324820D03*
%TD*%
D12*
%TO.C,R13*%
X161540000Y-120015000D03*
X162560000Y-120015000D03*
%TD*%
D15*
%TO.C,D9*%
X149652995Y-117106750D03*
X148289005Y-116319250D03*
%TD*%
D13*
%TO.C,R6*%
X149860000Y-75565000D03*
X149860000Y-76585000D03*
%TD*%
%TO.C,R2*%
X155575000Y-75565000D03*
X155575000Y-76585000D03*
%TD*%
D16*
%TO.C,D4*%
X161321740Y-80392805D03*
X162528260Y-81405195D03*
%TD*%
D13*
%TO.C,R7*%
X131826000Y-75563000D03*
X131826000Y-76583000D03*
%TD*%
%TO.C,R3*%
X151765000Y-75565000D03*
X151765000Y-76585000D03*
%TD*%
%TO.C,R5*%
X147320000Y-75565000D03*
X147320000Y-76585000D03*
%TD*%
%TO.C,R8*%
X145415000Y-75565000D03*
X145415000Y-76585000D03*
%TD*%
D12*
%TO.C,R16*%
X159000000Y-120015000D03*
X160020000Y-120015000D03*
%TD*%
D17*
%TO.C,D3*%
X149320260Y-80392805D03*
X148113740Y-81405195D03*
%TD*%
D12*
%TO.C,R12*%
X148840000Y-120015000D03*
X149860000Y-120015000D03*
%TD*%
D18*
%TO.C,D7*%
X155321000Y-99542500D03*
X155321000Y-101117500D03*
%TD*%
D12*
%TO.C,R15*%
X153920000Y-120015000D03*
X154940000Y-120015000D03*
%TD*%
D19*
%TO.C,D8*%
X160989005Y-117106750D03*
X162352995Y-116319250D03*
%TD*%
D20*
%TO.C,D1*%
X152144667Y-78917180D03*
X150623333Y-79324820D03*
%TD*%
D13*
%TO.C,R1*%
X154305000Y-75565000D03*
X154305000Y-76585000D03*
%TD*%
D21*
%TO.C,R10*%
X140716000Y-76583000D03*
X140716000Y-75563000D03*
%TD*%
D12*
%TO.C,R14*%
X151380000Y-120015000D03*
X152400000Y-120015000D03*
%TD*%
D13*
%TO.C,R9*%
X144145000Y-75565000D03*
X144145000Y-76585000D03*
%TD*%
D22*
%TO.C,D6*%
X163978992Y-90916659D03*
X165459008Y-91455341D03*
%TD*%
D23*
%TO.C,BZ1*%
X135447000Y-85708000D03*
X127847000Y-85708000D03*
%TD*%
D24*
%TO.C,A1*%
X127000000Y-121920000D03*
D25*
X129540000Y-121920000D03*
X132080000Y-121920000D03*
X134620000Y-121920000D03*
X137160000Y-121920000D03*
X139700000Y-121920000D03*
X142240000Y-121920000D03*
X144780000Y-121920000D03*
X149860000Y-121920000D03*
X152400000Y-121920000D03*
X154940000Y-121920000D03*
X157480000Y-121920000D03*
X160020000Y-121920000D03*
X162560000Y-121920000D03*
X162560000Y-73660000D03*
X160020000Y-73660000D03*
X157480000Y-73660000D03*
X154940000Y-73660000D03*
X152400000Y-73660000D03*
X149860000Y-73660000D03*
X147320000Y-73660000D03*
X144780000Y-73660000D03*
X140720000Y-73660000D03*
X138180000Y-73660000D03*
X135640000Y-73660000D03*
X133100000Y-73660000D03*
X130560000Y-73660000D03*
X128020000Y-73660000D03*
X125480000Y-73660000D03*
X122940000Y-73660000D03*
%TD*%
M02*
